<svg width="85" height="51" viewBox="0 0 85 51" fill="none" xmlns="http://www.w3.org/2000/svg">
<path d="M24.799 37.9046C24.7654 37.8502 25.1691 37.4092 25.8552 36.7507L26.9658 35.6848L26.9645 33.5186C26.9635 31.7666 26.9832 31.3358 27.0678 31.2656C27.2157 31.1428 34.9596 31.1436 35.1075 31.2664C35.2498 31.3845 35.262 37.7602 35.1203 37.9019C34.9913 38.0309 24.8787 38.0336 24.799 37.9046V37.9046ZM38.026 37.9019C37.9582 37.8341 37.9352 36.9939 37.9352 34.5876C37.9352 32.1813 37.9582 31.3411 38.026 31.2733C38.0943 31.205 39.1049 31.1825 42.1094 31.1825C46.02 31.1825 46.1037 31.1856 46.1828 31.3333C46.2373 31.4352 46.2566 32.5172 46.2422 34.6656C46.2239 37.3953 46.2048 37.8571 46.1074 37.9187C45.9283 38.0318 38.1397 38.0156 38.026 37.9019ZM49.0774 37.9428C49.0037 37.9129 48.9828 37.1705 48.9828 34.5894C48.9828 31.6363 48.9959 31.2694 49.1025 31.2284C49.1683 31.2032 50.9832 31.1825 53.1356 31.1825C56.0785 31.1825 57.0716 31.205 57.1399 31.2733C57.2062 31.3396 57.2316 31.9576 57.2342 33.5623L57.2378 35.7605L58.3321 36.7799C58.934 37.3406 59.4148 37.8344 59.4005 37.8771C59.374 37.9567 49.2699 38.0211 49.0774 37.9428H49.0774ZM0.00193192 29.2636C-0.0197804 29.207 0.14405 28.6026 0.366004 27.9205C0.587956 27.2383 1.06397 25.7609 1.42381 24.6372C1.78365 23.5135 2.2431 22.0834 2.4448 21.4591C2.64651 20.8348 3.14108 19.3025 3.54385 18.054C3.94662 16.8055 4.61157 14.7624 5.02152 13.5139C5.61902 11.6941 6.92592 7.6635 7.56086 5.6822C7.62087 5.49492 7.70228 5.29062 7.74176 5.22819C7.80469 5.12868 8.79396 5.11223 15.7646 5.09474C21.2039 5.0811 23.7624 5.09986 23.8639 5.15415C24.0044 5.22933 24.0122 5.32257 24.0122 6.92457C24.0122 8.61429 24.0123 8.61566 24.1824 8.66125C24.2761 8.68635 26.4468 8.70748 29.0063 8.70822C33.9213 8.70963 34.471 8.74099 35.4418 9.07536C36.4716 9.43009 37.2444 10.0653 37.6501 10.8905L37.8973 11.3935L37.9352 10.0951C37.956 9.381 37.9907 8.77918 38.0123 8.75773C38.0727 8.69768 49.0376 8.66396 49.0979 8.72363C49.127 8.75251 49.4053 9.68891 49.7162 10.8045C50.6265 14.0709 51.3975 16.7484 51.4402 16.7911C51.5174 16.8683 51.5651 16.7351 51.9398 15.3965C52.1481 14.6524 52.5911 13.0826 52.9243 11.9082C53.2574 10.7337 53.5808 9.57792 53.6428 9.33978C53.7048 9.10163 53.7925 8.86227 53.8377 8.80787C53.9025 8.72977 54.5192 8.70803 56.767 8.70458C58.333 8.70218 59.7504 8.6761 59.9169 8.64661L60.2196 8.593L60.2399 6.89525C60.2548 5.65318 60.2853 5.18132 60.3534 5.13723C60.4942 5.04615 76.3513 5.09851 76.4423 5.19036C76.4835 5.23197 76.7604 6.01514 77.0577 6.93073C77.355 7.84632 78.2279 10.5363 78.9974 12.9086C79.7669 15.2808 80.5332 17.6303 80.7003 18.1297C80.8674 18.6291 81.1 19.3442 81.2171 19.7187C81.3342 20.0933 82.0654 22.37 82.842 24.778C83.6187 27.1861 84.2359 29.2036 84.2138 29.2614C84.1799 29.3497 83.3404 29.3663 78.9688 29.3653C76.1063 29.3647 73.7182 29.335 73.662 29.2994C73.6041 29.2627 73.2952 28.1561 72.9495 26.7467C72.6138 25.3784 72.3023 24.2334 72.2572 24.2024C72.2121 24.1713 71.4942 24.1543 70.6618 24.1645L69.1485 24.1832L69.1285 26.7142C69.1135 28.6235 69.0856 29.2599 69.015 29.3047C68.9636 29.3374 66.2978 29.3647 63.0912 29.3653C58.6561 29.3662 57.2392 29.3447 57.1701 29.2757C57.1014 29.207 57.0793 28.0246 57.0793 24.4177C57.0793 21.6704 57.0511 19.6811 57.0128 19.7225C56.9584 19.7813 54.8385 27.1413 54.453 28.6098C54.3929 28.8387 54.2945 29.1026 54.2343 29.1962L54.1248 29.3665H51.5943C49.2216 29.3665 49.0592 29.3578 48.9898 29.2283C48.9092 29.0776 48.6305 28.0767 47.2796 23.086C46.7896 21.2756 46.3594 19.762 46.3237 19.7225C46.2663 19.659 46.217 25.9482 46.2573 28.2048C46.2663 28.7143 46.2386 29.1114 46.1872 29.2074L46.1021 29.3665H37.7082C29.4126 29.3665 29.3133 29.3647 29.2339 29.2162C29.1805 29.1164 29.1525 27.8412 29.1504 25.4139C29.147 21.4818 29.1369 21.3712 28.7552 21.0881C28.5695 20.9504 28.4529 20.9327 27.8514 20.9507C27.4716 20.9621 27.1532 20.9791 27.1438 20.9885C27.1344 20.9979 27.1086 22.8533 27.0865 25.1116C27.0644 27.3699 27.0256 29.2511 27.0003 29.292C26.9271 29.4105 15.2596 29.3925 15.1862 29.2738C15.1547 29.2228 15.1176 28.0906 15.1037 26.7578C15.0899 25.425 15.0636 24.2919 15.0454 24.2399C15.0204 24.1685 14.6408 24.1453 13.495 24.1453C11.9934 24.1453 11.9768 24.1471 11.9048 24.3156C11.8647 24.4092 11.575 25.5392 11.2609 26.8267C10.9467 28.1141 10.6526 29.2123 10.6072 29.267C10.4826 29.4171 0.0595437 29.4137 0.00193192 29.2636V29.2636ZM37.918 17.2076L37.8973 15.8596L37.7143 16.2286C37.3105 17.0425 36.3171 17.8283 35.2679 18.1641C35.1118 18.2141 34.9852 18.2778 34.9866 18.3058C34.988 18.3338 35.2919 18.5008 35.662 18.677C36.6021 19.1247 37.1584 19.6537 37.5764 20.4977L37.8973 21.1457L37.918 19.8506C37.9294 19.1384 37.9294 17.949 37.918 17.2076ZM71.1411 18.6571C71.155 18.6445 71.0294 18.129 70.8619 17.5117C70.6945 16.8944 70.469 16.0318 70.361 15.5948C70.2529 15.1578 70.0833 14.5279 69.9841 14.1949C69.8849 13.862 69.6954 13.1639 69.5629 12.6437C69.4305 12.1235 69.2926 11.6468 69.2565 11.5844C69.1652 11.4263 69.1512 12.4068 69.1775 17.1233L69.1863 18.6896L69.6214 18.7123C70.0682 18.7356 71.096 18.6983 71.1411 18.6571ZM15.0833 15.1029C15.0833 12.9702 15.055 11.5087 15.0138 11.5087C14.9756 11.5087 14.894 11.7215 14.8326 11.9816C14.7712 12.2417 14.5594 13.0675 14.3619 13.8166C14.1644 14.5657 13.9763 15.2978 13.9439 15.4435C13.9115 15.5891 13.7119 16.3202 13.5004 17.0682C13.2889 17.8161 13.1159 18.4886 13.1159 18.5626C13.1159 18.6847 13.2071 18.6972 14.0996 18.6972H15.0833V15.1029V15.1029ZM28.4923 16.1971C28.9359 16.0738 29.104 15.7683 29.1436 15.0127C29.2079 13.7883 28.886 13.4447 27.7183 13.4913L27.1524 13.5139L27.1316 14.7975C27.1201 15.5035 27.1276 16.1249 27.1481 16.1784C27.1943 16.2987 28.082 16.311 28.4923 16.1971V16.1971ZM27.054 6.72643C26.9876 6.66002 26.9632 6.05192 26.9632 4.46294V2.29026L25.8549 1.23515C25.1837 0.596173 24.7676 0.145926 24.8 0.0935484C24.8788 -0.0339782 34.9927 -0.0297531 35.1203 0.0978597C35.1881 0.165641 35.2111 1.00588 35.2111 3.41214C35.2111 5.81841 35.1881 6.65865 35.1203 6.72643C35.052 6.79473 34.0525 6.81723 31.0872 6.81723C28.1218 6.81723 27.1223 6.79473 27.054 6.72643V6.72643ZM38.026 6.72643C37.9582 6.65865 37.9352 5.81841 37.9352 3.41214C37.9352 1.00588 37.9582 0.165641 38.026 0.0978597C38.0943 0.0295302 39.1049 0.00705877 42.1094 0.00705877C45.9794 0.00705877 46.1045 0.0115539 46.1804 0.153422C46.2648 0.311173 46.2954 6.48234 46.2128 6.69754C46.1717 6.80461 45.7423 6.81723 42.1418 6.81723C39.1121 6.81723 38.0943 6.79478 38.026 6.72643V6.72643ZM49.0766 6.75436C49.0017 6.70683 48.9854 5.97871 49.0009 3.36935L49.0206 0.0448931L54.1618 0.0254425C57.7492 0.0118698 59.3271 0.0305497 59.3829 0.0872534C59.4394 0.144653 59.3851 0.236614 59.1981 0.40043C59.0524 0.527984 58.5501 1.00777 58.0819 1.46662L57.2307 2.30089V4.46826C57.2307 6.0531 57.2063 6.66003 57.1399 6.72643C57.0344 6.83188 49.2412 6.85887 49.0766 6.75436V6.75436Z" fill="black"/>
<rect x="2" y="42" width="82" height="9" rx="0.5" fill="#608938"/>
<g clip-path="url(#clip0)">
<path fill-rule="evenodd" clip-rule="evenodd" d="M50.2342 46.1741H51.8678C52.5946 46.1741 53.0847 46.6642 53.0847 47.3911V48.118C53.0847 48.8449 52.5946 49.3349 51.8678 49.3349H50.1199C49.3929 49.3349 48.9029 48.8449 48.9029 48.118V47.6198H49.5809V48.0853C49.5809 48.4938 49.834 48.7469 50.2342 48.7469H51.7534C52.1536 48.7469 52.4068 48.4938 52.4068 48.0853V47.4238C52.4068 47.0235 52.1536 46.7622 51.7534 46.7622H50.1199C49.3929 46.7622 48.9029 46.2722 48.9029 45.5452V44.8346C48.9029 44.0996 49.3929 43.6177 50.1199 43.6177H51.8678C52.5946 43.6177 53.0847 44.0996 53.0847 44.8346V45.3329H52.4068V44.8591C52.4068 44.459 52.1536 44.2058 51.7534 44.2058H50.2342C49.834 44.2058 49.5809 44.459 49.5809 44.8591V45.5207C49.5809 45.9209 49.834 46.1741 50.2342 46.1741ZM46.3634 49.3349H45.6855V44.2058H43.7171V43.6177H48.3318V44.2058H46.3634V49.3349ZM42.4677 43.6177H43.1457V49.3349H42.4677V43.6177ZM37.7394 44.851V49.3349H37.0615V43.6177H37.6986L40.6471 48.0935V43.6177H41.325V49.3349H40.688L37.7394 44.851ZM34.7018 49.3349H32.8722C32.1454 49.3349 31.6553 48.8449 31.6553 48.118V43.6177H32.3332V48.0853C32.3332 48.4856 32.5864 48.7469 32.9866 48.7469H34.5875C34.9876 48.7469 35.2408 48.4856 35.2408 48.0853V43.6177H35.9187V48.118C35.9187 48.8449 35.4287 49.3349 34.7018 49.3349Z" fill="white"/>
</g>
<defs>
<clipPath id="clip0">
<rect width="23.3333" height="7" fill="white" transform="translate(31 43)"/>
</clipPath>
</defs>
</svg>
