<svg width="135" height="38" viewBox="0 0 135 38" fill="none" xmlns="http://www.w3.org/2000/svg">
<path d="M20.2401 16.0688C19.1927 16.0688 18.3658 16.9693 18.3658 18.0902C18.3658 19.2111 19.2111 20.1115 20.2401 20.1115C21.2875 20.1115 22.1144 19.2111 22.1144 18.0902C22.1144 16.9693 21.2691 16.0688 20.2401 16.0688ZM13.533 16.0688C12.4856 16.0688 11.6587 16.9693 11.6587 18.0902C11.6587 19.2111 12.504 20.1115 13.533 20.1115C14.5804 20.1115 15.4073 19.2111 15.4073 18.0902C15.4257 16.9693 14.5804 16.0688 13.533 16.0688Z" fill="#7289DA"/>
<path d="M29.1711 0.780762H4.54776C2.47132 0.780762 0.780762 2.47132 0.780762 4.54776V29.1711C0.780762 31.2475 2.47132 32.9381 4.54776 32.9381H25.3857L24.4118 29.5753L26.7639 31.7436L28.9873 33.7833L32.9564 37.2196V4.54776C32.9381 2.47132 31.2475 0.780762 29.1711 0.780762ZM22.0781 24.5772C22.0781 24.5772 21.4166 23.787 20.8653 23.1071C23.2725 22.4272 24.1913 20.9388 24.1913 20.9388C23.4379 21.4349 22.7212 21.7841 22.0781 22.023C21.1593 22.4088 20.2773 22.6477 19.4136 22.8131C17.6496 23.1439 16.0325 23.052 14.6543 22.7947C13.6069 22.5926 12.7065 22.317 11.9531 22.0046C11.5305 21.8392 11.0711 21.6371 10.6117 21.3798C10.5566 21.3431 10.5015 21.3247 10.4463 21.2879C10.4096 21.2696 10.3912 21.2512 10.3728 21.2512C10.0421 21.0674 9.85831 20.9388 9.85831 20.9388C9.85831 20.9388 10.7403 22.3905 13.074 23.0887C12.5228 23.787 11.8429 24.5955 11.8429 24.5955C7.78186 24.4669 6.23831 21.8208 6.23831 21.8208C6.23831 15.959 8.8844 11.1997 8.8844 11.1997C11.5305 9.23354 14.0296 9.28866 14.0296 9.28866L14.2133 9.50917C10.9057 10.4463 9.39892 11.898 9.39892 11.898C9.39892 11.898 9.80318 11.6775 10.4831 11.3835C12.4493 10.5198 14.0112 10.2993 14.6543 10.2258C14.7646 10.2074 14.8565 10.1891 14.9667 10.1891C16.0876 10.0421 17.3555 10.0053 18.6786 10.1523C20.4243 10.3544 22.2986 10.869 24.2096 11.898C24.2096 11.898 22.758 10.5198 19.6341 9.58267L19.8914 9.28866C19.8914 9.28866 22.4088 9.23354 25.0365 11.1997C25.0365 11.1997 27.6826 15.959 27.6826 21.8208C27.6826 21.8024 26.1391 24.4485 22.0781 24.5772V24.5772ZM49.8252 8.64552H43.7245V15.4996L47.7855 19.1564V12.5044H49.9539C51.332 12.5044 52.0119 13.1659 52.0119 14.2317V19.3217C52.0119 20.3875 51.3688 21.1042 49.9539 21.1042H43.7062V24.9814H49.8069C53.0777 24.9998 56.1464 23.3644 56.1464 19.6157V14.1398C56.1648 10.3177 53.0961 8.64552 49.8252 8.64552V8.64552ZM81.7988 19.6157V13.9928C81.7988 11.9715 85.4371 11.5121 86.5397 13.5334L89.9024 12.1736C88.5794 9.27029 86.1722 8.42501 84.1692 8.42501C80.8984 8.42501 77.6642 10.3177 77.6642 13.9928V19.6157C77.6642 23.3276 80.8984 25.1836 84.0957 25.1836C86.1538 25.1836 88.6161 24.1729 89.9759 21.5268L86.3743 19.873C85.4923 22.1332 81.7988 21.5819 81.7988 19.6157V19.6157ZM70.6815 14.7646C69.4136 14.489 68.5683 14.0296 68.5132 13.2394C68.5867 11.3467 71.5084 11.2732 73.2174 13.0924L75.9186 11.016C74.228 8.9579 72.317 8.40663 70.3508 8.40663C67.3555 8.40663 64.4522 10.0972 64.4522 13.2945C64.4522 16.4 66.841 18.0722 69.4687 18.4765C70.8102 18.6602 72.2986 19.1931 72.2618 20.1119C72.1516 21.8576 68.55 21.7657 66.9145 19.7811L64.3052 22.2251C65.8304 24.1913 67.9068 25.1836 69.8546 25.1836C72.8498 25.1836 76.1758 23.4563 76.3045 20.2956C76.4882 16.3081 73.5849 15.2975 70.6815 14.7646V14.7646ZM58.3699 24.963H62.486V8.64552H58.3699V24.963ZM127.774 8.64552H121.674V15.4996L125.735 19.1564V12.5044H127.903C129.281 12.5044 129.961 13.1659 129.961 14.2317V19.3217C129.961 20.3875 129.318 21.1042 127.903 21.1042H121.655V24.9814H127.774C131.045 24.9998 134.114 23.3644 134.114 19.6157V14.1398C134.114 10.3177 131.045 8.64552 127.774 8.64552V8.64552ZM97.8406 8.42501C94.4595 8.42501 91.0968 10.2626 91.0968 14.0296V19.5974C91.0968 23.3276 94.4779 25.2019 97.8774 25.2019C101.259 25.2019 104.621 23.3276 104.621 19.5974V14.0296C104.621 10.2809 101.222 8.42501 97.8406 8.42501ZM100.487 19.5974C100.487 20.7734 99.1637 21.3798 97.859 21.3798C96.536 21.3798 95.2129 20.8102 95.2129 19.5974V14.0296C95.2129 12.8352 96.4992 12.192 97.7855 12.192C99.1269 12.192 100.487 12.7617 100.487 14.0296V19.5974V19.5974ZM119.395 14.0296C119.303 10.2074 116.694 8.66389 113.331 8.66389H106.808V24.9814H110.979V19.7995H111.714L115.5 24.9814H120.645L116.198 19.3769C118.164 18.7521 119.395 17.0432 119.395 14.0296ZM113.405 16.2346H110.979V12.5044H113.405C115.996 12.5044 115.996 16.2346 113.405 16.2346Z" fill="#7289DA"/>
</svg>
