<svg width="204" height="54" viewBox="0 0 204 54" fill="none" xmlns="http://www.w3.org/2000/svg">
<g clip-path="url(#clip0)">
<path d="M48.0406 47.9262C48.0406 51.2459 40.3512 53.9367 30.8673 53.9367C21.3817 53.9367 13.6924 51.2459 13.6924 47.9262C13.6924 44.6065 21.3814 41.915 30.8673 41.915C40.3512 41.915 48.0406 44.607 48.0406 47.9262Z" fill="#9CDAF1"/>
<path d="M26.1996 53.7122V49.4278C26.1996 48.8745 26.0996 48.4118 25.9324 48.021C27.0403 48.8815 27.1152 51.0436 27.1152 51.0436V53.7927C28.1121 53.8705 29.1417 53.9177 30.1956 53.9319L30.1678 51.1964C30.0152 47.4568 26.81 46.9991 26.81 46.9991C25.6386 46.7331 25.6561 47.321 25.7738 47.7007C24.6246 45.7409 21.5446 45.9941 21.5446 45.9941C20.4758 46.3751 21.4678 47.0623 21.4678 47.0623C23.1472 47.6726 23.2996 49.5044 23.2996 49.5044V53.3235C24.2244 53.482 25.1929 53.6129 26.2001 53.7116L26.1996 53.7122Z" fill="#7DBBE6"/>
<path d="M39.708 45.9936C39.708 45.9936 36.6275 45.7404 35.4785 47.7007C35.5962 47.3208 35.6141 46.7324 34.4425 46.9986C34.4425 46.9986 31.2374 47.4564 31.0848 51.1959L31.0566 53.9356C32.109 53.9316 33.1384 53.8946 34.1372 53.8272V51.0432C34.1372 51.0432 34.2124 48.8811 35.3201 48.0207C35.1529 48.4115 35.0528 48.874 35.0528 49.4274V53.7563C36.0575 53.6684 37.027 53.5496 37.9528 53.4026V49.5041C37.9528 49.5041 38.1054 47.6723 39.7846 47.0619C39.7846 47.0603 40.7757 46.3732 39.707 45.9916L39.708 45.9936Z" fill="#7DBBE6"/>
<path d="M61.1749 23.0104L61.2202 22.7859C56.182 21.7785 51.0118 21.7683 47.884 21.8983C48.3978 20.0469 48.5524 17.9167 48.5524 15.5411C48.5524 12.1341 47.2724 9.40859 45.1943 7.3346C45.5575 6.16244 46.0425 3.55929 44.71 0.226809C44.71 0.226809 42.359 -0.519652 37.0415 3.03934C34.9584 2.51874 32.7415 2.26167 30.5214 2.26167C28.0786 2.26167 25.6103 2.57274 23.3082 3.20425C17.8209 -0.539214 15.3985 0.227618 15.3985 0.227618C13.8173 4.18174 14.7949 7.10955 15.0919 7.83661C13.2335 9.84237 12.0988 12.4028 12.0988 15.542C12.0988 17.9118 12.3686 20.0379 13.0276 21.8857C9.87317 21.7709 4.89159 21.815 0.0332031 22.7865L0.0778259 23.0111C4.96547 22.0336 9.97842 21.9996 13.1137 22.1183C13.2588 22.5008 13.4207 22.8719 13.6021 23.2305C10.5016 23.3304 5.2075 23.7255 0.133928 25.1569L0.196497 25.3767C5.31017 23.9349 10.6502 23.5496 13.7206 23.4557C15.5731 26.9088 19.2254 29.139 25.7228 29.8393C24.8006 30.459 23.8598 31.5125 23.4786 33.295C22.2219 33.8961 18.2437 35.3633 15.8568 31.2581C15.8568 31.2581 14.5207 28.8153 11.9633 28.624C11.9633 28.624 9.48256 28.586 11.7921 30.17C11.7921 30.17 13.452 30.9522 14.5974 33.8916C14.5974 33.8916 16.0914 38.9052 23.3012 37.2967V42.4755C23.3012 42.4755 23.1488 44.3073 21.4694 44.9176C21.4694 44.9176 20.4772 45.6046 21.5462 45.9857C21.5462 45.9857 26.2012 46.3674 26.2012 42.552V36.9048C26.2012 36.9048 26.0166 34.6652 27.1168 33.8868V43.1623C27.1168 43.1623 27.0408 45.3753 25.896 46.2149C25.896 46.2149 25.1324 47.5882 26.8115 47.2071C26.8115 47.2071 30.0166 46.7493 30.1694 43.0098L30.242 33.6229H31.0124L31.0856 43.0098C31.2381 46.7493 34.4433 47.2071 34.4433 47.2071C36.122 47.5882 35.3589 46.2149 35.3589 46.2149C34.2142 45.3753 34.1381 43.1623 34.1381 43.1623V33.9668C35.2376 34.823 35.0537 36.9046 35.0537 36.9046V42.5518C35.0537 46.3674 39.7088 45.9855 39.7088 45.9855C40.7768 45.6044 39.7854 44.9175 39.7854 44.9175C38.1063 44.3071 37.9537 42.4753 37.9537 42.4753V35.0728C37.9537 32.1862 36.7382 30.6576 35.5495 29.8507C42.4788 29.1635 45.804 26.9261 47.3362 23.4497C50.3714 23.5331 55.8335 23.9029 61.0582 25.3767L61.1203 25.1569C55.9255 23.6916 50.4994 23.3125 47.4336 23.2232C47.5788 22.872 47.7055 22.5068 47.818 22.1311C50.9303 22.0017 56.125 22.0034 61.1822 23.0138L61.1749 23.0104Z" fill="black"/>
<path d="M41.7755 15.3808C43.268 16.7329 44.141 18.3657 44.141 20.1249C44.141 28.3387 38.018 28.5613 30.4656 28.5613C22.9119 28.5613 16.7896 27.4239 16.7896 20.1249C16.7896 18.3773 17.6503 16.7547 19.1243 15.4081C21.5831 13.1639 25.7443 14.3522 30.4655 14.3522C35.1654 14.3516 39.3124 13.1511 41.7747 15.38L41.7755 15.3808Z" fill="#F4CBB2"/>
<path d="M25.9166 20.5425C25.9166 22.805 24.6426 24.6388 23.0711 24.6388C21.4996 24.6388 20.2256 22.805 20.2256 20.5425C20.2256 18.2804 21.4996 16.4473 23.0711 16.4473C24.6426 16.4489 25.9166 18.2807 25.9166 20.5425V20.5425Z" fill="white"/>
<path d="M41.1676 20.5425C41.1676 22.805 39.8936 24.6388 38.3221 24.6388C36.7506 24.6388 35.4766 22.805 35.4766 20.5425C35.4766 18.2804 36.7506 16.4473 38.3221 16.4473C39.8936 16.4489 41.1676 18.2807 41.1676 20.5425V20.5425Z" fill="white"/>
<path d="M25.005 20.5946C25.005 22.1027 24.1546 23.3249 23.1079 23.3249C22.0612 23.3249 21.2109 22.1027 21.2109 20.5946C21.2109 19.086 22.0605 17.8633 23.1079 17.8633C24.1539 17.8633 25.0044 19.0856 25.0044 20.594L25.005 20.5946Z" fill="#AD5C51"/>
<path d="M40.2706 20.5946C40.2706 22.1027 39.4202 23.3249 38.3735 23.3249C37.3268 23.3249 36.4766 22.1027 36.4766 20.5946C36.4766 19.086 37.3262 17.8633 38.3735 17.8633C39.4196 17.8633 40.27 19.0856 40.27 20.594L40.2706 20.5946Z" fill="#AD5C51"/>
<path d="M30.5089 24.1802C30.3202 24.1802 30.1392 24.2551 30.0058 24.3886C29.8723 24.522 29.7974 24.703 29.7974 24.8917C29.7974 25.0804 29.8723 25.2614 30.0058 25.3949C30.1392 25.5283 30.3202 25.6033 30.5089 25.6033C30.6976 25.6033 30.8786 25.5283 31.012 25.3949C31.1455 25.2614 31.2204 25.0804 31.2204 24.8917C31.2204 24.703 31.1455 24.522 31.012 24.3886C30.8786 24.2551 30.6976 24.1802 30.5089 24.1802" fill="#AD5C51"/>
<path d="M28.848 25.9798C28.806 25.8605 28.8687 25.73 28.9872 25.688C29.1064 25.6459 29.2372 25.7087 29.2791 25.8272C29.4624 26.3442 29.9528 26.6915 30.4999 26.6915C31.047 26.6915 31.5374 26.3444 31.7207 25.8272C31.7627 25.7079 31.8932 25.6459 32.0125 25.688C32.1319 25.73 32.1938 25.8605 32.1519 25.9798C31.9047 26.6789 31.2402 27.1486 30.4999 27.1486C29.7596 27.1486 29.0965 26.6813 28.8492 25.9812L28.848 25.9798Z" fill="#AD5C51"/>
<path d="M13.0698 29.2345C13.0698 29.4243 12.8474 29.5776 12.5735 29.5776C12.2998 29.5776 12.0771 29.4243 12.0771 29.2345C12.0771 29.0445 12.2998 28.8906 12.5735 28.8906C12.8474 28.8906 13.0698 29.0442 13.0698 29.235V29.2345Z" fill="#C3E4D8"/>
<path d="M14.4278 29.9972C14.4278 30.187 14.2053 30.3403 13.9314 30.3403C13.6577 30.3403 13.4351 30.187 13.4351 29.9972C13.4351 29.8072 13.6577 29.6533 13.9314 29.6533C14.2053 29.6533 14.4278 29.8069 14.4278 29.9977V29.9972Z" fill="#C3E4D8"/>
<path d="M15.2681 30.9899C15.2681 31.1797 15.0456 31.333 14.7717 31.333C14.498 31.333 14.2754 31.1797 14.2754 30.9899C14.2754 30.7999 14.498 30.646 14.7717 30.646C15.0456 30.646 15.2681 30.7996 15.2681 30.9904V30.9899Z" fill="#C3E4D8"/>
<path d="M16.0308 32.1349C16.0308 32.3247 15.8083 32.478 15.5344 32.478C15.2607 32.478 15.0381 32.3247 15.0381 32.1349C15.0381 31.9449 15.2607 31.791 15.5344 31.791C15.8083 31.791 16.0308 31.9446 16.0308 32.1354V32.1349Z" fill="#C3E4D8"/>
<path d="M16.8692 33.2033C16.8692 33.3931 16.6467 33.5463 16.3728 33.5463C16.0991 33.5463 15.8765 33.3931 15.8765 33.2033C15.8765 33.0133 16.0991 32.8594 16.3728 32.8594C16.6467 32.8594 16.8692 33.013 16.8692 33.2038V33.2033Z" fill="#C3E4D8"/>
<path d="M18.0161 34.1188C18.0161 34.3086 17.7937 34.4619 17.5198 34.4619C17.2461 34.4619 17.0234 34.3086 17.0234 34.1188C17.0234 33.9288 17.2461 33.7749 17.5198 33.7749C17.7937 33.7749 18.0161 33.9285 18.0161 34.1193V34.1188Z" fill="#C3E4D8"/>
<path d="M19.6177 34.7296C19.6177 34.9195 19.3952 35.0727 19.1214 35.0727C18.8476 35.0727 18.625 34.9195 18.625 34.7296C18.625 34.5397 18.8476 34.3857 19.1214 34.3857C19.3952 34.3857 19.6177 34.5393 19.6177 34.7301V34.7296Z" fill="#C3E4D8"/>
<path d="M21.2144 34.7296C21.2144 34.9195 20.9919 35.0727 20.718 35.0727C20.4443 35.0727 20.2217 34.9195 20.2217 34.7296C20.2217 34.5397 20.4443 34.3857 20.718 34.3857C20.9919 34.3857 21.2144 34.5393 21.2144 34.7301V34.7296Z" fill="#C3E4D8"/>
<path d="M22.8325 34.4645C22.8325 34.6543 22.6101 34.8076 22.3362 34.8076C22.0625 34.8076 21.8398 34.6543 21.8398 34.4645C21.8398 34.2745 22.0625 34.1206 22.3362 34.1206C22.6101 34.1206 22.8325 34.2742 22.8325 34.465V34.4645Z" fill="#C3E4D8"/>
<path d="M11.248 30.2529L10.7523 31.9801C10.7523 31.9801 10.623 32.6044 11.2115 32.7151C11.8258 32.7031 11.7751 32.1287 11.7325 31.9421L11.248 30.2529Z" fill="#9CDAF1"/>
</g>
<path fill-rule="evenodd" clip-rule="evenodd" d="M124.59 39.0903H124.53C124.557 39.0903 124.575 39.1173 124.602 39.1233C124.605 39.1233 124.617 39.1203 124.62 39.1203L124.59 39.0903ZM124.602 39.1233C124.323 39.1263 123.621 39.2703 122.88 39.2703C120.54 39.2703 119.73 38.1902 119.73 36.7802V27.3902H124.5C124.77 27.3902 124.98 27.1502 124.98 26.8202V21.7202C124.98 21.4502 124.74 21.2102 124.5 21.2102H119.73V14.8802C119.73 14.6402 119.58 14.4902 119.31 14.4902H112.83C112.56 14.4902 112.41 14.6402 112.41 14.8802V21.3902C112.41 21.3902 109.14 22.2002 108.93 22.2302C108.69 22.2902 108.54 22.5002 108.54 22.7402V26.8202C108.54 27.1502 108.78 27.3902 109.05 27.3902H112.38V37.2302C112.38 44.5503 117.48 45.3003 120.96 45.3003C122.55 45.3003 124.47 44.7903 124.77 44.6403C124.95 44.5803 125.04 44.3703 125.04 44.1603V39.6603C125.04 39.3633 124.836 39.1653 124.602 39.1233ZM195.69 32.5202C195.69 27.0902 193.5 26.3702 191.19 26.6102C189.39 26.7302 187.95 27.6302 187.95 27.6302V38.1902C187.95 38.1902 189.42 39.2103 191.61 39.2703C194.7 39.3603 195.69 38.2502 195.69 32.5202ZM202.98 32.0402C202.98 42.3303 199.65 45.2703 193.83 45.2703C188.91 45.2703 186.27 42.7803 186.27 42.7803C186.27 42.7803 186.15 44.1603 186 44.3403C185.91 44.5203 185.76 44.5803 185.58 44.5803H181.14C180.84 44.5803 180.57 44.3403 180.57 44.0703L180.63 10.7402C180.63 10.4702 180.87 10.2302 181.14 10.2302H187.53C187.8 10.2302 188.04 10.4702 188.04 10.7402V22.0502C188.04 22.0502 190.5 20.4602 194.1 20.4602L194.07 20.4002C197.67 20.4002 202.98 21.7502 202.98 32.0402ZM176.82 21.2102H176.79H170.52C170.19 21.2102 170.01 21.4502 170.01 21.7802V38.1002C170.01 38.1002 168.36 39.2703 166.11 39.2703C163.86 39.2703 163.2 38.2502 163.2 36.0002V21.7502C163.2 21.4802 162.96 21.2402 162.69 21.2402H156.27C156 21.2402 155.76 21.4802 155.76 21.7502V37.0802C155.76 43.6803 159.45 45.3303 164.52 45.3303C168.69 45.3303 172.08 43.0203 172.08 43.0203C172.08 43.0203 172.23 44.1903 172.32 44.3703C172.38 44.5203 172.59 44.6403 172.8 44.6403H176.82C177.15 44.6403 177.33 44.4003 177.33 44.1303L177.39 21.7202C177.39 21.4502 177.15 21.2102 176.82 21.2102ZM105.72 21.1802H99.33C99.06 21.1802 98.82 21.4502 98.82 21.7802V43.8003C98.82 44.4003 99.21 44.6103 99.72 44.6103H105.48C106.08 44.6103 106.23 44.3403 106.23 43.8003V21.7202V21.6902C106.23 21.4202 105.99 21.1802 105.72 21.1802ZM102.57 11.0402C100.26 11.0402 98.43 12.8702 98.43 15.1802C98.43 17.4902 100.26 19.3202 102.57 19.3202C104.82 19.3202 106.65 17.4902 106.65 15.1802C106.65 12.8702 104.82 11.0402 102.57 11.0402ZM152.04 10.2902H145.71C145.44 10.2902 145.2 10.5302 145.2 10.8002V23.0702H135.27V10.8002C135.27 10.5302 135.03 10.2902 134.76 10.2902H128.37C128.1 10.2902 127.86 10.5302 127.86 10.8002V44.1303C127.86 44.4003 128.13 44.6403 128.37 44.6403H134.76C135.03 44.6403 135.27 44.4003 135.27 44.1303V29.8802H145.2L145.14 44.1303C145.14 44.4003 145.38 44.6403 145.65 44.6403H152.04C152.31 44.6403 152.55 44.4003 152.55 44.1303V10.8002C152.55 10.5302 152.31 10.2902 152.04 10.2902ZM95.43 25.0502V42.2703C95.43 42.3903 95.4 42.6003 95.25 42.6603C95.25 42.6603 91.5 45.3303 85.32 45.3303C77.85 45.3303 69 42.9903 69 27.5702C69 12.1502 76.74 8.97021 84.3 9.00021C90.84 9.00021 93.48 10.4702 93.9 10.7402C94.02 10.8902 94.08 11.0102 94.08 11.1602L92.82 16.5002C92.82 16.7702 92.55 17.1002 92.22 17.0102C91.14 16.6802 89.52 16.0202 85.71 16.0202C81.3 16.0202 76.56 17.2802 76.56 27.2102C76.56 37.1402 81.06 38.3102 84.3 38.3102C87.06 38.3102 88.05 37.9802 88.05 37.9802V31.0802H83.64C83.31 31.0802 83.07 30.8402 83.07 30.5702V25.0502C83.07 24.7802 83.31 24.5402 83.64 24.5402H94.86C95.19 24.5402 95.43 24.7802 95.43 25.0502Z" fill="#1B1F23"/>
<defs>
<clipPath id="clip0">
<rect width="61.2754" height="54" fill="white"/>
</clipPath>
</defs>
</svg>
