<svg width="173" height="60" viewBox="0 0 173 60" fill="none" xmlns="http://www.w3.org/2000/svg">
<g clip-path="url(#clip0)">
<path d="M42.7026 46.601C42.7026 49.5519 35.8677 51.9437 27.4375 51.9437C19.0059 51.9437 12.1709 49.5519 12.1709 46.601C12.1709 43.6502 19.0056 41.2578 27.4375 41.2578C35.8677 41.2578 42.7026 43.6506 42.7026 46.601Z" fill="#9CDAF1"/>
<path d="M23.2885 51.7441V47.9357C23.2885 47.4439 23.1995 47.0326 23.0509 46.6852C24.0358 47.4501 24.1023 49.3719 24.1023 49.3719V51.8156C24.9884 51.8848 25.9036 51.9267 26.8405 51.9394L26.8157 49.5078C26.6801 46.1837 23.831 45.7768 23.831 45.7768C22.7898 45.5404 22.8053 46.063 22.9099 46.4005C21.8884 44.6585 19.1507 44.8835 19.1507 44.8835C18.2006 45.2222 19.0824 45.833 19.0824 45.833C20.5752 46.3755 20.7107 48.0038 20.7107 48.0038V51.3986C21.5327 51.5394 22.3936 51.6558 23.2889 51.7435L23.2885 51.7441Z" fill="#7DBBE6"/>
<path d="M35.296 44.883C35.296 44.883 32.5579 44.658 31.5365 46.4005C31.6411 46.0628 31.6571 45.5398 30.6156 45.7763C30.6156 45.7763 27.7666 46.1833 27.631 49.5073L27.606 51.9426C28.5414 51.939 29.4564 51.9061 30.3443 51.8462V49.3716C30.3443 49.3716 30.4111 47.4497 31.3957 46.6849C31.2471 47.0322 31.1581 47.4434 31.1581 47.9353V51.7833C32.0511 51.7051 32.913 51.5994 33.7359 51.4688V48.0035C33.7359 48.0035 33.8715 46.3752 35.3641 45.8327C35.3641 45.8312 36.2451 45.2205 35.2952 44.8813L35.296 44.883Z" fill="#7DBBE6"/>
<path d="M54.378 24.4536L54.4182 24.254C49.9399 23.3585 45.3441 23.3495 42.5638 23.465C43.0205 21.8194 43.1579 19.9258 43.1579 17.8142C43.1579 14.7858 42.0202 12.3631 40.173 10.5195C40.4958 9.47762 40.9269 7.1637 39.7425 4.2015C39.7425 4.2015 37.6527 3.53798 32.926 6.70152C31.0744 6.23877 29.1038 6.01027 27.1304 6.01027C24.959 6.01027 22.765 6.28677 20.7186 6.84811C15.841 3.52059 13.6878 4.20222 13.6878 4.20222C12.2823 7.717 13.1513 10.3195 13.4153 10.9658C11.7633 12.7487 10.7548 15.0246 10.7548 17.815C10.7548 19.9215 10.9946 21.8113 11.5804 23.4538C8.77642 23.3518 4.34835 23.391 0.0297852 24.2546L0.0694498 24.4542C4.41402 23.5853 8.86998 23.5551 11.6569 23.6606C11.7859 24.0006 11.9298 24.3305 12.091 24.6492C9.33503 24.738 4.62916 25.0893 0.119318 26.3615L0.174935 26.557C4.72042 25.2754 9.4671 24.9329 12.1963 24.8494C13.843 27.9188 17.0895 29.9012 22.865 30.5237C22.0453 31.0746 21.209 32.011 20.8701 33.5955C19.753 34.1298 16.2168 35.434 14.0952 31.7848C14.0952 31.7848 12.9076 29.6135 10.6343 29.4435C10.6343 29.4435 8.42921 29.4097 10.4821 30.8176C10.4821 30.8176 11.9576 31.5129 12.9757 34.1258C12.9757 34.1258 14.3037 38.5823 20.7125 37.1525V41.7559C20.7125 41.7559 20.5769 43.3842 19.0842 43.9267C19.0842 43.9267 18.2022 44.5373 19.1525 44.876C19.1525 44.876 23.2902 45.2153 23.2902 41.8239V36.8041C23.2902 36.8041 23.1261 34.8134 24.1041 34.1214V42.3664C24.1041 42.3664 24.0365 44.3335 23.0189 45.0798C23.0189 45.0798 22.3402 46.3005 23.8328 45.9618C23.8328 45.9618 26.6817 45.5548 26.8175 42.2309L26.882 33.8869H27.5668L27.6319 42.2309C27.7675 45.5548 30.6166 45.9618 30.6166 45.9618C32.1087 46.3005 31.4304 45.0798 31.4304 45.0798C30.4129 44.3335 30.3452 42.3664 30.3452 42.3664V34.1926C31.3226 34.9537 31.1591 36.804 31.1591 36.804V41.8237C31.1591 45.2153 35.297 44.8759 35.297 44.8759C36.2464 44.5372 35.3651 43.9265 35.3651 43.9265C33.8725 43.384 33.7368 41.7557 33.7368 41.7557V35.1757C33.7368 32.6099 32.6564 31.2511 31.5998 30.5338C37.7592 29.923 40.715 27.9342 42.0769 24.8441C44.7748 24.9182 49.63 25.2469 54.2742 26.557L54.3294 26.3615C49.7118 25.0591 44.8887 24.7221 42.1634 24.6427C42.2925 24.3306 42.4052 24.006 42.5052 23.672C45.2717 23.557 49.8891 23.5584 54.3845 24.4566L54.378 24.4536Z" fill="black"/>
<path d="M37.1336 17.672C38.4602 18.8739 39.2363 20.3252 39.2363 21.8889C39.2363 29.1901 33.7936 29.388 27.0803 29.388C20.3659 29.388 14.9238 28.377 14.9238 21.8889C14.9238 20.3355 15.689 18.8933 16.9992 17.6963C19.1848 15.7014 22.8836 16.7577 27.0802 16.7577C31.2579 16.7571 34.9441 15.69 37.1329 17.6713L37.1336 17.672Z" fill="#F4CBB2"/>
<path d="M23.0367 22.2599C23.0367 24.271 21.9043 25.901 20.5074 25.901C19.1105 25.901 17.978 24.271 17.978 22.2599C17.978 20.249 19.1105 18.6196 20.5074 18.6196C21.9043 18.6211 23.0367 20.2493 23.0367 22.2599V22.2599Z" fill="white"/>
<path d="M36.5933 22.2599C36.5933 24.271 35.4609 25.901 34.064 25.901C32.6671 25.901 31.5347 24.271 31.5347 22.2599C31.5347 20.249 32.6671 18.6196 34.064 18.6196C35.4609 18.6211 36.5933 20.2493 36.5933 22.2599V22.2599Z" fill="white"/>
<path d="M22.2265 22.3063C22.2265 23.6468 21.4706 24.7332 20.5402 24.7332C19.6098 24.7332 18.854 23.6468 18.854 22.3063C18.854 20.9653 19.6092 19.8784 20.5402 19.8784C21.47 19.8784 22.2259 20.9649 22.2259 22.3057L22.2265 22.3063Z" fill="#AD5C51"/>
<path d="M35.7963 22.3063C35.7963 23.6468 35.0404 24.7332 34.11 24.7332C33.1796 24.7332 32.4238 23.6468 32.4238 22.3063C32.4238 20.9653 33.179 19.8784 34.11 19.8784C35.0398 19.8784 35.7958 20.9649 35.7958 22.3057L35.7963 22.3063Z" fill="#AD5C51"/>
<path d="M27.1188 25.4937C26.9511 25.4937 26.7902 25.5603 26.6716 25.6789C26.553 25.7975 26.4863 25.9584 26.4863 26.1261C26.4863 26.2939 26.553 26.4548 26.6716 26.5734C26.7902 26.692 26.9511 26.7586 27.1188 26.7586C27.2865 26.7586 27.4474 26.692 27.566 26.5734C27.6846 26.4548 27.7513 26.2939 27.7513 26.1261C27.7513 25.9584 27.6847 25.7975 27.566 25.6789C27.4474 25.5603 27.2866 25.4937 27.1188 25.4937" fill="#AD5C51"/>
<path d="M25.6425 27.0929C25.6051 26.9868 25.6609 26.8708 25.7662 26.8335C25.8721 26.7961 25.9884 26.8519 26.0256 26.9572C26.1886 27.4168 26.6245 27.7255 27.1108 27.7255C27.5971 27.7255 28.033 27.417 28.196 26.9572C28.2333 26.8512 28.3493 26.7961 28.4554 26.8335C28.5614 26.8708 28.6165 26.9868 28.5792 27.0929C28.3595 27.7143 27.7689 28.1318 27.1108 28.1318C26.4527 28.1318 25.8634 27.7165 25.6435 27.0942L25.6425 27.0929Z" fill="#AD5C51"/>
<path d="M11.6177 29.9864C11.6177 30.1551 11.42 30.2913 11.1765 30.2913C10.9332 30.2913 10.7354 30.1551 10.7354 29.9864C10.7354 29.8175 10.9332 29.6807 11.1765 29.6807C11.42 29.6807 11.6177 29.8172 11.6177 29.9868V29.9864Z" fill="#C3E4D8"/>
<path d="M12.8248 30.6641C12.8248 30.8328 12.627 30.9691 12.3836 30.9691C12.1403 30.9691 11.9424 30.8328 11.9424 30.6641C11.9424 30.4952 12.1403 30.3584 12.3836 30.3584C12.627 30.3584 12.8248 30.4949 12.8248 30.6645V30.6641Z" fill="#C3E4D8"/>
<path d="M13.5714 31.5464C13.5714 31.7151 13.3736 31.8514 13.1302 31.8514C12.8869 31.8514 12.689 31.7151 12.689 31.5464C12.689 31.3775 12.8869 31.2407 13.1302 31.2407C13.3736 31.2407 13.5714 31.3772 13.5714 31.5468V31.5464Z" fill="#C3E4D8"/>
<path d="M14.2496 32.5645C14.2496 32.7332 14.0518 32.8694 13.8084 32.8694C13.5651 32.8694 13.3672 32.7332 13.3672 32.5645C13.3672 32.3956 13.5651 32.2588 13.8084 32.2588C14.0518 32.2588 14.2496 32.3953 14.2496 32.5649V32.5645Z" fill="#C3E4D8"/>
<path d="M14.9952 33.5142C14.9952 33.6829 14.7974 33.8191 14.554 33.8191C14.3107 33.8191 14.1128 33.6829 14.1128 33.5142C14.1128 33.3453 14.3107 33.2085 14.554 33.2085C14.7974 33.2085 14.9952 33.345 14.9952 33.5146V33.5142Z" fill="#C3E4D8"/>
<path d="M16.0142 34.3276C16.0142 34.4964 15.8165 34.6326 15.573 34.6326C15.3297 34.6326 15.1318 34.4964 15.1318 34.3276C15.1318 34.1588 15.3297 34.022 15.573 34.022C15.8165 34.022 16.0142 34.1585 16.0142 34.3281V34.3276Z" fill="#C3E4D8"/>
<path d="M17.4381 34.8706C17.4381 35.0394 17.2403 35.1756 16.9969 35.1756C16.7536 35.1756 16.5557 35.0394 16.5557 34.8706C16.5557 34.7018 16.7536 34.5649 16.9969 34.5649C17.2403 34.5649 17.4381 34.7015 17.4381 34.8711V34.8706Z" fill="#C3E4D8"/>
<path d="M18.857 34.8706C18.857 35.0394 18.6592 35.1756 18.4158 35.1756C18.1725 35.1756 17.9746 35.0394 17.9746 34.8706C17.9746 34.7018 18.1725 34.5649 18.4158 34.5649C18.6592 34.5649 18.857 34.7015 18.857 34.8711V34.8706Z" fill="#C3E4D8"/>
<path d="M20.2955 34.6353C20.2955 34.804 20.0977 34.9402 19.8543 34.9402C19.611 34.9402 19.4131 34.804 19.4131 34.6353C19.4131 34.4664 19.611 34.3296 19.8543 34.3296C20.0977 34.3296 20.2955 34.4661 20.2955 34.6357V34.6353Z" fill="#C3E4D8"/>
<path d="M9.99822 30.8911L9.55759 32.4264C9.55759 32.4264 9.44262 32.9813 9.96574 33.0797C10.5118 33.0691 10.4667 32.5585 10.4289 32.3926L9.99822 30.8911Z" fill="#9CDAF1"/>
</g>
<g clip-path="url(#clip1)">
<path fill-rule="evenodd" clip-rule="evenodd" d="M102.511 38.7334H102.466C102.486 38.7334 102.5 38.7534 102.52 38.7579C102.522 38.7579 102.531 38.7557 102.533 38.7557L102.511 38.7334ZM102.52 38.7579C102.313 38.7601 101.793 38.8668 101.244 38.8668C99.5108 38.8668 98.9108 38.0667 98.9108 37.0223V30.0667H102.444C102.644 30.0667 102.8 29.8889 102.8 29.6445V25.8667C102.8 25.6667 102.622 25.4889 102.444 25.4889H98.9108V20.8C98.9108 20.6223 98.7997 20.5112 98.5997 20.5112H93.7997C93.5997 20.5112 93.4886 20.6223 93.4886 20.8V25.6223C93.4886 25.6223 91.0663 26.2223 90.9108 26.2445C90.733 26.2889 90.6219 26.4445 90.6219 26.6223V29.6445C90.6219 29.8889 90.7997 30.0667 90.9997 30.0667H93.4663V37.3556C93.4663 42.7779 97.2441 43.3334 99.8219 43.3334C101 43.3334 102.422 42.9557 102.644 42.8445C102.777 42.8001 102.844 42.6445 102.844 42.489V39.1557C102.844 38.9357 102.693 38.789 102.52 38.7579ZM155.177 33.8667C155.177 29.8445 153.555 29.3112 151.844 29.4889C150.511 29.5778 149.444 30.2445 149.444 30.2445V38.0667C149.444 38.0667 150.533 38.8223 152.155 38.8668C154.444 38.9334 155.177 38.1111 155.177 33.8667ZM160.577 33.5112C160.577 41.1334 158.111 43.3112 153.8 43.3112C150.155 43.3112 148.2 41.4668 148.2 41.4668C148.2 41.4668 148.111 42.489 148 42.6223C147.933 42.7557 147.822 42.8001 147.689 42.8001H144.4C144.177 42.8001 143.977 42.6223 143.977 42.4223L144.022 17.7334C144.022 17.5334 144.2 17.3556 144.4 17.3556H149.133C149.333 17.3556 149.511 17.5334 149.511 17.7334V26.1112C149.511 26.1112 151.333 24.9334 154 24.9334L153.977 24.8889C156.644 24.8889 160.577 25.8889 160.577 33.5112ZM141.2 25.4889H141.177H136.533C136.289 25.4889 136.155 25.6667 136.155 25.9112V38C136.155 38 134.933 38.8668 133.266 38.8668C131.6 38.8668 131.111 38.1111 131.111 36.4445V25.8889C131.111 25.6889 130.933 25.5112 130.733 25.5112H125.977C125.777 25.5112 125.6 25.6889 125.6 25.8889V37.2445C125.6 42.1334 128.333 43.3557 132.089 43.3557C135.177 43.3557 137.689 41.6445 137.689 41.6445C137.689 41.6445 137.8 42.5112 137.866 42.6445C137.911 42.7557 138.066 42.8445 138.222 42.8445H141.2C141.444 42.8445 141.577 42.6668 141.577 42.4668L141.622 25.8667C141.622 25.6667 141.444 25.4889 141.2 25.4889ZM88.533 25.4667H83.7997C83.5997 25.4667 83.4219 25.6667 83.4219 25.9112V42.2223C83.4219 42.6668 83.7108 42.8223 84.0886 42.8223H88.3552C88.7997 42.8223 88.9108 42.6223 88.9108 42.2223V25.8667V25.8445C88.9108 25.6445 88.733 25.4667 88.533 25.4667ZM86.1997 17.9556C84.4886 17.9556 83.133 19.3112 83.133 21.0223C83.133 22.7334 84.4886 24.0889 86.1997 24.0889C87.8663 24.0889 89.2219 22.7334 89.2219 21.0223C89.2219 19.3112 87.8663 17.9556 86.1997 17.9556ZM122.844 17.4H118.155C117.955 17.4 117.777 17.5778 117.777 17.7778V26.8667H110.422V17.7778C110.422 17.5778 110.244 17.4 110.044 17.4H105.311C105.111 17.4 104.933 17.5778 104.933 17.7778V42.4668C104.933 42.6668 105.133 42.8445 105.311 42.8445H110.044C110.244 42.8445 110.422 42.6668 110.422 42.4668V31.9112H117.777L117.733 42.4668C117.733 42.6668 117.911 42.8445 118.111 42.8445H122.844C123.044 42.8445 123.222 42.6668 123.222 42.4668V17.7778C123.222 17.5778 123.044 17.4 122.844 17.4ZM80.9108 28.3334V41.089C80.9108 41.1779 80.8886 41.3334 80.7774 41.3779C80.7774 41.3779 77.9997 43.3557 73.4219 43.3557C67.8886 43.3557 61.333 41.6223 61.333 30.2C61.333 18.7778 67.0663 16.4223 72.6663 16.4445C77.5108 16.4445 79.4663 17.5334 79.7774 17.7334C79.8663 17.8445 79.9108 17.9334 79.9108 18.0445L78.9774 22C78.9774 22.2 78.7774 22.4445 78.533 22.3778C77.733 22.1334 76.533 21.6445 73.7108 21.6445C70.4441 21.6445 66.933 22.5778 66.933 29.9334C66.933 37.2889 70.2663 38.1556 72.6663 38.1556C74.7108 38.1556 75.4441 37.9112 75.4441 37.9112V32.8H72.1775C71.933 32.8 71.7552 32.6223 71.7552 32.4223V28.3334C71.7552 28.1334 71.933 27.9556 72.1775 27.9556H80.4886C80.733 27.9556 80.9108 28.1334 80.9108 28.3334Z" fill="#1B1F23"/>
</g>
<defs>
<clipPath id="clip0">
<rect width="54.4671" height="48" fill="white" transform="translate(0 4)"/>
</clipPath>
<clipPath id="clip1">
<rect width="100" height="35.5556" fill="white" transform="translate(61.333 12)"/>
</clipPath>
</defs>
</svg>
