<svg width="199" height="45" viewBox="0 0 199 45" fill="none" xmlns="http://www.w3.org/2000/svg">
<g clip-path="url(#clip0)">
<path d="M0.944965 28.9719C3.72473 38.2442 12.3236 45 22.5005 45C34.9267 45 45.0005 34.9262 45.0005 22.5C45.0005 10.0736 34.9267 0 22.5005 0C10.5763 0 0.819429 9.27599 0.0488281 21.0051C1.50488 23.4502 2.07306 24.9624 0.945178 28.9719H0.944965Z" fill="black"/>
<path d="M21.3411 16.8647C21.3411 16.9026 21.3411 16.9404 21.343 16.976L15.8372 24.974C14.9453 24.9334 14.0503 25.0899 13.2017 25.4395C12.8276 25.592 12.477 25.7794 12.1481 25.9957L0.0581856 21.0186C0.0582803 21.0186 -0.221568 25.621 0.94428 29.051L9.49119 32.5776C9.92033 34.4955 11.236 36.1776 13.1769 36.9869C16.3526 38.3137 20.0142 36.8015 21.3353 33.6244C21.679 32.794 21.8393 31.9229 21.8162 31.0538L29.6941 25.424C29.7578 25.4259 29.8235 25.4279 29.8872 25.4279C34.6016 25.4279 38.4333 21.5845 38.4333 16.8647C38.4333 12.1446 34.6016 8.30469 29.8872 8.30469C25.1748 8.30469 21.3411 12.1446 21.3411 16.8647ZM20.02 33.0721C18.9976 35.5268 16.1767 36.6914 13.7247 35.6697C12.5935 35.1985 11.7395 34.3352 11.2468 33.3058L14.0288 34.4588C15.8372 35.212 17.9118 34.3545 18.6635 32.5467C19.4175 30.7371 18.5621 28.659 16.7547 27.9058L13.8788 26.7141C14.9885 26.2931 16.2501 26.2776 17.4288 26.7682C18.6171 27.2626 19.5391 28.1935 20.0278 29.3832C20.5164 30.5729 20.5145 31.8862 20.02 33.0721V33.0721ZM29.8872 22.5695C26.7488 22.5695 24.1936 20.0105 24.1936 16.8647C24.1936 13.7215 26.7488 11.1617 29.8872 11.1617C33.0275 11.1617 35.5827 13.7215 35.5827 16.8647C35.5827 20.0105 33.0275 22.5695 29.8872 22.5695ZM25.6209 16.856C25.6209 14.4896 27.5368 12.5702 29.8969 12.5702C32.2589 12.5702 34.1748 14.4896 34.1748 16.856C34.1748 19.2227 32.2589 21.1403 29.8969 21.1403C27.5368 21.1403 25.6209 19.2227 25.6209 16.856V16.856Z" fill="white"/>
</g>
<path d="M198.393 16.5476H196.905V12.8274L195.417 15.2827H194.673L193.929 12.8274V16.5476H192.44V10.2232H193.929L195.417 13.6458L196.905 10.2232H198.393V16.5476ZM191.696 11.3393H190.208V16.5476H188.72V11.3393H187.232V10.2232H191.696V11.3393ZM183.512 34.7768H179.048V20.4911L173.839 29.7917H170.863L166.399 20.4911V34.7768H161.19V10.2232H166.399L172.351 23.4673L179.048 10.2232H183.512V34.7768ZM154.494 34.7768H149.286L147.798 30.4613H139.613L138.125 34.7768H132.917L141.845 10.2232H145.565L154.494 34.7768ZM147.054 26.369L144.077 17.4405L141.101 26.369H147.054ZM125.476 34.7768H109.107V10.2232H125.476V14.4643H114.315V20.2679H123.988V24.5089H114.315V30.5357H125.476V34.7768ZM101.667 14.4643H95.7143V34.7768H90.506V14.4643H83.8095V10.2232H101.667V14.4643ZM77.8571 27.5595C77.8571 32.619 73.3929 34.9256 68.9286 35C64.4643 35 61.4881 33.9583 60 31.7262L62.9762 28.6756C64.4643 30.0149 65.9524 30.7589 68.9286 30.7589C71.9048 30.7589 73.3929 29.7173 73.3929 27.7083C73.3929 25.8482 71.9048 25.0298 70.4167 24.7321L67.4405 24.3601C62.9762 23.7649 60.744 21.4583 60.744 17.4405C60.744 15.2083 61.4881 13.4226 62.9762 12.0089C64.4643 10.6696 66.6964 10 68.9286 10C72.6488 10 74.881 10.9673 77.1131 12.8274L74.1369 15.878C72.6488 14.7619 71.1607 14.1667 68.9286 14.1667C66.6964 14.3155 65.2083 15.1339 65.2083 17.2917C65.2083 19.003 66.6964 19.8214 68.1845 19.9702L71.1607 20.4167C74.881 20.8631 77.8571 23.3929 77.8571 27.5595Z" fill="black"/>
<defs>
<clipPath id="clip0">
<rect width="45" height="45" fill="white"/>
</clipPath>
</defs>
</svg>
