<svg width="189" height="48" viewBox="0 0 189 48" fill="none" xmlns="http://www.w3.org/2000/svg">
<path d="M18.5433 48C40.8189 48 53.0079 29.5276 53.0079 13.5354C53.0079 13.0157 53.0079 12.4961 52.9842 11.9764C55.3464 10.2756 57.4016 8.12598 59.0315 5.69291C56.8583 6.66142 54.5197 7.29921 52.063 7.6063C54.5669 6.11811 56.4803 3.73228 57.4016 0.897637C55.063 2.29134 52.4646 3.28346 49.7008 3.82677C47.4803 1.46457 44.3386 0 40.8661 0C34.1811 0 28.748 5.43307 28.748 12.1181C28.748 13.063 28.8661 13.9842 29.0551 14.8819C18.9921 14.3858 10.063 9.54331 4.08661 2.22047C3.04724 4.01575 2.45669 6.09449 2.45669 8.31496C2.45669 12.5197 4.6063 16.2283 7.84252 18.4016C5.85827 18.3307 3.99213 17.7874 2.3622 16.8898C2.3622 16.937 2.3622 16.9843 2.3622 17.0551C2.3622 22.9134 6.54331 27.8268 12.0709 28.937C11.0551 29.2205 9.99212 29.3622 8.88189 29.3622C8.10236 29.3622 7.34646 29.2913 6.61417 29.1496C8.14961 33.9685 12.6378 37.4646 17.9291 37.5591C13.7717 40.8189 8.55118 42.7559 2.88189 42.7559C1.91339 42.7559 0.944882 42.7087 0 42.5906C5.33858 45.9921 11.7165 48 18.5433 48Z" fill="#1DA1F2"/>
<path fill-rule="evenodd" clip-rule="evenodd" d="M186.518 24.4539C183.637 24.4539 182.128 26.4432 182.128 28.6721V37.4857H176.298V19.6871H181.957V22.808H182.026C182.883 20.5448 184.872 19.3442 187.375 19.3442C187.821 19.3442 188.301 19.3785 188.747 19.4813V24.7973C187.993 24.5911 187.307 24.4539 186.518 24.4539ZM160.114 30.0099C160.217 32.4445 161.623 34.0566 164.092 34.0566C165.498 34.0566 166.87 33.4046 167.418 32.1016H172.872C171.808 36.2169 168.002 38 164.024 38C158.228 38 154.284 34.5024 154.284 28.5349C154.284 23.0823 158.64 19.1727 163.887 19.1727C170.265 19.1727 173.454 23.9739 173.18 30.0099H160.114ZM163.887 23.1166C161.829 23.1166 160.457 24.5911 160.114 26.7519H167.35C167.247 24.763 165.841 23.1166 163.887 23.1166ZM143.106 31.3815V23.4595H140.157V19.6871H143.106V14.303H148.936V19.6871H152.537V23.4595H148.936V31.5529C148.936 32.9588 149.759 33.2675 151.028 33.2675C151.508 33.2675 152.023 33.1989 152.537 33.1989V37.4857C151.474 37.5199 150.41 37.6571 149.347 37.6571C144.375 37.6571 143.106 36.2169 143.106 31.3815ZM129.767 31.3815V23.4595H126.818V19.6871H129.767V14.303H135.597V19.6871H139.198V23.4595H135.597V31.5529C135.597 32.9588 136.421 33.2675 137.689 33.2675C138.169 33.2675 138.684 33.1989 139.198 33.1989V37.4857C138.135 37.5199 137.072 37.6571 136.009 37.6571C131.036 37.6571 129.767 36.2169 129.767 31.3815ZM118.521 19.6871H124.35V37.4857H118.521V19.6871ZM118.521 13H124.35V17.4582H118.521V13ZM104.909 37.4857L102.097 25.6546H102.029L99.2505 37.4857H93.3521L87.7966 19.6871H93.695L96.6788 31.2101H96.7473L99.2848 19.6871H104.84L107.447 31.1758H107.515L110.431 19.6871H116.363L110.808 37.4857H104.909ZM83.6832 37.4857H77.3043V18.4869H70V13H90.9876V18.4869H83.6832V37.4857Z" fill="#1A1010"/>
</svg>
