<svg width="162" height="60" viewBox="0 0 162 60" fill="none" xmlns="http://www.w3.org/2000/svg">
<path d="M20.6801 49C38.315 49 47.9646 34.376 47.9646 21.7155C47.9646 21.3041 47.9646 20.8927 47.9459 20.4813C49.8159 19.1348 51.4429 17.4331 52.7333 15.5069C51.0128 16.2736 49.1614 16.7785 47.2165 17.0217C49.1988 15.8435 50.7136 13.9547 51.4429 11.7106C49.5915 12.814 47.5344 13.5994 45.3465 14.0295C43.5886 12.1594 41.1014 11 38.3524 11C33.06 11 28.7589 15.3012 28.7589 20.5935C28.7589 21.3415 28.8524 22.0709 29.002 22.7815C21.0354 22.3888 13.9665 18.5551 9.23524 12.7579C8.4124 14.1791 7.94488 15.8248 7.94488 17.5827C7.94488 20.9114 9.64665 23.8474 12.2087 25.5679C10.6378 25.5118 9.16043 25.0817 7.87008 24.3711C7.87008 24.4085 7.87008 24.4459 7.87008 24.502C7.87008 29.1398 11.1801 33.0295 15.5561 33.9085C14.752 34.1329 13.9104 34.2451 13.0315 34.2451C12.4144 34.2451 11.8159 34.189 11.2362 34.0768C12.4518 37.8917 16.0049 40.6594 20.1939 40.7342C16.9026 43.315 12.7697 44.8484 8.2815 44.8484C7.51476 44.8484 6.74803 44.811 6 44.7175C10.2264 47.4104 15.2756 49 20.6801 49Z" fill="#1DA1F2"/>
<path fill-rule="evenodd" clip-rule="evenodd" d="M153.66 30.3597C151.38 30.3597 150.185 31.9346 150.185 33.6991V40.6765H145.57V26.5859H150.05V29.0566H150.104C150.783 27.265 152.357 26.3145 154.339 26.3145C154.692 26.3145 155.072 26.3416 155.425 26.423V30.6315C154.828 30.4683 154.285 30.3597 153.66 30.3597ZM132.757 34.7582C132.839 36.6856 133.952 37.9618 135.907 37.9618C137.02 37.9618 138.106 37.4456 138.54 36.4141H142.857C142.015 39.672 139.002 41.0837 135.852 41.0837C131.264 41.0837 128.142 38.3147 128.142 33.5905C128.142 29.2738 131.59 26.1787 135.744 26.1787C140.793 26.1787 143.318 29.9796 143.101 34.7582H132.757ZM135.744 29.301C134.115 29.301 133.029 30.4683 132.757 32.1789H138.486C138.404 30.6044 137.291 29.301 135.744 29.301ZM119.293 35.844V29.5724H116.958V26.5859H119.293V22.3236H123.908V26.5859H126.759V29.5724H123.908V35.9797C123.908 37.0927 124.56 37.3371 125.564 37.3371C125.944 37.3371 126.352 37.2828 126.759 37.2828V40.6765C125.917 40.7036 125.075 40.8122 124.234 40.8122C120.297 40.8122 119.293 39.6721 119.293 35.844ZM108.733 35.844V29.5724H106.398V26.5859H108.733V22.3236H113.348V26.5859H116.199V29.5724H113.348V35.9797C113.348 37.0927 114 37.3371 115.004 37.3371C115.384 37.3371 115.792 37.2828 116.199 37.2828V40.6765C115.357 40.7036 114.516 40.8122 113.674 40.8122C109.737 40.8122 108.733 39.6721 108.733 35.844ZM99.8291 26.5859H104.444V40.6765H99.8291V26.5859ZM99.8291 21.292H104.444V24.8214H99.8291V21.292ZM89.0532 40.6765L86.8272 31.3102H86.7729L84.5737 40.6765H79.9041L75.506 26.5859H80.1756L82.5377 35.7083H82.592L84.6008 26.5859H88.9989L91.0624 35.6812H91.1167L93.4245 26.5859H98.1212L93.7231 40.6765H89.0532ZM72.2496 40.6765H67.1996V25.6358H61.417V21.292H78.0321V25.6358H72.2496V40.6765Z" fill="#1A1010"/>
</svg>
