<svg width="162" height="60" viewBox="0 0 162 60" fill="none" xmlns="http://www.w3.org/2000/svg">
<g clip-path="url(#clip0)">
<path d="M52.56 18.32C52 16.24 50.36 14.6 48.28 14.04C44.48 13 29.28 13 29.28 13C29.28 13 14.08 13 10.28 14C8.24 14.56 6.56 16.24 6 18.32C5 22.12 5 30 5 30C5 30 5 37.92 6 41.68C6.56 43.76 8.2 45.4 10.28 45.96C14.12 47 29.28 47 29.28 47C29.28 47 44.48 47 48.28 46C50.36 45.44 52 43.8 52.56 41.72C53.56 37.92 53.56 30.04 53.56 30.04C53.56 30.04 53.6 22.12 52.56 18.32Z" fill="#FF0000"/>
<path d="M24.4399 37.2802L37.0799 30.0002L24.4399 22.7202V37.2802Z" fill="white"/>
<path d="M75.5199 43.9604C74.5599 43.3204 73.8799 42.3204 73.4799 40.9204C73.0799 39.5604 72.8799 37.7204 72.8799 35.4804V32.4004C72.8799 30.1204 73.1199 28.2804 73.5599 26.8804C74.0399 25.4804 74.7599 24.4804 75.7199 23.8404C76.7199 23.2004 77.9999 22.8804 79.5999 22.8804C81.1599 22.8804 82.4399 23.2004 83.3999 23.8404C84.3599 24.4804 85.0399 25.5204 85.4799 26.8804C85.9199 28.2404 86.1599 30.0804 86.1599 32.4004V35.4804C86.1599 37.7604 85.9599 39.5604 85.5199 40.9604C85.0799 42.3204 84.3999 43.3604 83.4399 44.0004C82.4799 44.6404 81.1599 44.9604 79.5199 44.9604C77.8399 44.9204 76.4799 44.6004 75.5199 43.9604ZM80.9199 40.6004C81.1999 39.9204 81.3199 38.7604 81.3199 37.2004V30.5604C81.3199 29.0404 81.1999 27.9204 80.9199 27.2004C80.6399 26.4804 80.1999 26.1604 79.5199 26.1604C78.8799 26.1604 78.3999 26.5204 78.1599 27.2004C77.8799 27.9204 77.7599 29.0404 77.7599 30.5604V37.2004C77.7599 38.7604 77.8799 39.9204 78.1599 40.6004C78.3999 41.2804 78.8799 41.6404 79.5599 41.6404C80.1999 41.6404 80.6399 41.3204 80.9199 40.6004Z" fill="#282828"/>
<path d="M149.36 35.5203V36.6003C149.36 37.9603 149.4 39.0003 149.48 39.6803C149.56 40.3603 149.72 40.8803 150 41.1603C150.24 41.4803 150.64 41.6403 151.2 41.6403C151.92 41.6403 152.4 41.3603 152.68 40.8003C152.96 40.2403 153.08 39.3203 153.12 38.0003L157.24 38.2403C157.28 38.4403 157.28 38.6803 157.28 39.0003C157.28 40.9603 156.76 42.4403 155.68 43.4003C154.6 44.3603 153.08 44.8403 151.12 44.8403C148.76 44.8403 147.12 44.0803 146.16 42.6003C145.2 41.1203 144.72 38.8403 144.72 35.7203V32.0003C144.72 28.8003 145.2 26.4803 146.2 25.0003C147.2 23.5203 148.88 22.8003 151.24 22.8003C152.88 22.8003 154.16 23.1203 155.04 23.7203C155.92 24.3203 156.52 25.2803 156.88 26.5203C157.24 27.8003 157.4 29.5603 157.4 31.8003V35.4403H149.36V35.5203ZM149.96 26.5603C149.72 26.8803 149.56 27.3603 149.48 28.0403C149.4 28.7203 149.36 29.7603 149.36 31.1603V32.6803H152.88V31.1603C152.88 29.8003 152.84 28.7603 152.76 28.0403C152.68 27.3203 152.48 26.8403 152.24 26.5603C152 26.2803 151.6 26.1203 151.12 26.1203C150.56 26.0803 150.2 26.2403 149.96 26.5603Z" fill="#282828"/>
<path d="M63.8399 35.1204L58.3999 15.4004H63.1599L65.0799 24.3204C65.5599 26.5204 65.9199 28.4004 66.1599 29.9604H66.2799C66.4399 28.8404 66.7999 27.0004 67.3599 24.3604L69.3599 15.4004H74.1199L68.5999 35.1204V44.5604H63.8799V35.1204H63.8399Z" fill="#282828"/>
<path d="M101.64 23.2803V44.6003H97.8797L97.4797 42.0003H97.3596C96.3596 43.9603 94.7996 44.9603 92.7596 44.9603C91.3596 44.9603 90.3196 44.4803 89.6396 43.5603C88.9596 42.6403 88.6396 41.2003 88.6396 39.2003V23.2803H93.4397V38.9203C93.4397 39.8803 93.5596 40.5603 93.7596 40.9603C93.9596 41.3603 94.3196 41.5603 94.7996 41.5603C95.1997 41.5603 95.5997 41.4403 95.9997 41.1603C96.3997 40.9203 96.6797 40.6003 96.8397 40.2003V23.2803H101.64Z" fill="#282828"/>
<path d="M126.24 23.2803V44.6003H122.48L122.08 42.0003H121.96C120.96 43.9603 119.4 44.9603 117.36 44.9603C115.96 44.9603 114.92 44.4803 114.24 43.5603C113.56 42.6403 113.24 41.2003 113.24 39.2003V23.2803H118.04V38.9203C118.04 39.8803 118.16 40.5603 118.36 40.9603C118.56 41.3603 118.92 41.5603 119.4 41.5603C119.8 41.5603 120.2 41.4403 120.6 41.1603C121 40.9203 121.28 40.6003 121.44 40.2003V23.2803H126.24Z" fill="#282828"/>
<path d="M114.68 19.2804H109.92V44.5604H105.24V19.2804H100.48V15.4004H114.68V19.2804V19.2804Z" fill="#282828"/>
<path d="M142.12 26.6803C141.84 25.3203 141.36 24.3603 140.72 23.7603C140.08 23.1603 139.16 22.8403 138.04 22.8403C137.16 22.8403 136.32 23.0803 135.56 23.6003C134.8 24.0803 134.2 24.7603 133.8 25.5603H133.76V14.3203H129.12V44.5603H133.08L133.56 42.5603H133.68C134.04 43.2803 134.6 43.8403 135.36 44.2803C136.12 44.6803 136.92 44.9203 137.84 44.9203C139.48 44.9203 140.64 44.1603 141.4 42.6803C142.16 41.2003 142.56 38.8403 142.56 35.6803V32.3203C142.52 29.8803 142.4 28.0003 142.12 26.6803ZM137.72 35.3603C137.72 36.9203 137.64 38.1203 137.52 39.0003C137.4 39.8803 137.16 40.5203 136.88 40.8803C136.56 41.2403 136.16 41.4403 135.68 41.4403C135.28 41.4403 134.92 41.3603 134.6 41.1603C134.28 40.9603 134 40.6803 133.8 40.3203V28.2403C133.96 27.6803 134.24 27.2003 134.64 26.8003C135.04 26.4403 135.48 26.2403 135.92 26.2403C136.4 26.2403 136.8 26.4403 137.04 26.8003C137.32 27.2003 137.48 27.8403 137.6 28.7203C137.72 29.6403 137.76 30.9203 137.76 32.5603V35.3603H137.72Z" fill="#282828"/>
</g>
<defs>
<clipPath id="clip0">
<rect width="152.36" height="34" fill="white" transform="translate(5 13)"/>
</clipPath>
</defs>
</svg>
