<svg width="153" height="34" viewBox="0 0 153 34" fill="none" xmlns="http://www.w3.org/2000/svg">
<g clip-path="url(#clip0)">
<path d="M47.56 5.32C47 3.24 45.36 1.6 43.28 1.04C39.48 0 24.28 0 24.28 0C24.28 0 9.08 0 5.28 1C3.24 1.56 1.56 3.24 1 5.32C0 9.12 0 17 0 17C0 17 0 24.92 1 28.68C1.56 30.76 3.2 32.4 5.28 32.96C9.12 34 24.28 34 24.28 34C24.28 34 39.48 34 43.28 33C45.36 32.44 47 30.8 47.56 28.72C48.56 24.92 48.56 17.04 48.56 17.04C48.56 17.04 48.6 9.12 47.56 5.32Z" fill="#FF0000"/>
<path d="M19.4399 24.2802L32.0799 17.0002L19.4399 9.72021V24.2802Z" fill="white"/>
<path d="M70.5199 30.9604C69.5599 30.3204 68.8799 29.3204 68.4799 27.9204C68.0799 26.5604 67.8799 24.7204 67.8799 22.4804V19.4004C67.8799 17.1204 68.1199 15.2804 68.5599 13.8804C69.0399 12.4804 69.7599 11.4804 70.7199 10.8404C71.7199 10.2004 72.9999 9.88037 74.5999 9.88037C76.1599 9.88037 77.4399 10.2004 78.3999 10.8404C79.3599 11.4804 80.0399 12.5204 80.4799 13.8804C80.9199 15.2404 81.1599 17.0804 81.1599 19.4004V22.4804C81.1599 24.7604 80.9599 26.5604 80.5199 27.9604C80.0799 29.3204 79.3999 30.3604 78.4399 31.0004C77.4799 31.6404 76.1599 31.9604 74.5199 31.9604C72.8399 31.9204 71.4799 31.6004 70.5199 30.9604ZM75.9199 27.6004C76.1999 26.9204 76.3199 25.7604 76.3199 24.2004V17.5604C76.3199 16.0404 76.1999 14.9204 75.9199 14.2004C75.6399 13.4804 75.1999 13.1604 74.5199 13.1604C73.8799 13.1604 73.3999 13.5204 73.1599 14.2004C72.8799 14.9204 72.7599 16.0404 72.7599 17.5604V24.2004C72.7599 25.7604 72.8799 26.9204 73.1599 27.6004C73.3999 28.2804 73.8799 28.6404 74.5599 28.6404C75.1999 28.6404 75.6399 28.3204 75.9199 27.6004Z" fill="#282828"/>
<path d="M144.36 22.5203V23.6003C144.36 24.9603 144.4 26.0003 144.48 26.6803C144.56 27.3603 144.72 27.8803 145 28.1603C145.24 28.4803 145.64 28.6403 146.2 28.6403C146.92 28.6403 147.4 28.3603 147.68 27.8003C147.96 27.2403 148.08 26.3203 148.12 25.0003L152.24 25.2403C152.28 25.4403 152.28 25.6803 152.28 26.0003C152.28 27.9603 151.76 29.4403 150.68 30.4003C149.6 31.3603 148.08 31.8403 146.12 31.8403C143.76 31.8403 142.12 31.0803 141.16 29.6003C140.2 28.1203 139.72 25.8403 139.72 22.7203V19.0003C139.72 15.8003 140.2 13.4803 141.2 12.0003C142.2 10.5203 143.88 9.80029 146.24 9.80029C147.88 9.80029 149.16 10.1203 150.04 10.7203C150.92 11.3203 151.52 12.2803 151.88 13.5203C152.24 14.8003 152.4 16.5603 152.4 18.8003V22.4403H144.36V22.5203ZM144.96 13.5603C144.72 13.8803 144.56 14.3603 144.48 15.0403C144.4 15.7203 144.36 16.7603 144.36 18.1603V19.6803H147.88V18.1603C147.88 16.8003 147.84 15.7603 147.76 15.0403C147.68 14.3203 147.48 13.8403 147.24 13.5603C147 13.2803 146.6 13.1203 146.12 13.1203C145.56 13.0803 145.2 13.2403 144.96 13.5603Z" fill="#282828"/>
<path d="M58.8399 22.1204L53.3999 2.40039H58.1599L60.0799 11.3204C60.5599 13.5204 60.9199 15.4004 61.1599 16.9604H61.2799C61.4399 15.8404 61.7999 14.0004 62.3599 11.3604L64.3599 2.40039H69.1199L63.5999 22.1204V31.5604H58.8799V22.1204H58.8399Z" fill="#282828"/>
<path d="M96.6397 10.2803V31.6003H92.8797L92.4797 29.0003H92.3596C91.3596 30.9603 89.7996 31.9603 87.7596 31.9603C86.3596 31.9603 85.3196 31.4803 84.6396 30.5603C83.9596 29.6403 83.6396 28.2003 83.6396 26.2003V10.2803H88.4397V25.9203C88.4397 26.8803 88.5596 27.5603 88.7596 27.9603C88.9596 28.3603 89.3196 28.5603 89.7996 28.5603C90.1997 28.5603 90.5997 28.4403 90.9997 28.1603C91.3997 27.9203 91.6797 27.6003 91.8397 27.2003V10.2803H96.6397Z" fill="#282828"/>
<path d="M121.24 10.2803V31.6003H117.48L117.08 29.0003H116.96C115.96 30.9603 114.4 31.9603 112.36 31.9603C110.96 31.9603 109.92 31.4803 109.24 30.5603C108.56 29.6403 108.24 28.2003 108.24 26.2003V10.2803H113.04V25.9203C113.04 26.8803 113.16 27.5603 113.36 27.9603C113.56 28.3603 113.92 28.5603 114.4 28.5603C114.8 28.5603 115.2 28.4403 115.6 28.1603C116 27.9203 116.28 27.6003 116.44 27.2003V10.2803H121.24Z" fill="#282828"/>
<path d="M109.68 6.28039H104.92V31.5604H100.24V6.28039H95.48V2.40039H109.68V6.28039V6.28039Z" fill="#282828"/>
<path d="M137.12 13.6803C136.84 12.3203 136.36 11.3603 135.72 10.7603C135.08 10.1603 134.16 9.84031 133.04 9.84031C132.16 9.84031 131.32 10.0803 130.56 10.6003C129.8 11.0803 129.2 11.7603 128.8 12.5603H128.76V1.32031H124.12V31.5603H128.08L128.56 29.5603H128.68C129.04 30.2803 129.6 30.8403 130.36 31.2803C131.12 31.6803 131.92 31.9203 132.84 31.9203C134.48 31.9203 135.64 31.1603 136.4 29.6803C137.16 28.2003 137.56 25.8403 137.56 22.6803V19.3203C137.52 16.8803 137.4 15.0003 137.12 13.6803ZM132.72 22.3603C132.72 23.9203 132.64 25.1203 132.52 26.0003C132.4 26.8803 132.16 27.5203 131.88 27.8803C131.56 28.2403 131.16 28.4403 130.68 28.4403C130.28 28.4403 129.92 28.3603 129.6 28.1603C129.28 27.9603 129 27.6803 128.8 27.3203V15.2403C128.96 14.6803 129.24 14.2003 129.64 13.8003C130.04 13.4403 130.48 13.2403 130.92 13.2403C131.4 13.2403 131.8 13.4403 132.04 13.8003C132.32 14.2003 132.48 14.8403 132.6 15.7203C132.72 16.6403 132.76 17.9203 132.76 19.5603V22.3603H132.72Z" fill="#282828"/>
</g>
<defs>
<clipPath id="clip0">
<rect width="152.36" height="34" fill="white"/>
</clipPath>
</defs>
</svg>
