<?xml version="1.0" standalone="no"?>
<!DOCTYPE svg PUBLIC "-//W3C//DTD SVG 20010904//EN"
 "http://www.w3.org/TR/2001/REC-SVG-20010904/DTD/svg10.dtd">
<svg version="1.0" xmlns="http://www.w3.org/2000/svg"
 width="16.000000pt" height="16.000000pt" viewBox="0 0 16.000000 16.000000"
 preserveAspectRatio="xMidYMid meet">
<metadata>
Created by potrace 1.11, written by Peter Selinger 2001-2013
</metadata>
    <g fill="#000000" stroke="none">
    <path d="M 3.97,15.53
        C 3.97,15.53 3.22,14.78 3.22,14.78
            3.22,14.78 2.94,14.53 2.94,14.53
            2.94,14.53 1.75,13.34 1.75,13.34
            1.40,13.00 1.03,12.65 0.78,12.22
            0.57,11.86 0.35,11.37 0.38,10.94
            0.39,10.76 0.42,10.56 0.53,10.41
            0.61,10.29 0.78,10.14 0.79,10.00
            0.79,10.00 0.67,9.41 0.67,9.41
            0.67,9.41 0.53,8.25 0.53,8.25
            0.53,8.25 0.53,7.69 0.53,7.69
            0.53,7.41 0.57,7.38 0.60,7.16
            0.60,7.16 0.60,6.91 0.60,6.91
            0.71,6.18 0.93,5.45 1.24,4.78
            2.32,2.46 4.53,0.84 7.06,0.47
            7.06,0.47 7.34,0.47 7.34,0.47
            7.34,0.47 7.84,0.41 7.84,0.41
            9.14,0.39 10.45,0.66 11.59,1.28
            12.29,1.65 13.02,2.17 13.56,2.75
            14.62,3.88 15.29,5.23 15.54,6.75
            15.54,6.75 15.59,6.97 15.59,6.97
            15.59,6.97 15.59,7.25 15.59,7.25
            15.59,7.25 15.66,7.75 15.66,7.75
            15.66,7.75 15.66,8.13 15.66,8.13
            15.66,8.13 15.59,8.72 15.59,8.72
            15.59,8.72 15.59,8.97 15.59,8.97
            15.59,8.97 15.54,9.19 15.54,9.19
            15.45,9.73 15.32,10.23 15.12,10.75
            14.12,13.24 11.97,14.96 9.34,15.42
            9.34,15.42 8.41,15.53 8.41,15.53
            8.41,15.53 7.84,15.53 7.84,15.53
            7.57,15.53 7.54,15.50 7.31,15.47
            7.31,15.47 7.06,15.47 7.06,15.47
            7.06,15.47 6.84,15.42 6.84,15.42
            6.08,15.28 5.20,15.04 4.53,14.63
            4.53,14.63 4.50,15.19 4.50,15.19
            4.50,15.45 4.51,15.68 4.44,15.94
            4.25,15.85 4.11,15.68 3.97,15.53 Z"/>
    </g>
</svg>
