<svg width="162" height="60" viewBox="0 0 162 60" fill="none" xmlns="http://www.w3.org/2000/svg">
<path d="M24.4973 28.4604C23.2326 28.4604 22.2341 29.5477 22.2341 30.9012C22.2341 32.2547 23.2548 33.3419 24.4973 33.3419C25.7621 33.3419 26.7606 32.2547 26.7606 30.9012C26.7606 29.5477 25.7399 28.4604 24.4973 28.4604ZM16.3985 28.4604C15.1337 28.4604 14.1353 29.5477 14.1353 30.9012C14.1353 32.2547 15.1559 33.3419 16.3985 33.3419C17.6632 33.3419 18.6617 32.2547 18.6617 30.9012C18.6839 29.5477 17.6632 28.4604 16.3985 28.4604Z" fill="#7289DA"/>
<path d="M35.2814 10H5.54866C3.04135 10 1 12.0414 1 14.5487V44.2814C1 46.7887 3.04135 48.8301 5.54866 48.8301H30.7105L29.5345 44.7695L32.3747 47.3878L35.0595 49.8507L39.8522 54V14.5487C39.8301 12.0414 37.7887 10 35.2814 10ZM26.7166 38.7342C26.7166 38.7342 25.9178 37.7801 25.2521 36.9592C28.1588 36.1382 29.2683 34.3409 29.2683 34.3409C28.3585 34.94 27.4932 35.3616 26.7166 35.65C25.6072 36.116 24.5421 36.4044 23.4992 36.6041C21.3691 37.0035 19.4165 36.8926 17.7524 36.5819C16.4876 36.3379 15.4004 36.005 14.4907 35.6278C13.9803 35.4281 13.4256 35.1841 12.8709 34.8734C12.8043 34.829 12.7378 34.8069 12.6712 34.7625C12.6268 34.7403 12.6046 34.7181 12.5824 34.7181C12.1831 34.4962 11.9612 34.3409 11.9612 34.3409C11.9612 34.3409 13.0262 36.0938 15.8442 36.937C15.1785 37.7801 14.3575 38.7564 14.3575 38.7564C9.45386 38.6011 7.59001 35.4059 7.59001 35.4059C7.59001 28.3278 10.7852 22.5809 10.7852 22.5809C13.9803 20.2068 16.998 20.2733 16.998 20.2733L17.2199 20.5396C13.2259 21.6712 11.4065 23.4241 11.4065 23.4241C11.4065 23.4241 11.8946 23.1578 12.7156 22.8028C15.0898 21.76 16.9758 21.4937 17.7524 21.4049C17.8855 21.3828 17.9965 21.3606 18.1296 21.3606C19.4831 21.1831 21.0141 21.1387 22.6117 21.3162C24.7196 21.5603 26.9829 22.1815 29.2905 23.4241C29.2905 23.4241 27.5376 21.76 23.7655 20.6283L24.0761 20.2733C24.0761 20.2733 27.116 20.2068 30.289 22.5809C30.289 22.5809 33.4841 28.3278 33.4841 35.4059C33.4841 35.3838 31.6203 38.5789 26.7166 38.7342V38.7342ZM60.2214 19.4967H52.8548V27.7731L57.7584 32.1886V24.1563H60.3767C62.0408 24.1563 62.8618 24.9551 62.8618 26.2421V32.3883C62.8618 33.6752 62.0852 34.5406 60.3767 34.5406H52.8326V39.2224H60.1992C64.1488 39.2446 67.8543 37.2698 67.8543 32.7433V26.1311C67.8765 21.5159 64.1709 19.4967 60.2214 19.4967V19.4967ZM98.8295 32.7433V25.9536C98.8295 23.5129 103.223 22.9581 104.554 25.3989L108.615 23.7569C107.017 20.2511 104.11 19.2305 101.692 19.2305C97.7423 19.2305 93.8371 21.5159 93.8371 25.9536V32.7433C93.8371 37.2254 97.7423 39.4665 101.603 39.4665C104.088 39.4665 107.062 38.2461 108.703 35.0509L104.355 33.054C103.289 35.7832 98.8295 35.1175 98.8295 32.7433V32.7433ZM85.4054 26.8855C83.8744 26.5527 82.8538 25.998 82.7872 25.0439C82.8759 22.7584 86.4039 22.6697 88.4675 24.8664L91.7292 22.3591C89.6878 19.8739 87.3802 19.2083 85.006 19.2083C81.3893 19.2083 77.8835 21.2496 77.8835 25.1104C77.8835 28.8603 80.768 30.8795 83.941 31.3676C85.5608 31.5895 87.358 32.233 87.3137 33.3424C87.1805 35.4503 82.8316 35.3394 80.8568 32.943L77.706 35.8941C79.5477 38.2683 82.055 39.4665 84.407 39.4665C88.0237 39.4665 92.0398 37.3807 92.1952 33.5643C92.417 28.7494 88.9112 27.529 85.4054 26.8855V26.8855ZM70.5391 39.2002H75.5093V19.4967H70.5391V39.2002ZM154.345 19.4967H146.979V27.7731L151.882 32.1886V24.1563H154.501C156.165 24.1563 156.986 24.9551 156.986 26.2421V32.3883C156.986 33.6752 156.209 34.5406 154.501 34.5406H146.957V39.2224H154.345C158.295 39.2446 162 37.2698 162 32.7433V26.1311C162 21.5159 158.295 19.4967 154.345 19.4967V19.4967ZM118.2 19.2305C114.117 19.2305 110.057 21.4493 110.057 25.998V32.7211C110.057 37.2254 114.14 39.4887 118.245 39.4887C122.327 39.4887 126.388 37.2254 126.388 32.7211V25.998C126.388 21.4715 122.283 19.2305 118.2 19.2305ZM121.395 32.7211C121.395 34.1412 119.798 34.8734 118.222 34.8734C116.625 34.8734 115.027 34.1856 115.027 32.7211V25.998C115.027 24.5557 116.58 23.7791 118.134 23.7791C119.753 23.7791 121.395 24.467 121.395 25.998V32.7211V32.7211ZM144.227 25.998C144.116 21.3828 140.966 19.5189 136.905 19.5189H129.028V39.2224H134.065V32.9652H134.953L139.523 39.2224H145.736L140.367 32.4549C142.741 31.7005 144.227 29.6369 144.227 25.998ZM136.994 28.6606H134.065V24.1563H136.994C140.123 24.1563 140.123 28.6606 136.994 28.6606Z" fill="#7289DA"/>
</svg>
