<svg width="200" height="52" viewBox="0 0 200 52" fill="none" xmlns="http://www.w3.org/2000/svg">
<g clip-path="url(#clip0_1_9)">
<path d="M26.0632 4.10324C16.7824 4.10324 14.0681 4.11282 13.5405 4.15658C11.636 4.3149 10.4508 4.61478 9.15966 5.25762C8.16463 5.75171 7.37988 6.32445 6.6054 7.12732C5.19492 8.59149 4.34008 10.3928 4.03063 12.534C3.88017 13.5735 3.83641 13.7855 3.82752 19.0951C3.8241 20.8649 3.82752 23.1942 3.82752 26.3184C3.82752 35.5917 3.83777 38.3033 3.88223 38.8299C4.0361 40.6832 4.32674 41.8492 4.94223 43.1246C6.11848 45.566 8.365 47.3988 11.0116 48.0826C11.928 48.3186 12.9401 48.4485 14.2395 48.5101C14.79 48.534 20.4011 48.5511 26.0157 48.5511C31.6303 48.5511 37.2449 48.5443 37.7817 48.5169C39.2862 48.4461 40.1599 48.3288 41.1258 48.0792C43.7895 47.3919 45.995 45.5865 47.1952 43.1109C47.7987 41.8663 48.1047 40.6558 48.2432 38.8993C48.2733 38.5163 48.286 32.4104 48.286 26.3126C48.286 20.2139 48.2723 14.1192 48.2422 13.7362C48.102 11.9513 47.796 10.7512 47.173 9.48257C46.6618 8.44411 46.0942 7.6686 45.2701 6.87565C43.7994 5.47098 42.0009 4.61614 39.8576 4.30703C38.8191 4.15692 38.6123 4.11247 33.2986 4.10324H26.0632Z" fill="url(#paint0_radial_1_9)"/>
<path d="M26.0632 4.10324C16.7824 4.10324 14.0681 4.11282 13.5405 4.15658C11.636 4.3149 10.4508 4.61478 9.15966 5.25762C8.16463 5.75171 7.37988 6.32445 6.6054 7.12732C5.19492 8.59149 4.34008 10.3928 4.03063 12.534C3.88017 13.5735 3.83641 13.7855 3.82752 19.0951C3.8241 20.8649 3.82752 23.1942 3.82752 26.3184C3.82752 35.5917 3.83777 38.3033 3.88223 38.8299C4.0361 40.6832 4.32674 41.8492 4.94223 43.1246C6.11848 45.566 8.365 47.3988 11.0116 48.0826C11.928 48.3186 12.9401 48.4485 14.2395 48.5101C14.79 48.534 20.4011 48.5511 26.0157 48.5511C31.6303 48.5511 37.2449 48.5443 37.7817 48.5169C39.2862 48.4461 40.1599 48.3288 41.1258 48.0792C43.7895 47.3919 45.995 45.5865 47.1952 43.1109C47.7987 41.8663 48.1047 40.6558 48.2432 38.8993C48.2733 38.5163 48.286 32.4104 48.286 26.3126C48.286 20.2139 48.2723 14.1192 48.2422 13.7362C48.102 11.9513 47.796 10.7512 47.173 9.48257C46.6618 8.44411 46.0942 7.6686 45.2701 6.87565C43.7994 5.47098 42.0009 4.61614 39.8576 4.30703C38.8191 4.15692 38.6123 4.11247 33.2986 4.10324H26.0632Z" fill="url(#paint1_radial_1_9)"/>
<path d="M26.053 9.91614C21.5955 9.91614 21.0361 9.93563 19.2854 10.0153C17.5381 10.0953 16.3454 10.3719 15.3018 10.7778C14.2224 11.197 13.3067 11.7578 12.3944 12.6704C11.4814 13.5827 10.9206 14.4984 10.5 15.5776C10.0931 16.6215 9.81617 17.8145 9.73753 19.5611C9.65923 21.3118 9.63871 21.8716 9.63871 26.329C9.63871 30.7865 9.65854 31.3442 9.73787 33.0949C9.81823 34.8422 10.0949 36.0349 10.5004 37.0785C10.9199 38.158 11.4807 39.0737 12.3933 39.9859C13.3053 40.8989 14.221 41.4611 15.2998 41.8803C16.3441 42.2861 17.5371 42.5628 19.284 42.6428C21.0347 42.7225 21.5938 42.7419 26.0509 42.7419C30.5087 42.7419 31.0664 42.7225 32.8171 42.6428C34.5644 42.5628 35.7585 42.2861 36.8027 41.8803C37.8819 41.4611 38.7962 40.8989 39.7082 39.9859C40.6211 39.0737 41.1819 38.158 41.6025 37.0788C42.006 36.0349 42.2829 34.8419 42.365 33.0953C42.4437 31.3446 42.4642 30.7865 42.4642 26.329C42.4642 21.8716 42.4437 21.3122 42.365 19.5615C42.2829 17.8142 42.006 16.6215 41.6025 15.5779C41.1819 14.4984 40.6211 13.5827 39.7082 12.6704C38.7952 11.7575 37.8822 11.1967 36.8017 10.7778C35.7554 10.3719 34.562 10.0953 32.8148 10.0153C31.064 9.93563 30.5067 9.91614 26.0479 9.91614H26.053ZM24.5806 12.8739C25.0176 12.8732 25.5052 12.8739 26.053 12.8739C30.4352 12.8739 30.9546 12.8896 32.6852 12.9683C34.2854 13.0414 35.1539 13.3088 35.7325 13.5335C36.4984 13.831 37.0445 14.1866 37.6186 14.761C38.1931 15.3355 38.5487 15.8826 38.8468 16.6485C39.0715 17.2264 39.3392 18.0949 39.4121 19.6952C39.4907 21.4253 39.5078 21.9451 39.5078 26.3253C39.5078 30.7055 39.4907 31.2252 39.4121 32.9554C39.3389 34.5557 39.0715 35.4242 38.8468 36.0021C38.5494 36.768 38.1931 37.3134 37.6186 37.8875C37.0442 38.4619 36.4988 38.8175 35.7325 39.115C35.1546 39.3407 34.2854 39.6074 32.6852 39.6806C30.955 39.7592 30.4352 39.7763 26.053 39.7763C21.6704 39.7763 21.151 39.7592 19.4208 39.6806C17.8205 39.6067 16.952 39.3393 16.3731 39.1147C15.6072 38.8172 15.0601 38.4616 14.4856 37.8871C13.9112 37.3127 13.5556 36.767 13.2574 36.0007C13.0328 35.4228 12.765 34.5543 12.6922 32.954C12.6135 31.2238 12.5978 30.7041 12.5978 26.3212C12.5978 21.9382 12.6135 21.4212 12.6922 19.691C12.7654 18.0908 13.0328 17.2223 13.2574 16.6437C13.5549 15.8778 13.9112 15.3307 14.4856 14.7562C15.0601 14.1818 15.6072 13.8262 16.3731 13.528C16.9517 13.3023 17.8205 13.0356 19.4208 12.9621C20.9349 12.8937 21.5217 12.8732 24.5806 12.8698V12.8739ZM34.8141 15.5991C33.7267 15.5991 32.8445 16.4803 32.8445 17.568C32.8445 18.6553 33.7267 19.5375 34.8141 19.5375C35.9014 19.5375 36.7836 18.6553 36.7836 17.568C36.7836 16.4806 35.9014 15.5984 34.8141 15.5984V15.5991ZM26.053 17.9003C21.3982 17.9003 17.6243 21.6743 17.6243 26.329C17.6243 30.9838 21.3982 34.756 26.053 34.756C30.7077 34.756 34.4803 30.9838 34.4803 26.329C34.4803 21.6743 30.7077 17.9003 26.053 17.9003ZM26.053 20.8581C29.0743 20.8581 31.5239 23.3074 31.5239 26.329C31.5239 29.3504 29.0743 31.8 26.053 31.8C23.0313 31.8 20.582 29.3504 20.582 26.329C20.582 23.3074 23.0313 20.8581 26.053 20.8581Z" fill="white"/>
</g>
<path d="M67.5897 10.6196C64.8183 11.7797 61.7715 15.0571 60.8093 19.1709C59.5907 24.3833 64.6619 26.5874 65.0779 25.8647C65.5674 25.0155 64.1692 24.7283 63.8813 22.0239C63.5093 18.5309 65.1332 14.6279 67.1769 12.9154C67.5568 12.5972 67.5388 13.04 67.5388 13.8592C67.5388 15.324 67.4578 28.4734 67.4578 31.2177C67.4578 34.9311 67.3044 36.1037 67.029 37.2624C66.7499 38.4366 66.3012 39.2301 66.6412 39.5357C67.021 39.8775 68.643 39.0644 69.5819 37.7539C70.7079 36.1822 71.102 34.2946 71.1728 32.2448C71.2582 29.7737 71.2546 25.8527 71.2582 23.6162C71.2616 21.565 71.2928 15.5586 71.2223 11.9477C71.205 11.0621 68.7487 10.1329 67.5896 10.6185M166.003 27.998C165.914 29.9285 165.487 31.4374 164.956 32.5018C163.929 34.5623 161.799 35.2021 160.894 32.24C160.401 30.6254 160.378 27.9288 160.733 25.6757C161.094 23.3804 162.101 21.6469 163.769 21.8032C165.414 21.9577 166.184 24.0779 166.003 27.998ZM138.266 39.9753C138.244 43.1829 137.739 45.9954 136.656 46.8122C135.121 47.9705 133.057 47.1016 133.485 44.761C133.863 42.6897 135.651 40.5745 138.271 37.9899C138.271 37.9899 138.276 38.5793 138.266 39.9753ZM137.847 27.9793C137.753 29.7376 137.297 31.504 136.8 32.502C135.773 34.5625 133.627 35.2067 132.738 32.2403C132.13 30.2135 132.276 27.5904 132.576 25.9376C132.967 23.7931 133.913 21.8037 135.613 21.8037C137.265 21.8037 138.08 23.6164 137.847 27.9793ZM121.779 27.9524C121.678 29.8146 121.315 31.3713 120.732 32.502C119.677 34.5483 117.59 35.1973 116.67 32.2403C116.006 30.108 116.232 27.2007 116.508 25.6301C116.918 23.2995 117.943 21.6471 119.545 21.8037C121.189 21.9643 121.989 24.0779 121.779 27.9524ZM195.415 30.1276C195.013 30.1276 194.83 30.542 194.678 31.2395C194.151 33.665 193.598 34.2126 192.884 34.2126C192.087 34.2126 191.371 33.0117 191.187 30.6075C191.042 28.7171 191.065 25.2368 191.25 21.7747C191.288 21.0634 191.092 20.3596 189.184 19.6666C188.363 19.3684 187.17 18.9295 186.576 20.3637C184.897 24.4158 184.24 27.6328 184.085 28.9397C184.077 29.0073 183.994 29.0211 183.98 28.8631C183.881 27.8164 183.661 25.9143 183.634 21.9181C183.629 21.1384 183.463 20.4747 182.603 19.9314C182.044 19.5788 180.349 18.9552 179.738 19.6971C179.209 20.3038 178.597 21.9366 177.96 23.872C177.443 25.4451 177.082 26.5092 177.082 26.5092C177.082 26.5092 177.089 22.2648 177.095 20.6548C177.098 20.0474 176.681 19.845 176.556 19.8083C175.99 19.6442 174.876 19.37 174.403 19.37C173.82 19.37 173.677 19.6962 173.677 20.1714C173.677 20.2336 173.585 25.7596 173.585 29.6236C173.585 29.7915 173.585 29.9746 173.587 30.1691C173.264 31.945 172.217 34.3559 171.079 34.3559C169.94 34.3559 169.402 33.348 169.402 28.7415C169.402 26.0541 169.483 24.8856 169.522 22.942C169.545 21.8225 169.59 20.9628 169.587 20.7677C169.579 20.1694 168.544 19.8679 168.063 19.7564C167.579 19.6441 167.159 19.6005 166.831 19.6192C166.366 19.6454 166.038 19.9502 166.038 20.3693C166.038 20.594 166.04 21.0214 166.04 21.0214C165.442 20.0812 164.48 19.4269 163.84 19.2373C162.115 18.7251 160.316 19.1789 158.959 21.0781C157.88 22.5871 157.23 24.2962 156.974 26.7518C156.787 28.547 156.848 30.3674 157.18 31.9069C156.778 33.6441 156.032 34.3559 155.216 34.3559C154.03 34.3559 153.17 32.4203 153.27 29.0728C153.336 26.8711 153.776 25.3259 154.258 23.0906C154.463 22.1377 154.296 21.6388 153.878 21.1606C153.494 20.7221 152.676 20.4981 151.501 20.7736C150.664 20.9701 149.466 21.1813 148.371 21.3436C148.371 21.3436 148.437 21.0799 148.491 20.615C148.776 18.1768 146.127 18.3746 145.281 19.1534C144.777 19.6183 144.433 20.1667 144.303 21.1526C144.096 22.7173 145.372 23.4552 145.372 23.4552C144.954 25.3718 143.927 27.8754 142.868 29.6855C142.3 30.6553 141.866 31.3739 141.306 32.1378C141.304 31.8534 141.302 31.5689 141.301 31.2858C141.288 27.2565 141.342 24.0854 141.366 22.9424C141.389 21.8229 141.433 20.986 141.431 20.7909C141.425 20.3533 141.169 20.188 140.638 19.9788C140.168 19.7938 139.612 19.6657 139.036 19.621C138.308 19.5642 137.87 19.9501 137.881 20.4064C137.883 20.4925 137.883 21.0215 137.883 21.0215C137.285 20.0814 136.323 19.427 135.683 19.2374C133.958 18.7255 132.159 19.1793 130.802 21.0783C129.723 22.5873 129.017 24.7048 128.817 26.7332C128.63 28.6238 128.665 30.2303 128.919 31.5837C128.645 32.9389 127.856 34.356 126.965 34.356C125.825 34.356 125.177 33.3481 125.177 28.7416C125.177 26.0543 125.258 24.8858 125.297 22.9424C125.32 21.8229 125.365 20.9629 125.362 20.7681C125.354 20.1698 124.319 19.8683 123.838 19.7566C123.334 19.6401 122.899 19.5973 122.566 19.6219C122.125 19.6547 121.815 20.0492 121.815 20.3435V21.0215C121.217 20.0814 120.255 19.427 119.615 19.2374C117.89 18.7255 116.101 19.1866 114.734 21.0783C113.842 22.3117 113.12 23.6792 112.749 26.7064C112.641 27.5811 112.594 28.4003 112.6 29.166C112.245 31.3404 110.674 33.8464 109.39 33.8464C108.638 33.8464 107.922 32.3885 107.922 29.2813C107.922 25.1424 108.178 19.2495 108.222 18.6815C108.222 18.6815 109.845 18.654 110.159 18.6503C110.968 18.6414 111.702 18.6606 112.78 18.6054C113.321 18.5778 113.842 16.6369 113.284 16.3967C113.031 16.288 111.243 16.1927 110.534 16.1777C109.938 16.1642 108.279 16.0414 108.279 16.0414C108.279 16.0414 108.427 12.1299 108.462 11.7167C108.491 11.3724 108.046 11.195 107.79 11.0875C107.169 10.8247 106.613 10.6989 105.954 10.563C105.044 10.3752 104.631 10.5589 104.55 11.3272C104.429 12.4932 104.366 15.9085 104.366 15.9085C103.698 15.9085 101.416 15.7779 100.748 15.7779C100.127 15.7779 99.457 18.4479 100.315 18.4807C101.303 18.519 103.024 18.5521 104.165 18.5865C104.165 18.5865 104.114 24.5765 104.114 26.4258C104.114 26.6225 104.116 26.812 104.116 26.9959C103.488 30.2687 101.276 32.0366 101.276 32.0366C101.751 29.8714 100.781 28.2455 99.0336 26.8691C98.3897 26.3619 97.1186 25.4018 95.6964 24.3495C95.6964 24.3495 96.5201 23.5377 97.2506 21.9045C97.7682 20.7476 97.7905 19.4237 96.5201 19.1317C94.421 18.649 92.6903 20.1906 92.174 21.8364C91.7741 23.1113 91.9874 24.0574 92.771 25.0401C92.8282 25.1119 92.8902 25.1853 92.9542 25.2591C92.4804 26.1724 91.8294 27.402 91.2781 28.3556C89.7479 31.003 88.5919 33.0971 87.7183 33.0971C87.02 33.0971 87.0294 30.9711 87.0294 28.9805C87.0294 27.2645 87.1561 24.6846 87.2573 22.0134C87.2908 21.1301 86.8491 20.6268 86.1086 20.171C85.6587 19.8941 84.6985 19.3496 84.1424 19.3496C83.31 19.3496 80.9085 19.4629 78.6394 26.0265C78.3535 26.8538 77.7917 28.3613 77.7917 28.3613L77.84 20.4682C77.84 20.2831 77.7415 20.1042 77.5158 19.9818C77.1334 19.7742 76.1122 19.3496 75.2041 19.3496C74.7714 19.3496 74.5555 19.5508 74.5555 19.952L74.4763 32.3008C74.4763 33.239 74.5007 34.3336 74.5935 34.8124C74.6859 35.2917 74.8357 35.6816 75.0211 35.9137C75.2063 36.1452 75.4205 36.3219 75.7737 36.3948C76.1024 36.4624 77.9023 36.6936 77.9958 36.0057C78.1079 35.1814 78.1122 34.2898 79.0573 30.9645C80.5287 25.7875 82.4471 23.2615 83.3489 22.3644C83.5066 22.2076 83.6867 22.1983 83.678 22.4549C83.6395 23.5899 83.5041 26.4261 83.413 28.8356C83.1687 35.2837 84.3417 36.4789 86.018 36.4789C87.3005 36.4789 89.1083 35.2046 91.0462 31.979C92.2544 29.9688 93.4275 27.9978 94.2703 26.5772C94.8576 27.1209 95.5167 27.7061 96.1754 28.3312C97.7061 29.784 98.2086 31.1644 97.8752 32.474C97.6201 33.4751 96.6597 34.5069 94.9504 33.504C94.4522 33.2115 94.2395 32.9855 93.7386 32.6556C93.4694 32.4784 93.0585 32.4255 92.8121 32.6111C92.1721 33.0936 91.8061 33.7074 91.5971 34.4672C91.3938 35.2066 92.1343 35.5975 92.9019 35.9393C93.5628 36.2336 94.9834 36.5002 95.8894 36.5306C99.4193 36.6486 102.247 34.8262 104.215 30.1253C104.568 34.1851 106.068 36.4825 108.673 36.4825C110.415 36.4825 112.161 34.2309 112.925 32.0158C113.144 32.9188 113.469 33.7039 113.888 34.3679C115.896 37.5489 119.791 36.8642 121.747 34.1631C122.352 33.3284 122.444 33.0285 122.444 33.0285C122.729 35.5791 124.783 36.4702 125.959 36.4702C127.276 36.4702 128.636 35.8475 129.59 33.7017C129.701 33.9346 129.823 34.157 129.956 34.3678C131.964 37.5488 135.859 36.8642 137.815 34.163C137.907 34.0363 137.987 33.9213 138.057 33.8182L138.115 35.4935C138.115 35.4935 136.999 36.5174 136.314 37.1454C133.298 39.9119 131.006 42.0107 130.837 44.4548C130.62 47.5713 133.148 48.7296 135.06 48.8814C137.091 49.0425 138.83 47.9208 139.899 46.3508C140.839 44.969 141.454 41.995 141.409 39.0576C141.391 37.8814 141.361 36.3858 141.338 34.7827C142.398 33.5519 143.592 31.9964 144.691 30.1756C145.89 28.1914 147.174 25.5267 147.831 23.4529C147.831 23.4529 148.947 23.4624 150.137 23.3845C150.518 23.3597 150.628 23.4374 150.557 23.7166C150.472 24.0539 149.053 29.5279 150.348 33.1745C151.235 35.6708 153.233 36.474 154.418 36.474C155.805 36.474 157.132 35.4265 157.843 33.871C157.929 34.0444 158.019 34.2122 158.116 34.3671C160.124 37.5481 164.005 36.8594 165.975 34.1623C166.42 33.5538 166.672 33.0277 166.672 33.0277C167.095 35.6674 169.148 36.4829 170.324 36.4829C171.549 36.4829 172.711 35.9808 173.654 33.7493C173.693 34.7318 173.755 35.5352 173.853 35.7885C173.913 35.9434 174.261 36.1379 174.514 36.2318C175.635 36.6473 176.778 36.4508 177.2 36.3653C177.493 36.306 177.722 36.0711 177.753 35.4644C177.835 33.8713 177.784 31.1946 178.267 29.2054C179.078 25.8669 179.834 24.5719 180.193 23.9308C180.394 23.5716 180.62 23.5124 180.629 23.8925C180.646 24.6617 180.684 26.9206 180.998 29.9555C181.228 32.1875 181.537 33.5068 181.773 33.9243C182.449 35.1184 183.284 35.1749 183.963 35.1749C184.396 35.1749 185.3 35.0554 185.219 34.2956C185.18 33.9252 185.249 31.6363 186.048 28.3473C186.57 26.1995 187.44 24.2587 187.754 23.5493C187.87 23.2876 187.923 23.4939 187.922 23.534C187.855 25.0132 187.707 29.8514 188.31 32.4974C189.127 36.082 191.49 36.4832 192.313 36.4832C194.071 36.4832 195.509 35.146 195.993 31.6275C196.11 30.7807 195.937 30.1269 195.419 30.1269" fill="#262626"/>
<defs>
<radialGradient id="paint0_radial_1_9" cx="0" cy="0" r="1" gradientUnits="userSpaceOnUse" gradientTransform="translate(15.6357 51.9745) rotate(-90) scale(44.0511 40.9822)">
<stop stop-color="#FFDD55"/>
<stop offset="0.1" stop-color="#FFDD55"/>
<stop offset="0.5" stop-color="#FF543E"/>
<stop offset="1" stop-color="#C837AB"/>
</radialGradient>
<radialGradient id="paint1_radial_1_9" cx="0" cy="0" r="1" gradientUnits="userSpaceOnUse" gradientTransform="translate(-3.62128 7.30519) rotate(78.6776) scale(19.6912 81.1885)">
<stop stop-color="#3771C8"/>
<stop offset="0.128" stop-color="#3771C8"/>
<stop offset="1" stop-color="#6600FF" stop-opacity="0"/>
</radialGradient>
<clipPath id="clip0_1_9">
<rect width="45.1368" height="45.1355" fill="white" transform="translate(3.48387 3.76129)"/>
</clipPath>
</defs>
</svg>
