<svg width="168" height="60" viewBox="0 0 168 60" fill="none" xmlns="http://www.w3.org/2000/svg">
<g clip-path="url(#clip0)">
<path d="M16.221 22.3028L10.5383 16.6201L0 27.1584L16.221 43.3794L32.4419 27.1584L21.9036 16.6201L16.221 22.3028ZM16.221 38.5239L4.85556 27.1584L10.5383 21.4758L16.221 27.1584L21.877 21.5024L27.5597 27.1852L16.221 38.5239Z" fill="#00B2A5"/>
<path d="M46.8233 28.0123C46.7699 27.4787 46.5298 26.9985 46.1296 26.6783C45.7561 26.4115 45.1959 26.2514 44.4222 26.2514C43.8619 26.2247 43.3016 26.3048 42.768 26.5182C42.4212 26.6516 42.181 27.0251 42.2077 27.3986C42.2077 27.7721 42.4212 28.119 42.768 28.2524C43.2749 28.5192 43.8085 28.7325 44.3955 28.8659C45.5427 29.1861 46.5298 29.4529 47.3302 29.693C47.9972 29.8531 48.6374 30.1466 49.251 30.4934C49.7046 30.7602 50.0515 31.1603 50.2916 31.6406C50.5317 32.2275 50.6384 32.8678 50.6117 33.5081C50.6117 34.682 50.0781 35.7759 49.1176 36.4695C48.1305 37.2432 46.6365 37.6434 44.689 37.6434C43.8085 37.6434 42.928 37.5368 42.0743 37.3233C41.354 37.1366 40.687 36.8164 40.0734 36.3896C39.5398 36.016 39.113 35.5091 38.7928 34.9222C38.4993 34.3352 38.3392 33.6682 38.3125 33.0012H41.9409C41.9142 33.5882 42.2078 34.1484 42.688 34.4686C43.275 34.8421 43.9419 35.0022 44.6355 34.9755C45.2225 35.0022 45.8094 34.8955 46.3697 34.6554C46.7966 34.522 47.0901 34.1485 47.0901 33.6949C47.1168 33.2681 46.93 32.8679 46.5565 32.6277C46.0496 32.361 45.516 32.1742 44.929 32.0675C43.8619 31.854 42.8213 31.5339 41.7808 31.1604C41.1138 30.9203 40.4736 30.5735 39.94 30.1199C39.5398 29.7998 39.2197 29.3728 39.0596 28.8659C38.8995 28.3857 38.8195 27.8522 38.8195 27.3453C38.8195 26.8384 38.9262 26.3581 39.1396 25.9045C39.353 25.4243 39.6999 25.0241 40.1268 24.7039C40.6604 24.3304 41.2473 24.0371 41.8876 23.877C42.768 23.6635 43.6485 23.5568 44.5556 23.5568C46.4765 23.5568 47.8637 23.9569 48.7708 24.7306C49.6513 25.5043 50.1315 26.5715 50.2382 27.9589L46.8233 28.0123ZM70.5412 37.2966V30.36C70.5412 28.199 71.6084 27.1318 73.7694 27.1318C74.0896 27.1318 74.4096 27.1585 74.7565 27.2119V23.6102H74.303C73.9295 23.6102 73.5827 23.6368 73.2358 23.6635C72.889 23.6902 72.5421 23.7969 72.2219 23.9303C71.8751 24.0637 71.5283 24.2771 71.2349 24.5173C70.888 24.8107 70.5678 25.1842 70.3277 25.5844V23.9837H67.0195V37.3233L70.5412 37.2966ZM79.3187 29.3195C79.3453 28.5192 79.6654 27.7454 80.199 27.1585C80.6792 26.6516 81.3463 26.3848 82.0133 26.3848C82.3601 26.3848 82.7069 26.4381 83.0271 26.5715C83.3472 26.6782 83.6407 26.865 83.8808 27.1051C84.1476 27.3719 84.361 27.6921 84.4944 28.0123C84.6545 28.4125 84.7345 28.866 84.7612 29.2928L79.3187 29.3195ZM88.4163 31.5606C88.4163 28.8926 87.8827 26.9184 86.8156 25.5844C85.7484 24.2505 84.201 23.6102 82.1467 23.6102C81.2129 23.5835 80.2791 23.7435 79.3986 24.0904C78.6249 24.3838 77.9314 24.8374 77.3711 25.451C76.8109 26.0647 76.3839 26.785 76.1171 27.5854C75.8237 28.4925 75.6636 29.4263 75.6902 30.3867C75.6902 35.2423 77.9046 37.6434 82.3601 37.6434C83.6674 37.6701 84.9747 37.2967 86.0419 36.523C87.1091 35.7493 87.856 34.6287 88.2028 33.3481H84.5745C84.4411 33.8017 84.1476 34.2018 83.7207 34.4419C83.2672 34.7087 82.7336 34.8421 82.2 34.8421C81.3996 34.8688 80.6259 34.5487 80.0923 33.9617C79.5321 33.2947 79.212 32.441 79.212 31.5606H88.4163ZM97.9942 32.2276C97.9942 32.6277 97.9141 33.0013 97.7274 33.3481C97.5673 33.695 97.3272 34.0151 97.0604 34.2552C96.7669 34.522 96.4201 34.7354 96.0466 34.8688C95.6464 35.0289 95.2195 35.1089 94.7927 35.1089C93.6454 35.1089 93.0852 34.6021 93.0852 33.6149C93.0585 33.108 93.272 32.6011 93.6455 32.281C94.019 31.9875 94.7126 31.7206 95.7264 31.5339C96.3667 31.4005 96.8737 31.2938 97.2205 31.1871C97.514 31.1071 97.7807 30.947 97.9942 30.7602V32.2276ZM101.542 37.2966V28.8659C101.542 28.1189 101.463 27.3452 101.249 26.6249C101.062 26.0113 100.742 25.4243 100.289 24.9707C99.7817 24.4905 99.1947 24.1437 98.5278 23.957C97.6473 23.7169 96.7669 23.5835 95.8598 23.6102C94.9527 23.5835 94.0189 23.7169 93.1385 23.957C92.4715 24.1437 91.858 24.4639 91.3511 24.9175C90.8975 25.3176 90.5506 25.8246 90.3372 26.4115C90.1237 27.0251 90.0171 27.6653 89.9904 28.3056H93.2719C93.3252 27.7721 93.5654 27.2652 93.9389 26.865C94.2857 26.4915 94.8727 26.3314 95.6997 26.3314C96.26 26.3047 96.847 26.4381 97.3539 26.7049C97.7274 26.8916 97.9675 27.2919 97.9675 27.7188C97.9941 28.119 97.8342 28.4924 97.514 28.7325C97.2205 28.946 96.6069 29.106 95.7264 29.2394C94.846 29.3728 94.0189 29.5062 93.2719 29.6663C92.6049 29.7997 91.938 30.0399 91.3243 30.3867C90.7908 30.7069 90.3373 31.1604 90.0438 31.7207C89.697 32.441 89.5368 33.2147 89.5902 34.0151C89.5635 35.0023 89.937 35.9627 90.6574 36.6564C91.3777 37.3233 92.4983 37.6701 94.019 37.6701C94.846 37.6968 95.6464 37.5367 96.3934 37.2432C97.0337 37.0031 97.594 36.6297 98.0476 36.1228C98.0743 36.523 98.1543 36.9231 98.261 37.3233L101.542 37.2966ZM109.813 34.7888C108.959 34.7888 108.132 34.3886 107.652 33.6682C107.092 32.9212 106.825 31.9341 106.825 30.7602C106.825 28.0122 107.839 26.6516 109.866 26.6249C111.841 26.6249 112.828 28.0656 112.828 30.947C112.828 32.0942 112.534 33.0013 111.974 33.7216C111.441 34.3886 110.64 34.7888 109.813 34.7888ZM116.109 37.2966V19.0747H112.641V25.6911C111.654 24.3038 110.32 23.6102 108.693 23.6102C107.892 23.5835 107.092 23.7702 106.371 24.1171C105.704 24.4639 105.091 24.9441 104.637 25.531C104.157 26.198 103.784 26.9184 103.57 27.7188C103.303 28.6259 103.197 29.5596 103.197 30.4934C103.17 31.5072 103.33 32.521 103.624 33.5081C103.864 34.3352 104.291 35.0823 104.824 35.7493C105.304 36.3629 105.945 36.8431 106.638 37.1632C107.359 37.4834 108.159 37.6701 108.959 37.6434C110.614 37.6434 111.867 36.9765 112.668 35.6692L112.695 37.2966H116.109ZM58.6155 26.4915C59.4692 26.4915 60.2963 26.8917 60.7765 27.6121C61.3368 28.3591 61.6036 29.3462 61.6036 30.5201C61.6036 33.2681 60.5898 34.6287 58.5622 34.6554C56.5879 34.6554 55.6008 33.2147 55.6008 30.3333C55.6008 29.1861 55.8942 28.279 56.4544 27.5587C56.988 26.865 57.7884 26.4915 58.6155 26.4915ZM52.3191 23.957V42.1789H55.7875V35.5625C56.7746 36.9498 58.1086 37.6434 59.7361 37.6434C60.5364 37.6701 61.3367 37.4834 62.0571 37.1365C62.7241 36.7897 63.3377 36.3095 63.7912 35.7226C64.2715 35.0556 64.645 34.3352 64.8584 33.5348C65.1252 32.6277 65.232 31.694 65.232 30.7602C65.2587 29.7464 65.0986 28.7326 64.8051 27.7455C64.565 26.9184 64.1382 26.1713 63.6046 25.5043C63.1243 24.8907 62.484 24.4105 61.7903 24.0904C61.07 23.7702 60.2697 23.5835 59.4693 23.6102C57.8152 23.6102 56.5613 24.2771 55.7609 25.5844L55.7342 23.957H52.3191ZM129.556 28.0123C129.476 26.6516 128.969 25.5578 128.088 24.7841C127.208 24.0104 125.794 23.6102 123.873 23.6102C122.966 23.5835 122.086 23.6902 121.205 23.9303C120.565 24.0903 119.978 24.3838 119.444 24.7573C119.017 25.0775 118.671 25.4777 118.457 25.9579C118.244 26.4115 118.137 26.8917 118.137 27.3986C118.137 27.9055 118.217 28.4391 118.377 28.9193C118.564 29.3996 118.857 29.853 119.258 30.1732C119.818 30.6267 120.432 30.9737 121.098 31.2138C122.112 31.5873 123.179 31.9074 124.247 32.1209C124.807 32.2276 125.367 32.4144 125.874 32.6812C126.221 32.9213 126.434 33.3215 126.408 33.7483C126.408 34.2019 126.114 34.5753 125.687 34.7087C125.154 34.9221 124.54 35.0289 123.953 35.0289C123.259 35.0556 122.593 34.8688 122.006 34.522C121.525 34.2019 121.232 33.6416 121.259 33.0546H117.63C117.63 34.3886 118.297 35.6426 119.391 36.4163C120.005 36.8431 120.672 37.1633 121.392 37.35C122.246 37.5902 123.126 37.6968 124.007 37.6701C125.954 37.6701 127.421 37.2699 128.435 36.4962C129.396 35.8026 129.929 34.7087 129.929 33.5348C129.956 32.8945 129.849 32.2809 129.609 31.694C129.396 31.2137 129.022 30.8136 128.569 30.5468C127.982 30.2 127.341 29.9332 126.648 29.7464C125.847 29.533 124.887 29.2395 123.713 28.9193C123.153 28.786 122.619 28.5724 122.086 28.3056C121.739 28.1456 121.525 27.7988 121.525 27.452C121.499 27.0785 121.739 26.7049 122.086 26.5715C122.619 26.3847 123.179 26.278 123.74 26.3047C124.487 26.3047 125.074 26.4381 125.447 26.7316C125.847 27.0784 126.087 27.5587 126.141 28.0656L129.556 28.0123ZM143.722 37.2966V27.8522C143.722 26.5182 143.296 25.4777 142.442 24.7306C141.588 23.9836 140.468 23.6102 139.107 23.6102C138.253 23.6102 137.426 23.8235 136.679 24.1971C136.359 24.3838 136.039 24.5972 135.772 24.864C135.532 25.1042 135.319 25.371 135.185 25.6911V19.0747H131.664V37.2966H135.185V29.6396C135.185 29.2127 135.239 28.786 135.372 28.3858C135.479 28.0123 135.665 27.6654 135.906 27.3453C136.146 27.0518 136.439 26.8117 136.759 26.6516C137.133 26.4649 137.533 26.3848 137.933 26.3848C138.734 26.3848 139.32 26.5716 139.694 26.9451C140.041 27.3186 140.227 28.0122 140.227 29.026V37.2966H143.722V37.2966ZM155.408 37.2966V30.36C155.408 28.199 156.475 27.1318 158.636 27.1318C158.956 27.1318 159.277 27.1585 159.623 27.2119V23.6102H159.17C158.796 23.6102 158.449 23.6368 158.103 23.6635C157.756 23.6902 157.409 23.7969 157.089 23.9303C156.742 24.0637 156.395 24.2771 156.102 24.5173C155.755 24.8107 155.435 25.1842 155.195 25.5844V23.9837H151.886V37.3233L155.408 37.2966ZM168.001 34.602H166.587C165.866 34.602 165.333 34.3619 165.013 33.9083C164.666 33.3214 164.506 32.6277 164.532 31.9341V26.7583H167.174V23.7436H164.532V19.128H161.064V32.3075C161.064 33.0012 161.171 33.6949 161.358 34.3619C161.544 35.0022 161.864 35.5891 162.318 36.0694C162.798 36.5763 163.358 36.9764 164.025 37.2432C164.826 37.5634 165.68 37.6968 166.533 37.6701H168.001V34.602ZM146.017 37.2966H149.539V23.957H146.017V37.2966ZM146.017 19.0747H149.539V22.3562H146.017V19.0747Z" fill="#00B2A5"/>
</g>
<defs>
<clipPath id="clip0">
<rect width="168" height="60" fill="white"/>
</clipPath>
</defs>
</svg>
