<?xml version="1.0" encoding="UTF-8"?>
<svg width="966px" height="966px" viewBox="0 0 966 966" version="1.1" xmlns="http://www.w3.org/2000/svg" xmlns:xlink="http://www.w3.org/1999/xlink">
    <!-- Generator: Sketch 55.2 (78181) - https://sketchapp.com -->
    <title>error</title>
    <desc>Created with Sketch.</desc>
    <g id="error" stroke="none" stroke-width="1" fill="none" fill-rule="evenodd">
        <g id="Group-6" transform="translate(260.000000, 26.000000)">
            <path d="M318.117079,645.725614 L335.786268,681.817467 C335.786268,681.817467 345.366766,677.496991 354.803572,683.008944 C364.75827,678.297967 379.123529,680.461201 387.422769,688.522893 C395.723007,696.583587 399.256446,709.624912 399.256446,709.624912 C399.256446,709.624912 403.856602,741.633985 390.172884,752.408209 C386.775155,755.083788 386.271233,758.490433 380.126383,745.967445 C373.980535,733.444457 320.961991,728.038369 320.961991,728.038369 C320.961991,728.038369 296.114163,739.916182 288.139229,725.111112 C283.817478,714.482701 287.380852,702.91649 287.380852,702.91649 C287.380852,702.91649 290.747647,688.522893 298.645746,685.669542 C294.850867,668.001133 289.317707,651.914701 297.22778,646.4407 C302.624232,642.706475 315.066606,634.300223 318.117079,645.725614" id="Fill-5" fill="#010103"></path>
            <path d="M129.481903,113.126945 C196.815236,238.160799 254.182475,301.81317 301.583618,304.084058 C336.801047,305.77125 346.648499,381.039516 301.242064,503.334507 C294.860838,520.521323 316.09121,559.634702 299.077659,570.278054 C284.90896,579.141721 251.493829,560.821535 237.628135,585.866478 C207.639978,585.292041 127.606134,554.381945 100.9523,378.779288 C90.609412,310.637548 90.0559993,246.586289 101.956648,184.654475 C106.150388,162.82996 115.325473,138.987449 129.481903,113.126945 Z" id="Path-12" fill="#010103" fill-rule="nonzero" transform="translate(212.431700, 349.496711) rotate(18.000000) translate(-212.431700, -349.496711) "></path>
            <path d="M335.344944,616.754144 L252.39207,619.780139 C209.289102,622.554209 182.817354,621.4204 172.976827,616.378712 C158.216036,608.816179 147.401899,599.27676 151.496173,593.684258 C158.32179,584.360928 169.361677,574.583525 184.615833,564.352049 C175.864031,567.698412 171.793739,568.513793 172.404959,566.798193 C173.791871,562.905342 183.565406,549.546216 201.725564,526.720815 C207.810543,514.811444 211.414924,507.103254 212.53871,503.596244 C213.966729,499.139807 197.650059,505.925182 187.587867,509.194586 C194.458071,487.916275 205.67377,475.995997 220.366077,467.029077 C223.045397,462.896204 225.54476,457.460006 227.864168,450.720483 C220.650071,451.360741 215.430943,452.204667 212.206782,453.25226 C214.114356,444.191561 222.500179,430.052713 237.364252,410.835717 L225.066916,419.075952 C226.93175,408.945295 229.530849,400.750633 232.864212,394.491967 C236.197575,388.233301 239.864275,383.594629 243.86431,380.575952 C246.166414,357.70616 247.317466,342.539493 247.317466,335.075952 C247.317466,327.61241 246.166414,323.473087 243.86431,322.657983 L199.363914,295.13978 L301.410022,272.766365 L318.708163,297.313896 L373.52483,403.879966 L442.366077,598.519686 L397.755295,641.059078 C393.427749,648.071715 386.953907,648.912751 383.893763,646.651966 L335.344944,616.754144 Z" id="Fill-22" fill="#CECDC4" transform="translate(296.494085, 460.267745) rotate(18.000000) translate(-296.494085, -460.267745) "></path>
            <path d="M256.782535,670.617866 L243.586541,639.689228 L249.64707,669.459632 C237.251387,667.257708 225.781531,664.230101 215.418624,660.838277 L226.658203,631.395556 L209.247499,658.73203 C199.413883,655.237152 190.707294,651.47566 183.304903,647.898953 L204.665735,624.907152 L176.92186,644.701624 C162.870327,637.407205 154.987044,631.575226 154.987044,631.575226 C154.987044,631.575226 178.163955,607.376825 205.885901,599.511139 C187.674302,598.596698 125.165504,581.217373 125.482187,571.649325 C125.578876,568.733977 117.382438,548.186136 125.482187,543.131054 C142.998375,532.19914 163.643992,527.21356 176.244432,521.142219 C177.748051,520.417722 176.367321,517.251023 174.360097,517.669526 C169.439988,518.695496 162.396822,520.247616 155.597641,522.047459 C172.041635,507.004178 189.986909,498.603313 189.986909,498.603313 C189.986909,498.603313 210.557872,475.551123 215.537191,468.939329 C220.518655,462.317704 196.900785,467.063576 196.900785,467.063576 C196.900785,467.063576 219.034606,451.391813 228.46966,448.618666 C231.444489,443.567489 245.194814,423.198831 245.194814,423.198831 C245.194814,423.198831 238.640111,422.029225 233.68591,422.271368 C235.214729,418.173729 257.043716,406.070845 257.043716,406.070845 L265.933343,388.306646 C265.933343,388.306646 261.020921,386.985281 254.421228,389.641641 C257.244188,384.463213 275.066469,376.185567 275.066469,376.185567 C275.066469,376.185567 282.020802,363.366032 285.361382,355.340592 C288.702292,347.317366 292.516113,332.021405 292.516113,332.021405 C293.057321,333.329006 272.509884,336.759539 258.692316,327.298656 C241.776127,315.713959 231.054203,290.103672 233.218223,283.1688 C241.618852,256.141173 304.489275,235.548036 332.453485,244.634159 C351.096292,250.691574 361.492046,272.386882 363.640749,309.720083 C365.964967,320.442046 362.679316,369.277853 355.946395,398.07596 C357.993715,402.472268 365.497545,415.247772 364.738514,421.096812 C360.960929,415.067617 356.210658,413.250435 356.210658,413.250435 L352.960033,432.846857 C352.960033,432.846857 363.506468,455.4681 362.334776,459.681777 C358.469712,456.575134 352.480318,453.668916 352.480318,453.668916 C352.480318,453.668916 351.631527,478.228483 351.068898,484.064484 C357.072002,491.853794 365.767009,517.54245 365.767009,517.54245 C365.767009,517.54245 349.448354,499.820414 349.587609,508.104808 C349.728698,516.380324 352.821219,547.121246 352.821219,547.121246 C352.821219,547.121246 362.402295,564.465965 366.863238,586.302724 C361.866849,580.172298 356.436563,574.110395 353.061916,570.421933 C351.836242,569.081439 349.591214,569.834315 349.455116,571.649325 C347.292221,600.57001 337.376706,643.884816 330.033038,657.146356 C322.268705,671.166088 291.535886,670.503913 289.163289,662.971981 C287.418693,657.430687 280.588381,631.917315 259.860397,616.050469 C277.283838,638.510033 279.174462,672.833671 279.174462,672.833671 C271.448155,672.441275 263.973323,671.675011 256.782535,670.617866 Z" id="Combined-Shape" fill="#010103"></path>
            <path d="M612.067421,667.161527 C600.883667,651.601384 515.309673,532.425038 515.837001,529.892224 C517.983267,519.59485 523.593121,509.051299 524.650774,498.078441 L558.52063,546.379031 C585.880778,585.394971 630.24227,608.83876 677.743762,609.496231 C678.595677,609.507239 679.110022,608.527537 678.622642,607.828036 L417.446332,232.993605 C413.949786,228.016041 406.482298,228.342274 403.433182,233.607045 C403.433182,233.607045 382.691603,267.093025 397.400866,296.374995 C423.95604,349.23485 411.783546,396.065386 388.233544,400.282406 C372.532211,403.093753 352.47853,391.617008 328.072499,365.85217 C331.438936,374.395117 335.49408,383.763066 337.858013,392.655189 C342.359231,409.586885 345.297278,427.121215 347.640252,445.142532 C361.929051,455.899235 371.575763,474.524574 377.17563,488.410518 C370.474166,481.011219 360.003504,476.570038 354.943949,472.49512 C355.506232,474.760743 356.074509,477.11643 356.655768,479.471116 C374.044618,495.361496 383.865109,514.038871 390.354842,530.132396 C382.408963,521.364117 370.315368,515.105635 364.695527,510.876606 C365.492512,513.899771 366.313466,516.979977 367.156392,520.0842 C383.523544,539.863365 402.773023,565.473705 411.519882,587.151229 C399.803806,574.234979 385.864562,566.615523 379.269962,562.703722 C379.823257,564.570058 380.375554,566.428389 380.928849,568.309736 C398.560389,591.673468 428.410366,632.556746 440.519941,662.561233 C424.693101,645.106733 408.125206,632.011355 400.252234,627.928431 C407.965409,650.070288 408.588615,685.559703 405.915021,706.008347 C405.827133,706.68383 406.430365,707.197198 407.08553,707.011065 C412.681402,705.417924 434.535564,698.457939 452.833256,682.359411 C482.937908,699.444646 511.254838,705.821213 532.62961,708.44309 C533.529464,708.553169 534.115717,707.542445 533.58739,706.804917 C525.059254,694.896389 479.677062,631.348881 480.863551,629.247376 C484.416025,622.954869 491.995371,605.701514 491.995371,605.701514 C519.347529,644.705446 563.693041,668.147233 611.179552,668.815712 C612.03746,668.828721 612.569781,667.860027 612.067421,667.161527 Z" id="Fill-24" fill="#010103" transform="translate(503.441969, 468.951372) rotate(18.000000) translate(-503.441969, -468.951372) "></path>
            <path d="M281.886136,315.270694 C292.517786,315.270694 299.984539,309.763353 299.623268,296.389967 C299.508432,292.139011 296.681724,284.169845 293.570598,280.750393 C290.04944,276.880273 287.530604,271.978184 281.886136,271.978184 C271.254486,271.978184 262.63583,280.596839 262.63583,291.228489 C262.63583,301.860139 271.254486,315.270694 281.886136,315.270694 Z" id="Oval" fill="#333333" fill-rule="nonzero"></path>
            <path d="M281.648913,310.946337 C290.843853,310.946337 297.301586,306.239481 296.989135,294.809899 C296.889817,291.176814 294.445097,284.365956 291.754394,281.443517 C288.709068,278.135914 286.530615,273.946337 281.648913,273.946337 C272.453972,273.946337 265,281.312282 265,290.398635 C265,299.484989 272.453972,310.946337 281.648913,310.946337 Z" id="Oval" fill="#664C4C" fill-rule="nonzero"></path>
            <path d="M266.454415,289.086211 C266.454415,281.643274 272.503783,275.586717 279.941763,275.586717 C283.311115,275.586717 286.193465,278.507043 288.565362,280.558434 C291.429524,283.035571 293.454415,285.014317 293.454415,289.086211 C293.454415,296.53016 287.391889,302.586717 279.941763,302.586717 C272.503783,302.586717 266.454415,296.53016 266.454415,289.086211 Z" id="Path" fill="#FFFFFF" transform="translate(279.954415, 289.086717) rotate(18.000000) translate(-279.954415, -289.086717) "></path>
            <circle id="Oval" fill="#010103" fill-rule="nonzero" cx="277" cy="287.946337" r="9"></circle>
            <g id="Group-2" transform="translate(175.434121, 157.000000) rotate(-211.000000) translate(-175.434121, -157.000000) translate(119.934121, 8.000000)" fill-rule="nonzero">
                <path d="M62.7319298,19.9255601 L68.6401687,61.883832 C69.6224748,68.8598308 71.8894565,75.5932909 75.3262157,81.7429389 L87.3835177,103.317963 C92.1328721,111.816335 94.6263981,121.389525 94.6263981,131.124959 L94.6263981,293.237088 C78.262594,296.349228 62.7473585,297.905299 48.0806919,297.905299 C33.4140252,297.905299 19.5959273,296.349228 6.62639814,293.237088 L6.62639814,129.035455 C6.62639814,120.634527 8.48337966,112.337458 12.0644501,104.738016 L23.3404995,80.8089477 C25.9529867,75.2649508 27.654269,69.3359075 28.3788188,63.250185 L33.4453704,20.6946176 C33.2562069,20.666069 33.0654407,20.6371105 32.8730718,20.6077421 C31.6282781,20.4177135 30.7732316,19.2545531 30.9632705,18.0097609 C30.9854696,17.864352 31.0216881,17.7214326 31.0714194,17.5830009 L32.1990828,14.4440481 C31.5248681,13.639732 31.6303361,12.4411461 32.4346522,11.7669314 C32.6898899,11.5529794 32.9968748,11.4098644 33.3248402,11.351895 C37.725253,10.574547 42.2059173,10.185873 46.7668333,10.185873 C51.4122135,10.185873 56.1408452,10.5890761 60.9527285,11.3954822 C61.9723057,11.566331 62.6603191,12.5313741 62.4894523,13.5509484 C62.4343062,13.8800094 62.2922086,14.18835 62.0778707,14.4440481 L63.2109804,17.5981613 C63.5097568,18.4297875 63.2957222,19.3208797 62.7319298,19.9255601 Z" id="Combined-Shape" stroke="#C8CDD0" stroke-width="5" fill="#C8CDD0"></path>
                <path d="M33.1731827,19.9694542 L28.0358564,63.3562046 C27.3185002,69.4145611 25.6332015,75.3184706 23.0442879,80.8425822 L11.7940732,104.847802 C8.24620189,112.418096 6.4070769,120.676171 6.4070769,129.036598 L6.4070769,293.301243 C19.3058426,296.413384 33.0485471,297.969454 47.6351904,297.969454 C54.576456,297.969454 78.8230338,290.704464 84.8261767,285.486011 C91.9575926,279.286766 91.9458125,251.874124 88.7694637,229.654791 C85.5931148,207.435458 97.0069287,178.653242 77.5169299,130.670003 C64.5235974,98.681177 59.4191713,61.780994 62.2036517,19.9694542 L33.1731827,19.9694542 Z" id="Path-9" fill="#EBF0F3"></path>
                <ellipse id="Oval" fill="#010103" cx="47.3851031" cy="12.6589515" rx="13.5" ry="1.5"></ellipse>
                <path d="M16.7682041,139.477185 L16.7682041,247.317873 C27.6250888,248.740376 38.5535312,249.451627 49.5535312,249.451627 C60.5535312,249.451627 71.6250888,248.740376 82.7682041,247.317873 L82.7682041,139.477185 C71.7682041,135.460147 60.7682041,133.451627 49.7682041,133.451627 C38.7682041,133.451627 27.7682041,135.460147 16.7682041,139.477185 Z" id="Path-10" fill="#FFE288"></path>
                <path d="M23.1455589,144.077767 L23.1455589,241.692183 C32.0284646,242.979793 40.9699174,243.623598 49.9699174,243.623598 C58.9699174,243.623598 68.0284646,242.979793 77.1455589,241.692183 L77.1455589,144.077767 C68.1455589,140.441654 59.1455589,138.623598 50.1455589,138.623598 C41.1455589,138.623598 32.1455589,140.441654 23.1455589,144.077767 Z" id="Path-10" stroke="#FFFFFF" stroke-width="2"></path>
                <path d="M32.2663043,25.5985463 C36.6710962,26.2511862 41.4332939,26.5775062 46.5528973,26.5775062 C51.6725008,26.5775062 57.14951,26.2511862 62.983925,25.5985463 L67.9870029,61.8865656 C61.46275,63.0278861 54.8672902,63.5985463 48.2006235,63.5985463 C41.5339568,63.5985463 34.7960833,63.0278861 27.9870029,61.8865656 L32.2663043,25.5985463 Z" id="Path-11" fill="#FFE288"></path>
                <path d="M10.7807733,188.633295 C29.7104087,180.750917 42.2009686,171.529465 48.2524533,160.968937 C54.3039379,150.40841 49.6736338,148.818557 34.3615409,156.199378 C47.9184775,136.737029 55.0582083,118.784005 55.7807331,102.340306 C56.6231422,83.1682015 55.5464103,64.4511701 52.695417,46.9664509 C45.7238799,54.5940255 39.0247465,60.4174933 33.4419565,66.7348382 C30.1062487,70.5094414 25.5366675,75.7428954 19.733213,82.4352003 L0.633395149,167.807111 L10.7807733,188.633295 Z" id="Path-2" fill-opacity="0.3" fill="#000000"></path>
                <path d="M19.8566921,188.633295 C63.5619606,163.35319 91.146592,145.432874 102.610586,134.872346 C119.806578,119.031556 103.051938,127.005854 105.105076,102.340306 C106.700944,83.1682015 89.6228838,4.42998826 46.1595518,0.488936091 C35.0355906,37.9192004 31.9211684,65.2346217 36.8162853,82.4352003 L0.633395149,167.807111 L19.8566921,188.633295 Z" id="Path-2" fill-opacity="0.3" fill="#000000" opacity="0.200000003"></path>
            </g>
            <path d="M111.083386,40.0803118 C130.689494,40.0803118 145.5,35.2971015 145.5,33.4410288 C145.5,31.584956 129.606109,30.0803118 110,30.0803118 C90.3938914,30.0803118 74.5,31.584956 74.5,33.4410288 C74.5,35.2971015 91.4772769,40.0803118 111.083386,40.0803118 Z" id="Oval" fill="#C8CDD0" fill-rule="nonzero" opacity="0.5" transform="translate(110.000000, 35.080312) rotate(-30.000000) translate(-110.000000, -35.080312) "></path>
            <path d="M209.594483,299.312786 L209.730151,299.26158 C209.730151,299.26158 225.711082,277.834275 255.196234,315.76461 C264.392004,310.190507 284.564211,306.128331 289.236207,313.815126 C290.308813,315.581377 289.664849,317.913348 287.99635,319.133904 C285.897959,320.667566 283.554602,322.586322 281.08187,324.74577 C281.079197,324.566735 281.075803,324.477203 281.075803,324.477203 C281.075803,324.477203 239.985445,355.261295 234.217585,369.655068 C228.445705,384.047839 231.158338,401.15479 229.689497,404.231796 L189.122577,364.108439 C181.359424,356.362803 173.233582,339.991528 180.745565,331.870036 L209.594483,299.312786 Z" id="Combined-Shape" fill="#D18D1E" transform="translate(233.762267, 348.731796) rotate(18.000000) translate(-233.762267, -348.731796) "></path>
            <g id="Group-3" transform="translate(247.500000, 288.946337) rotate(-6.000000) translate(-247.500000, -288.946337) translate(238.000000, 273.946337)" fill="#FFFFFF" fill-rule="nonzero" opacity="0.900000036">
                <path d="M5.26003903,1.00167668 C4.49623855,19.5029842 5.48645015,28.7536379 8.23067385,28.7536379 C12.3685299,28.7536379 17.1260491,21.9034437 12.0051274,8.2030552 C10.7261126,4.78121023 8.47774978,2.38075072 5.26003903,1.00167668 Z" id="Path-14" transform="translate(9.621484, 14.877657) rotate(18.000000) translate(-9.621484, -14.877657) "></path>
                <path d="M7.44408807,12.9892237 C7.29372046,13.6342604 7.29372046,14.7029539 7.44408807,16.1953042 C8.03479863,22.0579172 6.94771876,24.9892237 8.73110126,24.9892237 C10.5238074,24.9892237 12.5849796,22.0271869 10.366365,16.1031132 C9.81223803,14.6235011 8.83814571,13.5855379 7.44408807,12.9892237 Z" id="Path-14" transform="translate(9.331312, 18.989224) rotate(18.000000) translate(-9.331312, -18.989224) "></path>
            </g>
            <g id="Group" transform="translate(236.493881, 312.818173) rotate(18.000000) translate(-236.493881, -312.818173) translate(224.993881, 306.318173)">
                <path d="M21.7516105,12.2656875 C19.0367546,15.5658925 4.59463605,6.82901754 0.310114358,4.12469727 C-0.170030416,3.82260238 -0.0726097374,3.08449424 0.464198085,2.9163177 C3.91567356,1.82836083 13.0384243,-0.825091222 16.8109904,0.252484377 C21.5229701,1.58855354 24.9535698,8.38413145 21.7516105,12.2656875" id="Fill-34" fill="#854205"></path>
                <path d="M19.164673,9.46138549 C17.023213,12.1296769 4,4.05342434 4,3.34174001 C4,2.63005568 12.7069705,0.290314724 15.8539857,1.21193543 C19.0098215,2.12725805 21.3080932,6.79729282 19.164673,9.46138549" id="Fill-35" fill="#010103"></path>
            </g>
            <path d="M290.235497,322.195193 C290.235497,322.195193 286.747888,325.546173 251.324819,353.126024 C245.099312,357.972393 239.668678,373.195193 239.668678,373.195193 L292.080166,327.553586 C292.395305,327.279713 292.600045,326.91554 292.642198,326.502746 C292.823855,324.717607 292.076151,323.197411 290.235497,322.195193" id="Fill-38" fill="#854605" transform="translate(266.168678, 347.695193) rotate(18.000000) translate(-266.168678, -347.695193) "></path>
            <path d="M212.9155,236.029415 C233.592379,232.902668 245.146363,217.999806 247.577455,191.320827 C232.263657,199.162238 224.260837,202.798711 223.568997,202.230248 C222.405284,201.274063 247.769274,174.093458 250.905449,169.120733 C260.846803,153.388367 247.015348,89.6779347 247.015348,89.6779347 C219.335368,114.912214 201.473382,136.776068 193.429391,155.269496 C181.109105,183.59428 213.811281,237.22482 212.9155,236.029415 Z" id="Fill-36" fill="#010103" transform="translate(222.575764, 162.863501) scale(-1, -1) rotate(-24.000000) translate(-222.575764, -162.863501) "></path>
            <path d="M342.899155,206.595486 L351.096408,215.88369 L346.547875,201.061279 C349.280823,197.379575 352.662193,193.630926 356.691985,189.81533 C366.946232,193.07362 369.443887,204.343297 364.18495,223.624363 C362.304038,230.520434 356.361133,242.584089 346.356237,259.81533 C339.541408,242.246137 336.825776,228.776372 338.209339,219.406036 C338.825407,215.233646 340.388679,210.963463 342.899155,206.595486 Z" id="Combined-Shape" fill="#010103" fill-rule="nonzero" transform="translate(352.359103, 224.815330) rotate(18.000000) translate(-352.359103, -224.815330) "></path>
            <path d="M354.852589,274.096961 C350.622696,263.304457 348.937131,255.030173 349.795894,249.274109 C350.654658,243.518045 354.478653,237.458996 361.267881,231.096961 C367.632586,233.098482 369.182855,240.021284 365.918687,251.865367 C364.751224,256.101525 361.062525,263.512056 354.852589,274.096961 Z" id="Path-13" fill="#010103" fill-rule="nonzero" transform="translate(358.578506, 252.596961) rotate(-282.000000) translate(-358.578506, -252.596961) "></path>
            <path d="M282,336.445936 C290.720539,342.047732 296.044908,346.517622 297.973105,349.855608 C298.787719,351.26582 301.765351,355.204717 301.403381,349.674535 C300.979707,343.201634 299.267167,334.238115 295.991211,333.362669 C291.941345,332.280408 287.277608,333.308163 282,336.445936 Z" id="Path-18" fill="#C1000C" fill-rule="nonzero"></path>
            <path d="M282,336.445936 C286.657227,337.554602 290.023682,337.928515 292.099365,337.567675 C295.212891,337.026415 298.517932,335.873221 297.894529,334.950323 C297.330903,334.115919 296.69738,333.551381 295.991211,333.362669 C291.941345,332.280408 287.277608,333.308163 282,336.445936 Z" id="Path-18" fill="#A8000A" fill-rule="nonzero"></path>
            <path d="M292.586019,318.023716 C289.060629,324.460565 285.22876,328.104771 281.090414,328.956334 C274.882894,330.233677 275.56893,334.9744 271.56893,338.468541 C267.56893,341.962681 265.817465,340.586705 263.419027,342.300572 C261.02059,344.014439 258.997549,347.528599 256.155355,350.637974 C253.313162,353.747349 248.974691,354.08231 247.217005,357.103926 C245.459318,360.125542 247.217005,361.841354 242.929488,366.209263 C240.071144,369.121203 238.623321,372.95714 238.586019,377.717076" id="Path-16" stroke="#010103" stroke-width="3" fill-rule="nonzero" transform="translate(265.586019, 347.870396) rotate(18.000000) translate(-265.586019, -347.870396) "></path>
            <g id="Group-5" opacity="0.800000012" transform="translate(285.624410, 194.355870)" fill="#D7E3EF" fill-rule="nonzero">
                <circle id="Oval" transform="translate(13.000000, 13.000000) rotate(18.000000) translate(-13.000000, -13.000000) " cx="13" cy="13" r="10"></circle>
                <circle id="Oval" transform="translate(34.589288, 24.220634) rotate(18.000000) translate(-34.589288, -24.220634) " cx="34.5892884" cy="24.2206339" r="6"></circle>
                <circle id="Oval" transform="translate(21.478544, 46.772982) rotate(18.000000) translate(-21.478544, -46.772982) " cx="21.4785442" cy="46.7729816" r="8.5"></circle>
            </g>
            <g id="strothmann" transform="translate(158.174008, 118.610817) rotate(-212.000000) translate(-158.174008, -118.610817) translate(128.174008, 89.610817)">
                <rect id="Rectangle" fill="#FFFFFF" fill-rule="nonzero" x="3" y="30.9191176" width="54" height="6.39705882"></rect>
                <g id="Group-4" stroke-width="1" fill-rule="evenodd" transform="translate(15.000000, 0.000000)" stroke="#CCBC70">
                    <path d="M1.015625,17.0082721 L1.015625,50.0611396 C1.015625,50.1226102 1.05166728,50.1783693 1.10771684,50.2036099 L15,56.4596735 L28.8922832,50.2036099 C28.9483327,50.1783693 28.984375,50.1226102 28.984375,50.0611396 L28.984375,17.0082721 L1.015625,17.0082721 Z" id="Path-17" stroke-width="2.03125" fill-opacity="0.2" fill="#FFFFFF" fill-rule="nonzero"></path>
                    <g id="Group-3" transform="translate(14.656250, 0.000000)" fill-rule="nonzero">
                        <polyline id="Path-18" stroke-width="0.78125" points="0.5 0 0.5 34.3574003 0.5 49.0441176"></polyline>
                        <path d="M0.5,0 L0.5,8.27038491" id="Path-19" stroke-width="2.5"></path>
                    </g>
                    <g id="Group-2" transform="translate(18.000000, 0.000000)" fill-rule="nonzero">
                        <polyline id="Shape" stroke-width="0.78125" points="1 0 0 34.3574003 1 49.0441176"></polyline>
                        <path d="M1,0 L0.7,8.27038491" id="Path-2" stroke-width="2.5"></path>
                    </g>
                    <g id="Group" transform="translate(21.000000, 0.000000)" fill-rule="nonzero">
                        <polyline id="Shape" stroke-width="0.78125" points="2 0 0 34.3574003 2 49.0441176"></polyline>
                        <path d="M2,0 L1.51856748,8.27038491" id="Shape" stroke-width="2.5"></path>
                    </g>
                    <g id="Group-5" transform="translate(24.000000, 0.000000)" fill-rule="nonzero">
                        <path d="M4,0 L3,8.27038491" id="Shape" stroke-width="2.5"></path>
                        <polyline id="Path-18" stroke-width="0.78125" points="4 0 -2.77555756e-17 34.3574003 4 49.0441176"></polyline>
                    </g>
                    <g id="Group-6" transform="translate(7.000000, 24.522059) scale(-1, 1) translate(-7.000000, -24.522059) translate(2.000000, 0.000000)" fill-rule="nonzero">
                        <g id="Group-2">
                            <polyline id="Shape" stroke-width="0.78125" points="1 0 0 34.3574003 1 49.0441176"></polyline>
                            <path d="M1,0 L0.7,8.27038491" id="Path-2" stroke-width="2.5"></path>
                        </g>
                        <g id="Group" transform="translate(3.000000, 0.000000)">
                            <polyline id="Shape" stroke-width="0.78125" points="2 0 0 34.3574003 2 49.0441176"></polyline>
                            <path d="M2,0 L1.51856748,8.27038491" id="Shape" stroke-width="2.5"></path>
                        </g>
                        <g id="Group-5" transform="translate(6.000000, 0.000000)">
                            <path d="M4,0 L3,8.27038491" id="Shape" stroke-width="2.5"></path>
                            <polyline id="Path-18" stroke-width="0.78125" points="4 0 -2.77555756e-17 34.3574003 4 49.0441176"></polyline>
                        </g>
                    </g>
                </g>
            </g>
            <path d="M331.399707,692.012942 C331.399707,692.012942 318.990701,684.121662 310.014887,686.339343 C301.039073,688.557024 296.475793,695.555458 293.61064,703.135188 C290.745488,710.715913 298.657102,729.710526 302.94984,731.609689 C307.242577,733.508851 310.014887,727.427151 310.014887,711.977044 C310.014887,703.135188 333,702.718128 333,702.718128 L331.399707,692.012942 Z" id="Fill-7" fill="#CC7910"></path>
            <path d="M346.799561,692.012942 C346.799561,692.012942 360.75955,684.121662 370.858716,686.339343 C380.955862,688.557024 386.089816,695.555458 389.313062,703.135188 C392.536307,710.715913 383.635501,729.710526 378.806695,731.609689 C373.976878,733.508851 370.858716,727.427151 370.858716,711.977044 C370.858716,703.135188 345,702.718128 345,702.718128 L346.799561,692.012942 Z" id="Fill-11" fill="#CC7910"></path>
            <path d="M0,850.784662 C0,853.083616 1.86610213,854.946337 4.16799457,854.946337 L432.832005,854.946337 C435.133898,854.946337 437,853.083616 437,850.784662 L437,709.108013 C437,706.810057 435.133898,704.946337 432.832005,704.946337 L4.16799457,704.946337 C1.86610213,704.946337 0,706.810057 0,709.108013 L0,850.784662 Z" id="Fill-21" fill="#010103"></path>
            <path d="M381.457236,696.810983 C377.830785,693.297049 371.532426,694.910291 375.016862,700.299497 C378.502312,705.688703 379.720597,705.527379 385.991567,712.946337 C388.852152,707.951153 385.083686,700.325896 381.457236,696.810983" id="Fill-40" fill="#010103"></path>
            <path d="M315.525135,651.908447 C315.525135,651.908447 331.086266,688.232283 340,695.477274 C333.075133,702.721267 313.630409,703.94175 303.509678,698.8341 C305.058557,685.196058 301.777471,668.356995 299.294111,658.252559 C297.728386,651.882479 302.6188,645.378566 309.102687,645.985811 C312.044864,646.262467 314.60651,647.807546 315.525135,651.908447" id="Fill-41" fill="#CC7910"></path>
            <path d="M325.021525,692.012942 C325.021525,692.012942 338.909769,684.121662 348.957033,686.339343 C359.003292,688.557024 364.110861,695.555458 367.316536,703.135188 C370.523217,710.715913 361.669159,729.710526 356.864165,731.609689 C352.05917,733.508851 348.957033,727.427151 348.957033,711.977044 C348.957033,703.663728 318,704.747684 318,704.747684 L325.021525,692.012942 Z" id="Fill-42" fill="#CC7910"></path>
            <path d="M363,711.618217 C363,706.385342 356.352614,704.27287 354.808899,707.42614 C353.265184,710.578415 355.112236,716.409873 354,726.946337 C359.953615,725.260144 363,716.850096 363,711.618217" id="Fill-43" fill="#010103"></path>
            <path d="M367.606741,705.021583 C367.606741,705.021583 365.321365,695.359052 356,690.648657 C360.125488,689.733935 364.312012,691.40874 364.312012,691.40874 C377.009107,694.20152 380,706.946337 380,706.946337 L367.606741,705.021583 Z" id="Fill-44" fill="#010103" opacity="0.200000003"></path>
            <path d="M306,705.04429 L343,706.946337 C343,706.946337 316.822896,685.773688 306,705.04429" id="Fill-45" fill="#010103"></path>
            <g id="Group-51" opacity="0.300000012" transform="translate(296.000000, 648.946337)" fill="#010103">
                <path d="M0.417,8.709 C1.463,6.707 2.753,5.114 4.411,3.688 C6.041,2.283 8.021,1.142 10.221,0.581 C12.418,0.076 14.787,0.145 16.854,0.83 C17.945,1.051 18.859,1.615 19.853,2.012 C20.767,2.541 21.606,3.162 22.47,3.731 C23.154,4.184 23.344,5.105 22.892,5.788 C22.473,6.422 21.652,6.631 20.991,6.3 L20.808,6.208 C19.188,5.401 17.598,4.612 15.956,4.252 C14.32,3.786 12.678,3.92 11.14,4.294 C9.582,4.641 8.088,5.42 6.765,6.497 C5.483,7.573 4.208,8.947 3.287,10.273 L3.202,10.395 C2.688,11.135 1.672,11.317 0.932,10.804 C0.249,10.329 0.041,9.427 0.417,8.709" id="Fill-46"></path>
                <path d="M1.4775,15.4775 C2.7565,13.3845 4.2875,11.7695 6.1805,10.3685 C8.0425,8.9855 10.2235,7.8945 12.5915,7.3785 C14.9565,6.9275 17.4605,6.9975 19.7065,7.6635 C20.8785,7.8765 21.8935,8.4325 22.9805,8.8165 C23.9945,9.3375 24.9405,9.9545 25.9075,10.5185 C26.6095,10.9375 26.8395,11.8465 26.4195,12.5485 C26.0305,13.2035 25.2145,13.4485 24.5365,13.1395 L24.3625,13.0585 C22.5355,12.2485 20.7325,11.4645 18.8785,11.1005 C17.0305,10.6355 15.1705,10.7615 13.4065,11.1115 C11.6245,11.4405 9.9085,12.2125 8.3605,13.2905 C6.8545,14.3685 5.3555,15.7745 4.2595,17.1705 L4.1655,17.2925 C3.6195,18.0065 2.5995,18.1425 1.8855,17.5975 C1.2255,17.0905 1.0615,16.1755 1.4775,15.4775" id="Fill-47"></path>
                <path d="M2.5371,22.2471 C4.0511,20.0621 5.8221,18.4251 7.9501,17.0471 C10.0461,15.6871 12.4271,14.6481 14.9631,14.1771 C17.4951,13.7791 20.1361,13.8501 22.5581,14.4961 C23.8111,14.7031 24.9281,15.2491 26.1071,15.6221 C27.2221,16.1361 28.2731,16.7471 29.3461,17.3051 C30.0651,17.6911 30.3361,18.5891 29.9491,19.3091 C29.5871,19.9841 28.7761,20.2651 28.0821,19.9791 L27.9171,19.9091 C25.8821,19.0981 23.8671,18.3181 21.8021,17.9481 C19.7401,17.4851 17.6641,17.6041 15.6741,17.9291 C13.6671,18.2391 11.7281,19.0061 9.9551,20.0841 C8.2251,21.1631 6.5021,22.6021 5.2321,24.0681 L5.1281,24.1911 C4.5511,24.8781 3.5271,24.9681 2.8401,24.3921 C2.2011,23.8531 2.0831,22.9251 2.5371,22.2471" id="Fill-48"></path>
                <path d="M3.5967,29.0156 C5.3447,26.7406 7.3567,25.0796 9.7187,23.7256 C12.0477,22.3896 14.6307,21.4016 17.3327,20.9746 C20.0337,20.6306 22.8107,20.7026 25.4097,21.3286 C26.7437,21.5296 27.9627,22.0666 29.2347,22.4266 C30.4487,22.9326 31.6077,23.5386 32.7837,24.0906 C33.5217,24.4456 33.8327,25.3306 33.4777,26.0696 C33.1437,26.7646 32.3377,27.0816 31.6277,26.8196 L31.4707,26.7596 C29.2287,25.9466 27.0027,25.1706 24.7247,24.7966 C22.4507,24.3346 20.1587,24.4476 17.9407,24.7456 C15.7097,25.0386 13.5487,25.7986 11.5507,26.8776 C9.5967,27.9586 7.6497,29.4296 6.2047,30.9656 L6.0907,31.0896 C5.4837,31.7496 4.4547,31.7926 3.7937,31.1856 C3.1767,30.6166 3.1037,29.6736 3.5967,29.0156" id="Fill-49"></path>
                <path d="M4.6562,35.7852 C6.6382,33.4172 8.8912,31.7352 11.4882,30.4042 C14.0502,29.0922 16.8342,28.1552 19.7042,27.7722 C22.5722,27.4822 25.4852,27.5552 28.2612,28.1622 C29.6772,28.3542 30.9972,28.8832 32.3612,29.2322 C33.6762,29.7302 34.9412,30.3322 36.2202,30.8772 C36.9762,31.1992 37.3292,32.0732 37.0062,32.8292 C36.7012,33.5462 35.9002,33.8992 35.1732,33.6592 L35.0252,33.6102 C32.5752,32.7942 30.1372,32.0242 27.6462,31.6452 C25.1602,31.1842 22.6512,31.2892 20.2072,31.5632 C17.7522,31.8382 15.3692,32.5922 13.1462,33.6722 C10.9682,34.7542 8.7972,36.2572 7.1782,37.8632 L7.0522,37.9872 C6.4152,38.6222 5.3832,38.6182 4.7492,37.9792 C4.1522,37.3782 4.1252,36.4232 4.6562,35.7852" id="Fill-50"></path>
            </g>
            <path d="M362.714796,710.380512 C361.809181,705.610467 356.194362,703.636245 356.010394,709.865152 C355.825478,716.095051 358.175338,712.944423 357.696452,725.946337 C362.479621,723.356658 363.620412,715.149565 362.714796,710.380512" id="Fill-52" fill="#010103"></path>
            <path d="M301.000622,647.946337 C301.000622,647.946337 299.949094,649.135005 300.435768,654.91972 C300.923419,660.70544 307,686.732644 307,686.732644 L302.16258,688.946337 L296,654.91972 C296,654.91972 299.040245,648.616971 301.000622,647.946337" id="Fill-67" fill="#010103"></path>
            <path d="M78.86,737.846337 L116.26,737.846337 L116.26,749.286337 L95.03,749.286337 L95.03,774.916337 L111.75,774.916337 L111.75,786.246337 L95.03,786.246337 L95.03,815.836337 L116.48,815.836337 L116.48,826.946337 L78.86,826.946337 L78.86,737.846337 Z M125.94,737.846337 L147.39,737.846337 C156.776714,737.846337 163.779977,739.624653 168.4,743.181337 C173.020023,746.738022 175.33,752.842961 175.33,761.496337 C175.33,767.143032 174.505008,771.744653 172.855,775.301337 C171.204992,778.858022 168.363354,781.442996 164.33,783.056337 L176.76,826.946337 L160.48,826.946337 L149.81,786.136337 L142.11,786.136337 L142.11,826.946337 L125.94,826.946337 L125.94,737.846337 Z M147.28,776.016337 C151.900023,776.016337 155.181657,774.953015 157.125,772.826337 C159.068343,770.69966 160.04,767.216361 160.04,762.376337 C160.04,757.68298 159.178342,754.273015 157.455,752.146337 C155.731658,750.01966 152.633356,748.956337 148.16,748.956337 L142.11,748.956337 L142.11,776.016337 L147.28,776.016337 Z M187.65,737.846337 L209.1,737.846337 C218.486714,737.846337 225.489977,739.624653 230.11,743.181337 C234.730023,746.738022 237.04,752.842961 237.04,761.496337 C237.04,767.143032 236.215008,771.744653 234.565,775.301337 C232.914992,778.858022 230.073353,781.442996 226.04,783.056337 L238.47,826.946337 L222.19,826.946337 L211.52,786.136337 L203.82,786.136337 L203.82,826.946337 L187.65,826.946337 L187.65,737.846337 Z M208.99,776.016337 C213.610023,776.016337 216.891657,774.953015 218.835,772.826337 C220.778343,770.69966 221.75,767.216361 221.75,762.376337 C221.75,757.68298 220.888342,754.273015 219.165,752.146337 C217.441658,750.01966 214.343356,748.956337 209.87,748.956337 L203.82,748.956337 L203.82,776.016337 L208.99,776.016337 Z M273.23,828.156337 C263.989954,828.156337 257.39002,825.681362 253.43,820.731337 C249.46998,815.781312 247.49,808.539718 247.49,799.006337 L247.49,765.566337 C247.49,756.10629 249.46998,748.956361 253.43,744.116337 C257.39002,739.276313 263.989954,736.856337 273.23,736.856337 C282.396713,736.856337 288.95998,739.276313 292.92,744.116337 C296.88002,748.956361 298.86,756.10629 298.86,765.566337 L298.86,799.006337 C298.86,808.466385 296.861687,815.689646 292.865,820.676337 C288.868313,825.663029 282.323379,828.156337 273.23,828.156337 Z M273.23,816.166337 C276.823351,816.166337 279.243327,815.029682 280.49,812.756337 C281.736673,810.482993 282.36,807.183026 282.36,802.856337 L282.36,761.826337 C282.36,757.499649 281.755006,754.236348 280.545,752.036337 C279.334994,749.836326 276.896685,748.736337 273.23,748.736337 C269.563315,748.736337 267.106673,749.854659 265.86,752.091337 C264.613327,754.328015 263.99,757.572983 263.99,761.826337 L263.99,802.856337 C263.99,807.183026 264.613327,810.482993 265.86,812.756337 C267.106673,815.029682 269.563315,816.166337 273.23,816.166337 Z M310.85,737.846337 L332.3,737.846337 C341.686714,737.846337 348.689977,739.624653 353.31,743.181337 C357.930023,746.738022 360.24,752.842961 360.24,761.496337 C360.24,767.143032 359.415008,771.744653 357.765,775.301337 C356.114992,778.858022 353.273353,781.442996 349.24,783.056337 L361.67,826.946337 L345.39,826.946337 L334.72,786.136337 L327.02,786.136337 L327.02,826.946337 L310.85,826.946337 L310.85,737.846337 Z M332.19,776.016337 C336.810023,776.016337 340.091657,774.953015 342.035,772.826337 C343.978343,770.69966 344.95,767.216361 344.95,762.376337 C344.95,757.68298 344.088342,754.273015 342.365,752.146337 C340.641658,750.01966 337.543356,748.956337 333.07,748.956337 L327.02,748.956337 L327.02,776.016337 L332.19,776.016337 Z" id="ERROR" fill="#FFFFFF" fill-rule="nonzero"></path>
            <path d="M70.4600641,557.690468 L82.4952103,584.356824 L74.5912354,578.279525 C74.5054917,578.213597 74.3259093,578.078957 74.0605176,577.885489 C73.6094289,577.556649 73.0883497,577.188542 72.5053869,576.791069 C70.8352955,575.652375 69.0125637,574.512849 67.1039737,573.451856 C64.0077784,571.730669 60.9982869,570.391793 58.2209542,569.582676 C50.6251132,567.36979 46.1970318,569.209358 44.7267553,576.773324 C44.1973065,579.49712 43.7758398,582.131102 43.3781105,585.062419 C43.1892964,586.454004 42.6426964,590.817268 42.5357621,591.604601 C42.0370061,595.276827 41.596458,597.184435 40.7026838,598.644184 C39.278247,600.970633 36.8924673,601.511963 34.1798868,600.388047 C30.7370592,598.961814 26.2556875,593.088438 22.7744007,586.056093 C18.9602146,578.351278 17.2904703,571.252737 19.0699574,566.866262 C23.3849003,556.227513 30.7498181,548.459982 41.7722444,545.915254 C43.8170075,545.443183 45.9708111,545.375523 48.210745,545.670384 C52.8313402,546.278632 57.6361067,548.376447 62.4478926,551.48072 C64.4268219,552.757405 66.2743361,554.121915 67.9450671,555.487718 C68.9547448,556.313118 69.6891945,556.963138 70.1004481,557.351163 L70.4600641,557.690468 Z" id="Fill-9" stroke="#000000" stroke-width="5" fill="#CC7910" stroke-linejoin="round" transform="translate(48.485929, 573.225816) rotate(13.000000) translate(-48.485929, -573.225816) "></path>
            <path d="M29.1655076,571.87316 C32.6951033,568.18816 38.8620862,570.770037 35.4802796,576.655891 C32.0984167,582.540601 30.9060909,582.216576 24.8081253,590.152092 C21.9865068,584.015304 25.6359119,575.55816 29.1655076,571.87316" id="Fill-53" fill="#010103" transform="translate(30.131753, 580.157839) rotate(-26.000000) translate(-30.131753, -580.157839) "></path>
            <path d="M76.4579147,552.799763 C76.4579147,552.799763 66.8979542,548.477157 57.4803973,553.991827 C19.5374082,588.714647 59.0715319,615.489194 65.6181638,605.343808 C66.6197154,603.791692 70.3265228,586.593024 71.3008382,585.214078 C81.9183764,570.187104 89.3163157,578.459485 92.7804992,579.107937 C102.066135,580.846094 98.8861333,602.354669 103.596604,607.125552 C108.954466,612.552128 115.968129,604.519808 120.808535,595.787485 C126.547036,585.434956 125.03525,571.488821 125.03525,571.488821 C125.03525,571.488821 121.404666,559.508496 113.522678,556.653737 C117.310813,538.976616 122.832686,522.882251 114.937752,517.405551 C109.553303,513.669484 97.1363084,505.259087 94.0910627,516.690113 L76.4579147,552.799763 Z" id="Fill-1" fill="#010103" transform="translate(83.224860, 559.898878) rotate(61.000000) translate(-83.224860, -559.898878) "></path>
            <path d="M55.5268066,567.462916 C55.5268066,567.462916 67.9358116,559.571636 76.9116253,561.789317 C85.8884373,564.006998 90.4507184,571.005432 93.3158708,578.585162 C96.1810232,586.165887 88.2694089,605.1605 83.9776702,607.059663 C79.6849331,608.958825 76.9116253,602.877125 76.9116253,587.427018 C76.9116253,578.585162 53.9265142,578.168102 53.9265142,578.168102 L55.5268066,567.462916 Z" id="Fill-3" fill="#CC7910" transform="translate(73.926514, 584.396311) rotate(61.000000) translate(-73.926514, -584.396311) "></path>
            <path d="M105.362372,539.705056 C105.362372,539.705056 89.7998907,576.028892 80.8869414,583.273883 C87.8109771,590.517876 107.256151,591.738359 117.378106,586.63071 C115.8282,572.992667 119.110353,556.153604 121.592779,546.049168 C123.158541,539.679089 118.269004,533.175176 111.784968,533.782421 C108.841732,534.059077 106.280027,535.604155 105.362372,539.705056" id="Fill-54" fill="#CC7910" transform="translate(101.386941, 561.742946) rotate(61.000000) translate(-101.386941, -561.742946) "></path>
            <path d="M77.2400714,541.224325 C77.2400714,541.224325 63.3898055,533.333045 53.3717438,535.550726 C43.3536822,537.768406 38.2614516,544.766841 35.0637713,552.346571 C31.866091,559.927296 40.6952972,578.921909 45.4868056,580.821072 C50.2773115,582.720234 53.3717438,576.638534 53.3717438,561.188427 C53.3717438,552.346571 84.3822256,553.977979 84.3822256,553.977979 L77.2400714,541.224325 Z" id="Fill-55" fill="#CC7910" transform="translate(59.382226, 558.157720) rotate(61.000000) translate(-59.382226, -558.157720) "></path>
            <path d="M51.3913314,542.364394 C52.6755558,534.456806 57.0497324,528.785899 64.513861,525.351673 C60.8326448,523.347304 59.2593245,524.044828 59.2593245,524.044828 C49.6871606,529.919698 45.8247692,538.262747 47.6721504,549.073974 L51.3913314,542.364394 Z" id="Fill-57" fill="#010103" transform="translate(55.868863, 536.500666) rotate(61.000000) translate(-55.868863, -536.500666) "></path>
            <path d="M93.7159463,574.396718 L55.7159463,576.381827 C55.7159463,576.381827 83.0876356,555.270158 93.7159463,574.396718" id="Fill-58" fill="#010103" transform="translate(74.715946, 571.381827) rotate(61.000000) translate(-74.715946, -571.381827) "></path>
            <path d="M43.9331656,577.250956 C49.2342369,567.937267 69.9936223,553.206255 80.6219331,572.332815 C70.5432349,570.300466 65.0574538,569.914449 64.1645899,571.174763 C52.8263761,587.179128 43.9331656,577.250956 43.9331656,577.250956 Z" id="Fill-58" fill="#010103" opacity="0.5" transform="translate(62.277549, 571.650709) rotate(61.000000) translate(-62.277549, -571.650709) "></path>
            <g id="Group-64" opacity="0.300000012" transform="translate(108.378993, 563.012282) rotate(61.000000) translate(-108.378993, -563.012282) translate(89.378993, 543.512282)" fill="#010103">
                <path d="M34.4766,10.2734 C33.5556,8.9474 32.2806,7.5734 30.9986,6.4974 C29.6756,5.4194 28.1816,4.6404 26.6236,4.2944 C25.0856,3.9194 23.4426,3.7864 21.8076,4.2524 C20.1656,4.6124 18.5756,5.4014 16.9556,6.2084 L16.7736,6.2984 C16.0396,6.6654 15.1476,6.3664 14.7826,5.6324 C14.4436,4.9534 14.6746,4.1384 15.2936,3.7314 C16.1566,3.1624 16.9966,2.5414 17.9106,2.0114 C18.9036,1.6154 19.8176,1.0504 20.9096,0.8304 C22.9766,0.1444 25.3456,0.0764 27.5426,0.5814 C29.7436,1.1414 31.7226,2.2834 33.3516,3.6884 C35.0116,5.1144 36.3006,6.7074 37.3466,8.7094 C37.7636,9.5074 37.4546,10.4934 36.6556,10.9104 C35.9186,11.2944 35.0236,11.0604 34.5606,10.3954 L34.4766,10.2734 Z" id="Fill-59"></path>
                <path d="M33.5039,17.1709 C32.4079,15.7749 30.9089,14.3679 29.4029,13.2909 C27.8549,12.2129 26.1389,11.4409 24.3569,11.1109 C22.5919,10.7619 20.7329,10.6359 18.8839,11.1009 C17.0309,11.4649 15.2289,12.2489 13.4009,13.0589 L13.2289,13.1389 C12.4839,13.4789 11.6049,13.1499 11.2659,12.4029 C10.9499,11.7089 11.2139,10.8969 11.8559,10.5189 C12.8209,9.9499 13.7699,9.3379 14.7829,8.8169 C15.8699,8.4329 16.8849,7.8769 18.0579,7.6629 C20.3019,6.9969 22.8069,6.9279 25.1719,7.3789 C27.5399,7.8949 29.7199,8.9849 31.5829,10.3679 C33.4769,11.7699 35.0069,13.3849 36.2869,15.4779 C36.7439,16.2489 36.4889,17.2449 35.7179,17.7019 C35.0029,18.1269 34.0939,17.9399 33.5999,17.2949 L33.5039,17.1709 Z" id="Fill-60"></path>
                <path d="M32.5308,24.0684 C31.2608,22.6024 29.5378,21.1634 27.8078,20.0844 C26.0348,19.0064 24.0958,18.2394 22.0898,17.9284 C20.0988,17.6044 18.0228,17.4854 15.9618,17.9484 C13.8958,18.3184 11.8818,19.0974 9.8468,19.9094 L9.6848,19.9784 C8.9278,20.2914 8.0608,19.9314 7.7488,19.1744 C7.4558,18.4644 7.7548,17.6554 8.4188,17.3044 C9.4868,16.7404 10.5418,16.1354 11.6558,15.6224 C12.8358,15.2494 13.9518,14.7034 15.2058,14.4964 C17.6278,13.8494 20.2678,13.7794 22.8008,14.1764 C25.3368,14.6484 27.7178,15.6874 29.8138,17.0474 C31.9418,18.4244 33.7128,20.0624 35.2268,22.2474 C35.7248,22.9914 35.5238,23.9984 34.7798,24.4954 C34.0868,24.9604 33.1648,24.8184 32.6378,24.1944 L32.5308,24.0684 Z" id="Fill-61"></path>
                <path d="M31.5581,30.9658 C30.1141,29.4298 28.1671,27.9588 26.2131,26.8778 C24.2151,25.7988 22.0541,25.0388 19.8231,24.7458 C17.6061,24.4468 15.3131,24.3348 13.0391,24.7968 C10.7611,25.1708 8.5351,25.9458 6.2921,26.7598 L6.1401,26.8188 C5.3721,27.1048 4.5171,26.7138 4.2311,25.9448 C3.9621,25.2218 4.2971,24.4158 4.9801,24.0908 C6.1531,23.5338 7.3151,22.9328 8.5291,22.4268 C9.8011,22.0668 11.0191,21.5288 12.3531,21.3288 C14.9531,20.7018 17.7291,20.6308 20.4301,20.9748 C23.1331,21.4018 25.7161,22.3898 28.0441,23.7258 C30.4071,25.0798 32.4191,26.7398 34.1671,29.0158 C34.7051,29.7338 34.5591,30.7498 33.8421,31.2878 C33.1711,31.7918 32.2351,31.6968 31.6771,31.0938 L31.5581,30.9658 Z" id="Fill-62"></path>
                <path d="M30.5854,37.8633 C28.9664,36.2573 26.7954,34.7543 24.6174,33.6723 C22.3944,32.5923 20.0114,31.8383 17.5564,31.5633 C15.1124,31.2893 12.6034,31.1843 10.1164,31.6453 C7.6264,32.0243 5.1884,32.7943 2.7374,33.6103 L2.5954,33.6573 C1.8164,33.9173 0.9744,33.4963 0.7144,32.7173 C0.4684,31.9773 0.8394,31.1793 1.5434,30.8773 C2.8224,30.3323 4.0874,29.7303 5.4014,29.2323 C6.7664,28.8833 8.0854,28.3543 9.5024,28.1623 C12.2784,27.5543 15.1904,27.4823 18.0594,27.7723 C20.9294,28.1553 23.7134,29.0923 26.2754,30.4043 C28.8724,31.7353 31.1254,33.4173 33.1074,35.7853 C33.6854,36.4743 33.5944,37.5033 32.9034,38.0803 C32.2544,38.6243 31.3064,38.5763 30.7154,37.9933 L30.5854,37.8633 Z" id="Fill-63"></path>
            </g>
            <path d="M41.500992,538.784098 C42.1643584,532.976293 48.5613431,530.087295 49.2936018,537.544082 C50.0247492,544.999676 45.6578654,544.595479 48.6024563,559.072662 C42.7977232,556.409013 40.8376257,544.59071 41.500992,538.784098" id="Fill-65" fill="#010103" transform="translate(45.377553, 546.072662) rotate(61.000000) translate(-45.377553, -546.072662) "></path>
            <path d="M114.453682,552.570409 C114.453682,552.570409 115.50521,553.759076 115.018536,559.543792 C114.530885,565.329512 108.454304,591.356716 108.454304,591.356716 L113.290746,593.570409 L119.454304,559.543792 C119.454304,559.543792 116.414059,553.241042 114.453682,552.570409" id="Fill-66" fill="#010103" opacity="0.400000006" transform="translate(113.954304, 573.070409) rotate(61.000000) translate(-113.954304, -573.070409) "></path>
            <path d="M44.4199219,704.946337 C44.0641368,725.386441 47.3833473,735.606493 54.3775534,735.606493 C64.8688626,735.606493 61.8349763,768.403368 75.9589924,768.403368 C90.0830084,768.403368 92.9216967,719.85454 107.300428,719.85454 C131.100143,719.85454 143.604963,714.885139 144.81489,704.946337 C144.81489,702.946337 128.082396,701.946337 94.6174061,701.946337 C61.1524166,701.946337 44.4199219,702.946337 44.4199219,704.946337 Z" id="Path-19" fill="#CC7910" fill-rule="nonzero"></path>
            <path d="M144.81489,704.946337 L44.4199219,704.946337 C44.4199219,702.946337 61.1524166,701.946337 94.6174061,701.946337 C128.082396,701.946337 144.81489,702.946337 144.81489,704.946337 Z" id="Combined-Shape" fill="#8F550C" fill-rule="nonzero" opacity="0.300000012"></path>
            <path d="M71.9389437,765.563657 C79.8444652,762.152513 67.5780929,761.946854 67.870801,752.191693 C67.9281038,750.281948 67.6558606,745.605185 67.0540714,738.161402 C66.7766132,738.078796 66.4046845,742.587035 65.9382851,751.686119 C65.238686,765.334746 71.3708255,765.808793 71.9389437,765.563657 Z" id="Oval" fill="#A3600D" fill-rule="nonzero" transform="translate(70.240584, 751.881831) rotate(-19.000000) translate(-70.240584, -751.881831) "></path>
            <g id="Group-4" transform="translate(22.333380, 658.339051)" fill-rule="nonzero">
                <path d="M45.1666198,28.6072859 C46.5473317,28.6072859 47.6666198,20.4423423 47.6666198,19.0778741 C47.6666198,17.7134059 46.5473317,16.6072859 45.1666198,16.6072859 C43.7859079,16.6072859 42.6666198,17.7134059 42.6666198,19.0778741 C42.6666198,20.4423423 43.7859079,28.6072859 45.1666198,28.6072859 Z" id="Oval" fill="#D8D8D8" transform="translate(45.166620, 22.607286) rotate(44.000000) translate(-45.166620, -22.607286) "></path>
                <path d="M38.0996325,28.4912605 C39.7564867,28.4912605 41.0996325,18.965493 41.0996325,17.3736134 C41.0996325,15.7817339 39.7564867,14.4912605 38.0996325,14.4912605 C36.4427782,14.4912605 35.0996325,15.7817339 35.0996325,17.3736134 C35.0996325,18.965493 36.4427782,28.4912605 38.0996325,28.4912605 Z" id="Oval" fill="#D8D8D8" transform="translate(38.099632, 21.491260) rotate(-30.000000) translate(-38.099632, -21.491260) "></path>
                <circle id="Oval" fill="#010103" cx="41.6666198" cy="27.6072859" r="3"></circle>
                <path d="M39.427362,31.9712996 C40.0940286,31.4929488 40.427362,30.8262821 40.427362,29.9712996" id="Path-20" stroke="#010103" stroke-linecap="round"></path>
                <path d="M41.6840695,32.6069813 C42.3507362,31.8894552 42.6840695,30.8894552 42.6840695,29.6069813" id="Path-20" stroke="#010103" stroke-linecap="round" transform="translate(42.184070, 31.106981) rotate(-2.000000) translate(-42.184070, -31.106981) "></path>
                <path d="M30.7059807,27.6072859 C2.13133681,21.6226513 -6.4998729,13.459826 4.81235157,3.11880996 C21.7806883,-12.3927141 93.5064635,36.8370468 134.389276,1.70257386" id="Path-21" stroke="#999999" opacity="0.300000012"></path>
            </g>
        </g>
        <g id="Group-4" transform="translate(385.000000, 722.000000) scale(-1, 1) rotate(15.000000) translate(-385.000000, -722.000000) translate(375.000000, 712.000000)" fill-rule="nonzero">
            <path d="M13.1666198,15.6072859 C14.5473317,15.6072859 15.6666198,7.44234233 15.6666198,6.07787412 C15.6666198,4.71340592 14.5473317,3.60728589 13.1666198,3.60728589 C11.7859079,3.60728589 10.6666198,4.71340592 10.6666198,6.07787412 C10.6666198,7.44234233 11.7859079,15.6072859 13.1666198,15.6072859 Z" id="Oval" fill="#D8D8D8" transform="translate(13.166620, 9.607286) rotate(44.000000) translate(-13.166620, -9.607286) "></path>
            <path d="M6.09963248,15.4912605 C7.75648673,15.4912605 9.09963248,5.965493 9.09963248,4.37361343 C9.09963248,2.78173385 7.75648673,1.49126048 6.09963248,1.49126048 C4.44277823,1.49126048 3.09963248,2.78173385 3.09963248,4.37361343 C3.09963248,5.965493 4.44277823,15.4912605 6.09963248,15.4912605 Z" id="Oval" fill="#D8D8D8" transform="translate(6.099632, 8.491260) rotate(-30.000000) translate(-6.099632, -8.491260) "></path>
            <circle id="Oval" fill="#010103" cx="9.66661978" cy="14.6072859" r="3"></circle>
            <path d="M7.42736197,18.9712996 C8.09402864,18.4929488 8.42736197,17.8262821 8.42736197,16.9712996" id="Path-20" stroke="#010103" stroke-linecap="round"></path>
            <path d="M9.68406953,19.6069813 C10.3507362,18.8894552 10.6840695,17.8894552 10.6840695,16.6069813" id="Path-20" stroke="#010103" stroke-linecap="round" transform="translate(10.184070, 18.106981) rotate(-2.000000) translate(-10.184070, -18.106981) "></path>
        </g>
    </g>
</svg>