<svg width="16" height="16" viewBox="0 0 16 16" fill="none" xmlns="http://www.w3.org/2000/svg">
<path d="M8 15.75C12.2802 15.75 15.75 12.2802 15.75 8C15.75 3.71979 12.2802 0.25 8 0.25C3.71979 0.25 0.25 3.71979 0.25 8C0.25 12.2802 3.71979 15.75 8 15.75Z" fill="black"/>
<path d="M8 15.0904C11.9159 15.0904 15.0904 11.9159 15.0904 7.99997C15.0904 4.08404 11.9159 0.909546 8 0.909546C4.08407 0.909546 0.909576 4.08404 0.909576 7.99997C0.909576 11.9159 4.08407 15.0904 8 15.0904Z" fill="black"/>
<path d="M12.5772 6.72746L13.737 5.44053C14.0253 5.93848 14.5384 7.74731 14.9112 9.59122C14.1934 12.7216 11.4035 15.0614 8.06219 15.0902L8.26372 13.7736C8.26372 13.7736 7.86649 13.7895 7.42958 14.1549C7.51697 13.6942 8.66089 12.6297 8.66089 12.6297C8.66089 12.6297 8.87537 11.4937 8.93099 10.8026C8.98305 10.1551 8.90967 9.01942 8.9002 8.87874C8.84771 9.01369 7.44743 9.69862 6.22212 9.34097C4.6572 8.8802 3.21938 7.21202 3.21143 6.63209C3.1876 4.39195 9.3679 0.960223 9.77305 1.29386C10.5595 1.93731 11.5365 3.97887 12.5772 6.72746Z" fill="black"/>
<path d="M12.7996 3.57373L14.3486 5.81391C14.6464 6.56753 14.8885 7.33858 15.0893 8.12575C15.0901 8.08392 15.0904 8.04201 15.0904 8.00001C15.0904 7.02426 14.8933 6.09454 14.5368 5.24849C13.9345 4.60643 13.3477 4.00052 12.7996 3.57373Z" fill="black"/>
<path d="M6.88944 7.02129C6.30951 7.02129 5.83292 6.5447 5.83292 5.96476C5.83292 5.38489 6.30951 4.90826 6.88944 4.90826C7.47729 4.90826 7.95389 5.38489 7.95389 5.96476C7.95389 6.5447 7.47729 7.02129 6.88944 7.02129ZM6.88944 5.29751C6.52404 5.29751 6.23009 5.59143 6.23009 5.95685C6.23009 6.32225 6.52404 6.6162 6.88944 6.6162C7.25485 6.6162 7.55671 6.32225 7.55671 5.95685C7.55671 5.59938 7.25485 5.29751 6.88944 5.29751Z" fill="black"/>
<path d="M4.37918 6.33021C6.36514 5.28957 8.23196 5.71059 9.46322 6.74327C10.5587 7.67239 13.2026 6.24137 14.5882 5.37379C13.5446 2.75797 10.9881 0.909546 8.00001 0.909546C6.10778 0.909546 4.38866 1.65078 3.11719 2.85872C2.77304 4.39938 3.24321 5.73443 3.24321 5.73443C3.24321 5.73443 2.07547 7.53767 4.37918 6.33021Z" fill="black"/>
<path d="M9.81282 3.99471C5.76144 5.22601 5.6423 3.94705 3.33065 5.99658C2.97317 6.31433 2.77458 6.02038 2.66337 5.47226C2.29795 3.66901 3.64045 1.96109 5.47547 1.78633L10.3844 1.32043C10.8997 1.50439 11.3874 1.74627 11.8398 2.03825C11.3798 2.77696 10.6441 3.73966 9.81282 3.99471Z" fill="black"/>
<path d="M13.9514 4.53493L13.9594 4.52699C14.0278 4.49704 14.0755 4.44176 14.0963 4.37726C13.7575 3.80837 13.3414 3.29092 12.8623 2.83942L11.4014 3.24008C11.3061 3.26391 11.2426 3.36718 11.2664 3.46251V3.47046L11.6477 5.13072C11.6477 5.13866 11.6557 5.15455 11.6557 5.16249C11.7033 5.28165 11.8304 5.3452 11.9496 5.29754H11.9575L13.9355 4.54287L13.9514 4.53493Z" fill="black"/>
<path d="M11.6001 4.02655L11.4491 3.43077L13.0087 2.98138C13.1506 3.12298 13.2865 3.27056 13.4161 3.4237L11.6001 4.02655Z" fill="black"/>
<path d="M13.6972 3.82789L11.751 4.60639L11.6001 4.02649L13.416 3.42365C13.5032 3.52669 13.5875 3.63226 13.6687 3.74023L13.6972 3.82789Z" fill="black"/>
<path d="M11.751 4.60638L13.6972 3.82788L13.8402 4.28862L11.8781 5.07506L11.751 4.60638Z" fill="black"/>
<path d="M2.99693 7.5456L1.52732 8.10168L0.946167 8.72487C1.21166 11.3394 2.89762 13.534 5.22016 14.5248L5.99968 12.2484C5.99968 12.2484 8.06508 9.96053 9.20901 9.12644C9.33609 9.03113 9.39171 8.84843 9.30432 8.70541C8.931 8.09376 7.33427 8.41151 6.60341 8.85634C4.26795 5.84566 2.99693 7.5456 2.99693 7.5456Z" fill="black"/>
<path d="M5.04644 9.14234C4.83196 9.39656 3.67216 8.72929 3.33058 8.52273C3.29086 8.49888 3.2988 8.44331 3.34646 8.42742C3.6245 8.34794 4.34738 8.14144 4.64925 8.22087C5.03055 8.33206 5.30064 8.84845 5.04644 9.14234Z" fill="black"/>
<path d="M4.81613 8.94372C4.64137 9.1423 3.58484 8.53061 3.58484 8.48296C3.58484 8.42739 4.29184 8.2526 4.54604 8.32411C4.80819 8.38765 4.99089 8.73717 4.81613 8.94372Z" fill="black"/>
<path fill-rule="evenodd" clip-rule="evenodd" d="M8.23195 12.3993C8.6609 10.5166 8.62116 9.5713 8.62116 9.5713C8.62116 9.5713 5.37216 12.01 4.91936 13.1539C4.77674 13.5143 4.70032 13.8951 4.65882 14.2554C5.17345 14.5309 5.72603 14.7447 6.30669 14.8869C6.76236 13.9834 7.39889 13.0226 8.23195 12.3993ZM6.95852 15.0144C7.14646 15.0421 7.33681 15.0624 7.52925 15.075C7.53088 15.0686 7.5325 15.0621 7.53412 15.0557C7.53546 15.0504 7.5368 15.045 7.53814 15.0397C7.53921 15.0355 7.54028 15.0312 7.54135 15.027C7.54283 15.0211 7.54431 15.0153 7.54579 15.0094L7.54602 15.0085C7.58372 14.859 7.62042 14.7135 7.65202 14.568C7.5068 14.6847 7.3075 14.8045 7.08666 14.9372L7.08646 14.9373C7.08641 14.9374 7.08636 14.9374 7.08631 14.9374C7.04441 14.9626 7.00174 14.9883 6.95852 15.0144ZM3.73261 6.8361L2.7691 6.73737C2.85118 6.81468 2.98946 6.89746 3.05257 6.91008C3.17172 6.94185 3.26705 6.93393 3.35443 6.92596C3.48867 6.90768 3.61353 6.87533 3.73261 6.8361Z" fill="black"/>
<path d="M4.68105 6.42551C4.94319 6.29843 5.22123 6.21104 5.49926 6.13162C5.77729 6.06011 6.06327 6.01245 6.34925 5.99657C6.63523 5.97271 6.92121 5.99657 7.20719 6.02834C7.77118 6.11573 8.31138 6.31432 8.78803 6.6241C8.80685 6.63666 8.82528 6.64882 8.84343 6.6608C8.94017 6.72465 9.02924 6.78344 9.12958 6.8704L9.30436 7.01336C9.3647 7.06701 9.4364 7.10937 9.50506 7.14995C9.51772 7.15743 9.53027 7.16484 9.54264 7.17226C9.88424 7.34699 10.2496 7.38673 10.5833 7.37085C11.2585 7.33908 11.8622 7.14049 12.4501 6.91008C12.786 6.77664 13.8362 6.10479 14.6606 5.56305C14.593 5.37834 14.5179 5.19723 14.4357 5.02008C14.212 5.16935 13.9824 5.31213 13.7529 5.44844C13.2445 5.75033 12.7202 6.03631 12.188 6.26666C11.6557 6.49702 11.0917 6.69561 10.5515 6.73535C10.2814 6.75123 10.0273 6.72738 9.8207 6.63207C9.77305 6.60821 9.71742 6.57645 9.67768 6.54468L9.49498 6.40963C9.38379 6.32223 9.22489 6.21901 9.08984 6.13953C8.53382 5.8059 7.9142 5.59937 7.27073 5.52788C6.95298 5.4961 6.62726 5.48816 6.30951 5.52788C5.99176 5.55171 5.68197 5.6232 5.37216 5.71058C5.0703 5.8059 4.77638 5.91715 4.49834 6.06011C4.39863 6.10862 4.30532 6.15714 4.215 6.20409C4.03907 6.29556 3.87448 6.38112 3.69602 6.44937C3.56097 6.50499 3.42592 6.54468 3.30677 6.56853C3.25116 6.57644 3.18761 6.57644 3.15583 6.56853C3.13728 6.55926 3.13227 6.56081 3.12973 6.55896C3.12792 6.55765 3.12737 6.5546 3.12406 6.54468C3.05257 6.29843 3.49742 6.00448 3.49742 6.00448L3.25911 5.41667L3.46565 5.27368C4.9709 4.02631 6.82488 3.68907 8.31134 3.41868C9.06844 3.28097 9.7302 3.16059 10.202 2.94614C10.681 2.72769 11.0769 2.28738 11.3976 1.77505C10.3887 1.22324 9.23099 0.909546 8 0.909546C4.08407 0.909546 0.909576 4.08404 0.909576 7.99997C0.909576 8.58105 0.979476 9.14581 1.11133 9.68628L2.99696 7.55355C2.83709 7.38643 2.76364 6.94675 2.72796 6.73315L2.72553 6.7186C2.72315 6.70442 2.72096 6.69141 2.71893 6.67972C2.73036 6.6977 2.74785 6.71735 2.7691 6.73737L3.73261 6.8361C3.76857 6.82426 3.804 6.81179 3.839 6.79889C4.02815 6.73418 4.20793 6.64765 4.38031 6.56468L4.39955 6.55542C4.49556 6.50924 4.58928 6.46446 4.68105 6.42551Z" fill="black"/>
<path d="M12.0687 6.67973C11.6557 6.83066 11.3618 7.00545 11.187 7.0531C11.1394 7.06899 11.1076 7.11664 11.1155 7.17227C11.6478 11.1044 12.0529 11.2871 12.2674 11.3745C12.4898 11.4619 13.2762 10.9932 13.3636 10.7628C13.5463 10.2386 12.4262 9.92874 12.1641 6.74327C12.1561 6.69561 12.1165 6.66385 12.0687 6.67973ZM11.894 9.5951C11.9178 9.44417 12.0608 9.33298 12.2118 9.35678C12.3627 9.38063 12.466 9.51568 12.4501 9.67453C12.4262 9.82546 12.2912 9.92874 12.1403 9.91285C11.9814 9.88905 11.8702 9.74604 11.894 9.5951ZM12.5215 10.882C12.3547 10.8582 12.2356 10.7073 12.2594 10.5404C12.2833 10.3736 12.4342 10.2624 12.601 10.2783C12.7678 10.3021 12.879 10.453 12.8632 10.6199C12.8393 10.7867 12.6884 10.9058 12.5215 10.882Z" fill="black"/>
<path d="M9.20101 8.60211C9.20101 8.60211 8.923 8.87215 6.11882 11.0806C5.62632 11.4698 5.19736 12.6852 5.19736 12.6852L9.34403 9.03106C9.36788 9.0072 9.38377 8.9834 9.39168 8.94366C9.40757 8.80861 9.34403 8.68154 9.20101 8.60211Z" fill="black"/>
<path opacity="0.81" d="M7.47731 9.70638C7.27866 9.86523 7.04831 10.04 6.80207 10.2386C5.3032 11.4753 4.78153 12.9573 4.68265 14.2681C4.78995 14.325 4.89888 14.3793 5.00937 14.4307C5.07902 13.1606 5.55782 11.7065 7.01654 10.5007C7.25033 10.3059 7.47646 10.1341 7.67245 9.98511L7.68381 9.97648C8.01744 9.7143 8.89127 8.93583 9.64594 8.65777L9.40761 8.51481C9.23288 8.34002 7.83474 9.43629 7.47731 9.70638Z" fill="black"/>
<path fill-rule="evenodd" clip-rule="evenodd" d="M1.45998 9.29816L0.651782 10.2123C0.0559957 10.8557 0.699445 12.1585 1.31112 12.7702L4.52042 15.9477C4.56088 15.8641 4.56287 15.6532 4.56558 15.3662C4.57048 14.8477 4.57772 14.0808 4.81866 13.3687C2.87357 12.845 1.45921 11.2547 1.45921 9.37412C1.45921 9.34878 1.45947 9.32344 1.45998 9.29816Z" fill="black"/>
</svg>
