<svg width="282" height="286" viewBox="0 0 282 286" fill="none" xmlns="http://www.w3.org/2000/svg">
<circle cx="141" cy="141" r="141" fill="white"/>
<mask id="mask0" mask-type="alpha" maskUnits="userSpaceOnUse" x="12" y="12" width="258" height="258">
<circle cx="141" cy="141" r="129" fill="white"/>
</mask>
<g mask="url(#mask0)">
<path d="M277.028 556.629H117.326L47.9537 599.119L45.9304 603.31C34.0792 603.31 32.4895 599.986 32.4895 599.986L-3.78662 530.325L85.097 315.414L110.678 231.011L17.7478 116.98L31.7668 76.5126L247.255 73.6221L332.237 249.51L431.815 530.469L367.212 591.893C360.997 602.01 351.603 603.166 347.123 599.986L277.028 556.629Z" fill="#CECDC4"/>
<path d="M373.86 472.804C357.962 444.766 337.006 425.255 337.006 425.255C337.006 425.255 318.94 384.498 315.038 373.081C311.136 361.808 341.486 378.862 341.486 378.862C341.486 378.862 318.073 347.5 306.222 339.406C304.343 331.168 294.515 297.06 294.515 297.06C294.515 297.06 304.054 298.361 310.702 300.962C310.413 294.603 285.843 268.299 285.843 268.299L281.508 239.972C281.508 239.972 288.879 240.406 296.683 246.909C295.093 238.527 279.051 224.363 274.281 219.16C270.668 176.67 253.325 108.164 245.376 94.4343L224.275 117.848C205.342 67.8415 187.566 30.6983 173.258 18.9917C165.887 12.9216 53.4454 75.3569 53.879 116.113C54.0235 126.664 80.1827 157.014 108.654 165.397C131.923 172.189 158.66 158.315 157.36 156.725C157.36 156.725 158.949 179.416 157.938 191.989C156.926 204.563 153.024 225.231 153.024 225.231C153.024 225.231 132.212 244.597 130.622 252.98C138.571 246.331 145.798 246.042 145.798 246.042L141.462 274.369C141.462 274.369 116.892 300.673 116.603 307.032C123.252 304.431 132.79 303.13 132.79 303.13C132.79 303.13 122.962 337.238 121.084 345.476C109.377 353.425 85.8193 384.932 85.8193 384.932C85.8193 384.932 116.17 367.878 112.268 379.151C108.365 390.424 90.2996 431.325 90.2996 431.325C90.2996 431.325 69.3433 450.836 53.4454 478.874C61.9725 473.382 70.9331 468.035 77.2922 464.566C79.8937 463.121 82.7842 465.867 81.4835 468.468C64.2849 504.166 52.0002 540.731 43.6176 578.019C42.7505 582.066 42.7505 586.401 43.9067 590.448C47.8089 603.745 59.8046 629.181 85.9638 620.654C88.5653 619.787 90.8777 618.053 92.1784 615.74C111.689 583.945 131.634 569.781 157.215 562.988C122.529 586.112 101.428 629.759 101.428 629.759C101.428 629.759 187.999 658.665 290.757 631.06C290.757 631.06 272.836 584.812 238.728 561.687C274.281 574.261 295.093 606.202 300.007 612.994C306.655 622.244 349.29 609.526 353.626 586.835C357.817 565.301 352.036 501.42 342.064 460.808C341.486 458.207 344.232 456.183 346.544 457.484C354.06 460.664 364.177 466.589 373.86 472.804Z" fill="#010103"/>
<path d="M664.357 537.985C665.658 537.985 666.381 536.539 665.658 535.528C649.471 513.126 525.612 340.995 526.335 337.238C529.37 322.352 537.608 307.176 539.053 291.278L588.047 361.085C627.648 417.45 691.817 451.269 760.612 452.281C761.912 452.281 762.635 450.835 761.912 449.824L383.976 -91.4268C378.918 -98.6532 368.079 -98.0751 363.743 -90.5597C363.743 -90.5597 333.681 -42.1434 355.071 0.0582067C393.515 76.368 375.883 144.006 341.775 150.076C307.667 156.146 263.586 87.9301 228.322 60.4702L256.504 101.227C270.668 137.069 277.894 175.079 282.953 214.824C303.62 230.288 317.639 257.315 325.732 277.259C316.049 266.564 300.874 260.205 293.503 254.28C294.37 257.604 295.093 260.928 295.96 264.397C321.108 287.376 335.271 314.258 344.665 337.527C333.103 324.809 315.616 315.848 307.522 309.778C308.678 314.114 309.835 318.594 311.135 323.074C334.838 351.69 362.731 388.689 375.305 419.907C358.395 401.263 338.162 390.279 328.623 384.642C329.49 387.388 330.213 389.99 331.08 392.736C356.661 426.41 399.73 485.522 417.362 528.879C394.527 503.732 370.536 484.799 359.118 478.873C370.246 510.814 371.114 562.121 367.356 591.604C367.211 592.616 368.079 593.338 369.09 593.049C377.184 590.737 408.835 580.764 435.283 557.496C478.786 582.21 519.831 591.315 550.76 595.217C552.06 595.362 552.928 593.916 552.205 592.905C539.92 575.706 474.161 483.932 475.895 480.897C481.098 471.792 491.937 446.933 491.937 446.933C531.393 503.154 595.563 537.118 664.357 537.985Z" fill="#010103"/>
<path d="M120.795 123.194C110.244 123.194 101.573 114.523 101.573 103.972C101.573 93.4221 110.244 84.7505 120.795 84.7505C131.49 84.7505 140.161 93.4221 140.161 103.972C140.161 114.523 131.49 123.194 120.795 123.194ZM120.795 91.8323C114.147 91.8323 108.799 97.1797 108.799 103.828C108.799 110.476 114.147 115.824 120.795 115.824C127.443 115.824 132.935 110.476 132.935 103.828C132.935 97.3243 127.443 91.8323 120.795 91.8323Z" fill="white"/>
<path d="M54.4571 99.7816C54.4571 99.7816 22.9504 10.3199 125.13 -23.3547C187.277 -43.7329 227.599 -12.5153 243.786 25.7842C264.598 34.8893 276.883 82.583 276.883 82.583C276.883 82.583 195.226 141.55 167.621 118.136C145.22 99.348 111.256 91.6881 75.1243 110.621C33.2118 132.589 54.4571 99.7816 54.4571 99.7816Z" fill="#CECDC4"/>
<path d="M95.0693 27.9517L219.94 16.1006C219.94 16.1006 199.417 60.3256 173.981 68.13C100.272 90.5316 98.1044 67.2628 56.0473 104.551C49.5436 110.332 45.9304 104.984 43.9071 95.0119C37.2589 62.2044 61.6838 31.1313 95.0693 27.9517Z" fill="#A7A49B"/>
<path d="M237.86 48.0415L247.254 73.4781L211.556 87.7862L203.752 57.8693L237.86 48.0415Z" fill="white"/>
<path d="M240.751 47.0292L251.735 71.8877C252.747 74.2001 251.735 76.8016 249.423 77.8133L249.278 77.9578L248.989 78.1023L213.002 91.8323H212.858C210.69 92.6994 208.377 91.5432 207.51 89.3753C207.51 89.2308 207.366 88.9418 207.366 88.7973L200.428 58.5913V58.4468C199.995 56.7124 201.151 54.8336 202.885 54.4L237.138 45.0058C238.583 44.5722 240.173 45.2949 240.751 46.7401V47.0292ZM235.837 51.7985L205.342 58.4468L211.99 85.9067L245.376 71.5986L235.837 51.7985Z" fill="#010103"/>
<path d="M203.752 57.8693L237.86 48.0415L241.762 57.0021L206.498 68.7087L203.752 57.8693Z" fill="#010103"/>
<path d="M206.498 68.7081L241.762 57.0015L244.653 65.0949L209.244 79.2585L206.498 68.7081Z" fill="#C1000C"/>
<path d="M209.244 79.2583L244.653 65.0947L247.255 73.4772L211.557 87.7853L209.244 79.2583Z" fill="#EEB11B"/>
<path d="M23.2391 142.85L49.9765 132.733C49.9765 132.733 73.1007 101.805 115.591 156.58C128.888 148.487 157.938 142.706 164.73 153.834C166.32 156.436 165.308 159.76 162.996 161.494C142.184 176.669 104.607 218.293 104.607 218.293L77.4364 297.638L-22.7202 192.134L23.2391 142.85Z" fill="#D18D1E"/>
<path d="M87.2643 161.783C83.3621 166.408 62.2613 154.268 56.0467 150.51C55.324 150.076 55.4686 149.065 56.3357 148.776C61.3941 147.33 74.546 143.573 80.038 145.018C86.9753 147.041 91.8892 156.436 87.2643 161.783Z" fill="#854205"/>
<path d="M83.0734 158.17C79.8939 161.783 60.6719 150.654 60.6719 149.787C60.6719 148.776 73.5347 145.596 78.1595 146.897C82.9289 148.053 86.253 154.412 83.0734 158.17Z" fill="#010103"/>
<path d="M270.524 48.4747C267.778 43.2718 264.598 38.2134 260.696 33.5885C257.083 29.3973 252.892 25.206 247.4 22.46C242.486 10.8979 235.549 0.0584628 226.588 -9.04669C224.709 -10.9255 222.686 -12.6598 220.662 -14.3941C222.397 -20.3197 223.119 -24.2219 223.119 -24.2219L211.991 -20.7533C207.221 -23.9329 202.018 -26.3898 196.815 -28.5577C210.835 -39.1081 223.697 -49.225 230.924 -56.4513C253.903 -79.2864 244.654 -139.554 244.654 -139.554L180.773 -96.0514L198.983 -125.246C217.627 -151.694 181.64 -197.509 181.64 -197.509L13.1227 46.7404C-158.141 261.795 -96.4281 512.115 29.4542 602.154C31.044 603.311 33.0674 601.865 32.6338 599.987C31.1885 594.495 29.7433 591.893 31.6221 582.788C37.5477 552.582 41.8835 520.642 64.5741 484.655C53.1565 490.58 34.5126 506.334 11.6775 531.626C29.1651 488.268 71.6558 432.77 97.0924 398.951C97.9596 396.205 98.6822 393.603 99.5494 390.857C90.0107 396.494 69.777 407.478 52.8674 426.122C65.5857 394.759 93.3348 357.761 117.037 329.289C118.193 324.809 119.494 320.328 120.65 315.993C112.557 322.063 95.0691 331.168 83.507 343.742C92.9012 320.473 107.065 293.591 132.212 270.611C133.079 267.143 133.947 263.819 134.669 260.495C127.298 266.42 112.268 272.779 102.44 283.474C110.533 263.385 124.552 236.503 145.22 221.039C153.024 186.786 152.301 169.588 152.301 169.588C152.301 169.588 93.1902 213.957 84.9522 234.769C76.7143 255.581 80.6165 280.15 78.4486 284.63L20.06 226.82C8.93149 215.692 -2.77513 191.989 8.06433 180.283L49.9769 132.878C46.7973 129.554 45.4966 120.304 44.9185 116.98C45.9302 118.57 49.5433 120.882 50.9886 121.171C53.1565 121.749 54.8908 121.605 56.4806 121.46C59.6602 121.027 62.5507 120.16 65.2967 119.148C70.7887 117.269 75.8471 114.379 80.6165 112.355C85.3858 110.043 90.4443 108.453 95.5027 107.008C100.561 105.707 105.764 104.84 110.967 104.551C116.17 104.117 121.373 104.551 126.576 105.129C136.837 106.719 146.665 110.332 155.337 115.968C157.504 117.414 159.383 118.57 161.551 120.449L164.731 123.05C166.031 124.206 167.621 125.074 169.066 125.941C175.281 129.12 181.929 129.843 187.999 129.554C200.284 128.976 211.268 125.363 221.963 121.171C232.513 116.98 281.797 83.5946 281.797 83.5946C281.797 83.5946 273.414 53.6777 270.524 48.4747ZM189.445 -20.1752C192.335 -19.1635 195.226 -18.0073 197.972 -16.7066L166.61 -7.16784C172.969 -11.6482 179.472 -16.273 186.121 -21.0423C187.277 -20.7533 188.433 -20.4642 189.445 -20.1752ZM259.395 85.907C254.915 88.9421 250.29 91.8326 245.665 94.5786C236.416 100.071 226.877 105.274 217.194 109.465C207.51 113.656 197.249 117.269 187.421 117.992C182.507 118.281 177.883 117.847 174.125 116.113C173.258 115.679 172.246 115.101 171.523 114.523L168.199 112.066C166.176 110.476 163.285 108.598 160.828 107.152C150.712 101.082 139.439 97.3246 127.732 96.0239C121.951 95.4457 116.025 95.3012 110.244 96.0239C104.463 96.4574 98.8268 97.7581 93.1903 99.3479C87.6983 101.082 82.3508 103.106 77.2924 105.707C71.9449 108.309 67.6091 110.91 62.6952 112.789C60.2383 113.801 57.7813 114.523 55.6134 114.957C54.6018 115.101 53.4455 115.101 52.8674 114.957C52.2893 114.668 52.4339 114.957 52.2893 114.523C50.9886 110.043 59.0821 104.695 59.0821 104.695L54.7463 94.0005L58.504 91.399C99.8385 57.1463 155.626 60.6149 181.062 49.0528C199.128 40.8149 210.69 15.2337 217.049 -3.41015C226.588 5.11689 234.248 15.9563 239.451 27.8075L240.173 29.3973L241.908 30.2644C245.81 32.2878 249.279 36.0455 252.169 40.2367C255.06 44.428 257.516 49.1974 259.684 54.1113C261.852 59.0252 263.731 64.0836 265.465 69.2865C266.333 71.888 267.055 74.4894 267.778 77.0909C268.067 77.9581 268.356 78.9698 268.5 79.9814C265.61 81.7158 262.575 83.8837 259.395 85.907Z" fill="#010103"/>
<path d="M215.025 116.98C207.51 119.726 202.163 122.906 198.983 123.773C198.116 124.062 197.538 124.929 197.682 125.941C207.366 197.481 214.736 200.805 218.639 202.395C222.685 203.985 236.993 195.458 238.583 191.266C241.907 181.728 221.529 176.091 216.76 118.136C216.615 117.269 215.893 116.691 215.025 116.98ZM211.846 170.021C212.279 167.275 214.881 165.252 217.627 165.685C220.373 166.119 222.252 168.576 221.963 171.466C221.529 174.212 219.072 176.091 216.326 175.802C213.436 175.369 211.412 172.767 211.846 170.021ZM223.263 193.434C220.228 193.001 218.06 190.255 218.494 187.22C218.928 184.185 221.674 182.161 224.709 182.45C227.744 182.884 229.767 185.63 229.478 188.665C229.044 191.7 226.298 193.868 223.263 193.434Z" fill="#CECDC4"/>
<path d="M162.851 151.955C162.851 151.955 157.793 156.868 106.775 197.047C97.8147 204.129 90.0103 226.241 90.0103 226.241L165.453 159.759C165.887 159.325 166.176 158.892 166.32 158.169C166.609 155.712 165.453 153.4 162.851 151.955Z" fill="#854605"/>
<g opacity="0.9">
<path opacity="0.9" d="M81.4835 281.307C77.7258 253.124 81.1944 213.09 119.205 181.728C123.685 178.115 127.876 174.935 131.49 172.045C137.993 167.131 163.43 147.186 166.609 150.366L170.945 152.967C157.215 158.026 141.317 172.189 135.247 176.959C131.634 179.705 127.443 182.884 123.107 186.497C87.2645 216.125 83.9404 253.991 87.5536 280.728L81.4835 281.307Z" fill="#010103"/>
</g>
</g>
<path fill-rule="evenodd" clip-rule="evenodd" d="M22.014 164.618L7.30996 181.249C-3.5295 192.956 8.17713 216.658 19.3056 227.786L77.6942 285.597C78.4303 284.076 78.4666 280.238 78.5159 275.018C78.605 265.583 78.7368 251.632 83.1202 238.676C47.7321 229.148 22 200.214 22 166C22 165.539 22.0047 165.078 22.014 164.618Z" fill="#D18D1E"/>
</svg>
