<svg width="60" height="48" viewBox="0 0 60 48" fill="none" xmlns="http://www.w3.org/2000/svg">
<path d="M18.5433 48C40.8189 48 53.0079 29.5276 53.0079 13.5354C53.0079 13.0157 53.0079 12.4961 52.9842 11.9764C55.3464 10.2756 57.4016 8.12598 59.0315 5.69291C56.8583 6.66142 54.5197 7.29921 52.063 7.6063C54.5669 6.11811 56.4803 3.73228 57.4016 0.897637C55.063 2.29134 52.4646 3.28346 49.7008 3.82677C47.4803 1.46457 44.3386 0 40.8661 0C34.1811 0 28.748 5.43307 28.748 12.1181C28.748 13.063 28.8661 13.9842 29.0551 14.8819C18.9921 14.3858 10.063 9.54331 4.08661 2.22047C3.04724 4.01575 2.45669 6.09449 2.45669 8.31496C2.45669 12.5197 4.6063 16.2283 7.84252 18.4016C5.85827 18.3307 3.99213 17.7874 2.3622 16.8898C2.3622 16.937 2.3622 16.9843 2.3622 17.0551C2.3622 22.9134 6.54331 27.8268 12.0709 28.937C11.0551 29.2205 9.99212 29.3622 8.88189 29.3622C8.10236 29.3622 7.34646 29.2913 6.61417 29.1496C8.14961 33.9685 12.6378 37.4646 17.9291 37.5591C13.7717 40.8189 8.55118 42.7559 2.88189 42.7559C1.91339 42.7559 0.944882 42.7087 0 42.5906C5.33858 45.9921 11.7165 48 18.5433 48Z" fill="#1DA1F2"/>
</svg>
