<svg width="100" height="60" viewBox="0 0 100 60" fill="none" xmlns="http://www.w3.org/2000/svg">
<path d="M29.1753 44.5937C29.1358 44.5297 29.6107 44.0108 30.4179 43.2361L31.7245 41.9821L31.723 39.4336C31.7217 37.3725 31.745 36.8656 31.8445 36.7831C32.0185 36.6386 41.1289 36.6395 41.303 36.784C41.4703 36.9229 41.4847 44.4237 41.318 44.5905C41.1662 44.7422 29.2691 44.7454 29.1753 44.5937V44.5937ZM44.7365 44.5905C44.6567 44.5107 44.6296 43.5222 44.6296 40.6913C44.6296 37.8604 44.6567 36.8719 44.7365 36.7921C44.8168 36.7118 46.0058 36.6853 49.5405 36.6853C54.1412 36.6853 54.2397 36.689 54.3327 36.8627C54.3968 36.9826 54.4195 38.2555 54.4026 40.783C54.3811 43.9945 54.3586 44.5378 54.244 44.6102C54.0333 44.7433 44.8703 44.7243 44.7365 44.5905ZM57.7381 44.6386C57.6515 44.6034 57.6268 43.73 57.6268 40.6934C57.6268 37.2192 57.6422 36.7875 57.7676 36.7393C57.8451 36.7096 59.9803 36.6853 62.5125 36.6853C65.9747 36.6853 67.143 36.7118 67.2234 36.7921C67.3014 36.8701 67.3313 37.5972 67.3344 39.485L67.3385 42.0711L68.626 43.2705C69.3341 43.9302 69.8998 44.511 69.883 44.5613C69.8518 44.655 57.9646 44.7307 57.7381 44.6386H57.7381ZM0.00227284 34.4278C-0.0232711 34.3612 0.169471 33.6501 0.430593 32.8476C0.691714 32.0451 1.25173 30.3069 1.67507 28.9849C2.09841 27.6629 2.63894 25.9804 2.87624 25.246C3.11354 24.5116 3.69539 22.7089 4.16924 21.24C4.64309 19.7712 5.42538 17.3676 5.90767 15.8987C6.61062 13.7578 8.14814 9.01588 8.89512 6.68494C8.96573 6.46462 9.06151 6.22426 9.10795 6.15081C9.18199 6.03375 10.3458 6.01439 18.5465 5.99381C24.9458 5.97776 27.9558 5.99984 28.0752 6.06371C28.2404 6.15216 28.2496 6.26184 28.2496 8.14655C28.2496 10.1345 28.2498 10.1361 28.4499 10.1897C28.5601 10.2192 31.1139 10.2441 34.125 10.245C39.9074 10.2466 40.5541 10.2835 41.6962 10.6769C42.9078 11.0942 43.817 11.8415 44.2942 12.8123L44.5851 13.4041L44.6296 11.8766C44.6541 11.0365 44.6949 10.3284 44.7203 10.3032C44.7914 10.2326 57.6913 10.1929 57.7622 10.2631C57.7965 10.2971 58.1238 11.3987 58.4896 12.7112C59.5605 16.554 60.4677 19.704 60.5179 19.7542C60.6087 19.845 60.6649 19.6884 61.1057 18.1135C61.3507 17.2381 61.8719 15.3914 62.2639 14.0096C62.6558 12.6279 63.0362 11.2681 63.1092 10.988C63.1822 10.7078 63.2853 10.4262 63.3385 10.3622C63.4147 10.2703 64.1402 10.2447 66.7847 10.2407C68.627 10.2379 70.2946 10.2072 70.4905 10.1725L70.8466 10.1094L70.8705 8.11206C70.888 6.6508 70.9239 6.09567 71.0041 6.0438C71.1697 5.93664 89.825 5.99825 89.9321 6.1063C89.9806 6.15526 90.3064 7.07664 90.6562 8.1538C91.0059 9.23097 92.0328 12.3957 92.9381 15.1865C93.8434 17.9774 94.745 20.7415 94.9416 21.329C95.1382 21.9166 95.4118 22.7578 95.5495 23.1985C95.6873 23.6392 96.5475 26.3176 97.4612 29.1506C98.3749 31.9836 99.1011 34.3572 99.075 34.4252C99.0352 34.529 98.0475 34.5486 92.9045 34.5474C89.5368 34.5467 86.7274 34.5118 86.6612 34.4698C86.5931 34.4267 86.2297 33.1249 85.8229 31.4667C85.4281 29.8569 85.0615 28.5099 85.0085 28.4734C84.9554 28.4368 84.1108 28.4168 83.1316 28.4289L81.3511 28.4508L81.3277 31.4285C81.31 33.6747 81.2771 34.4234 81.1941 34.4762C81.1336 34.5146 77.9975 34.5467 74.2249 34.5474C69.0072 34.5485 67.3402 34.5232 67.259 34.442C67.1782 34.3611 67.1522 32.9701 67.1522 28.7268C67.1522 25.4945 67.119 23.1542 67.0738 23.203C67.0098 23.2721 64.5159 31.9309 64.0623 33.6586C63.9917 33.9279 63.8759 34.2383 63.805 34.3485L63.6762 34.5488H60.6991C57.9078 34.5488 57.7167 34.5386 57.6351 34.3862C57.5402 34.209 57.2124 33.0315 55.6231 27.16C55.0466 25.0301 54.5405 23.2495 54.4984 23.203C54.4309 23.1282 54.373 30.5274 54.4203 33.1821C54.431 33.7816 54.3983 34.2487 54.3379 34.3617L54.2377 34.5488H44.3626C34.603 34.5488 34.4863 34.5467 34.3928 34.3721C34.3299 34.2546 34.297 32.7544 34.2946 29.8987C34.2906 25.2727 34.2787 25.1426 33.8297 24.8096C33.6111 24.6475 33.474 24.6267 32.7664 24.6479C32.3196 24.6613 31.9449 24.6813 31.9338 24.6924C31.9228 24.7034 31.8925 26.8862 31.8665 29.5431C31.8405 32.1999 31.7948 34.4131 31.7651 34.4612C31.6789 34.6006 17.9525 34.5794 17.8662 34.4397C17.8291 34.3798 17.7854 33.0478 17.7691 31.4798C17.7528 29.9118 17.7219 28.5788 17.7005 28.5176C17.6711 28.4335 17.2244 28.4063 15.8764 28.4063C14.1099 28.4063 14.0904 28.4084 14.0056 28.6066C13.9585 28.7167 13.6176 30.0461 13.2481 31.5608C12.8785 33.0755 12.5325 34.3674 12.479 34.4318C12.3325 34.6083 0.0700514 34.6044 0.00227284 34.4278V34.4278ZM44.6094 20.2443L44.5851 18.6584L44.3697 19.0924C43.8946 20.05 42.7261 20.9745 41.4916 21.3696C41.308 21.4283 41.1591 21.5033 41.1607 21.5362C41.1623 21.5692 41.5199 21.7657 41.9553 21.973C43.0614 22.4996 43.7158 23.122 44.2076 24.115L44.5851 24.8773L44.6094 23.3537C44.6228 22.5157 44.6228 21.1165 44.6094 20.2443ZM83.6954 21.9496C83.7118 21.9346 83.564 21.3282 83.367 20.602C83.17 19.8757 82.9048 18.8609 82.7776 18.3468C82.6505 17.8327 82.451 17.0916 82.3342 16.6999C82.2176 16.3082 81.9946 15.487 81.8387 14.875C81.6829 14.2629 81.5207 13.7021 81.4782 13.6287C81.3708 13.4427 81.3544 14.5962 81.3854 20.1451L81.3957 21.9878L81.9075 22.0145C82.4332 22.0419 83.6424 21.998 83.6954 21.9496ZM17.745 17.7682C17.745 15.2591 17.7118 13.5396 17.6633 13.5396C17.6183 13.5396 17.5224 13.79 17.4501 14.096C17.3779 14.402 17.1287 15.3735 16.8963 16.2548C16.664 17.1361 16.4427 17.9974 16.4046 18.1688C16.3665 18.3401 16.1317 19.2003 15.8829 20.0802C15.634 20.9601 15.4305 21.7513 15.4305 21.8384C15.4305 21.982 15.5378 21.9967 16.5877 21.9967H17.745V17.7682V17.7682ZM33.5203 19.0554C34.0422 18.9104 34.2399 18.5509 34.2866 17.662C34.3622 16.2216 33.9835 15.8173 32.6098 15.8721L31.944 15.8987L31.9195 17.4088C31.906 18.2394 31.9148 18.9705 31.939 19.0335C31.9933 19.175 33.0376 19.1894 33.5203 19.0554V19.0554ZM31.8283 7.91344C31.7502 7.83532 31.7215 7.1199 31.7215 5.25052V2.69443L30.4175 1.45312C29.6278 0.70138 29.1384 0.171678 29.1765 0.110057C29.2692 -0.0399743 41.1679 -0.0350037 41.318 0.115129C41.3978 0.194872 41.4248 1.18339 41.4248 4.01429C41.4248 6.84518 41.3978 7.8337 41.318 7.91344C41.2377 7.9938 40.0618 8.02027 36.5731 8.02027C33.0845 8.02027 31.9086 7.9938 31.8283 7.91344V7.91344ZM44.7365 7.91344C44.6567 7.8337 44.6296 6.84518 44.6296 4.01429C44.6296 1.18339 44.6567 0.194872 44.7365 0.115129C44.8168 0.0347414 46.0058 0.00830443 49.5405 0.00830443C54.0934 0.00830443 54.2405 0.0135928 54.3299 0.180496C54.4292 0.366086 54.4651 7.62628 54.368 7.87946C54.3197 8.00542 53.8145 8.02027 49.5786 8.02027C46.0143 8.02027 44.8169 7.99385 44.7365 7.91344V7.91344ZM57.7371 7.9463C57.6491 7.89038 57.6299 7.03378 57.6481 3.96394L57.6713 0.0528154L63.7197 0.0299323C67.9403 0.0139645 69.7966 0.0359408 69.8622 0.102651C69.9287 0.17018 69.8648 0.278369 69.6448 0.471094C69.4734 0.621157 68.8825 1.18561 68.3317 1.72543L67.3302 2.70693V5.25677C67.3302 7.12129 67.3015 7.83533 67.2234 7.91344C67.0993 8.0375 57.9308 8.06926 57.7371 7.9463V7.9463Z" fill="black"/>
<rect x="2.35303" y="49.4116" width="96.4706" height="10.5882" rx="0.5" fill="#608938"/>
<g clip-path="url(#clip0)">
<path fill-rule="evenodd" clip-rule="evenodd" d="M59.0993 54.3225H61.0211C61.8762 54.3225 62.4528 54.8991 62.4528 55.7543V56.6094C62.4528 57.4646 61.8762 58.0411 61.0211 58.0411H58.9648C58.1095 58.0411 57.5331 57.4646 57.5331 56.6094V56.0233H58.3306V56.571C58.3306 57.0515 58.6285 57.3494 59.0993 57.3494H60.8866C61.3574 57.3494 61.6552 57.0515 61.6552 56.571V55.7927C61.6552 55.3218 61.3574 55.0144 60.8866 55.0144H58.9648C58.1095 55.0144 57.5331 54.4379 57.5331 53.5827V52.7466C57.5331 51.8819 58.1095 51.3149 58.9648 51.3149H61.0211C61.8762 51.3149 62.4528 51.8819 62.4528 52.7466V53.3329H61.6552V52.7755C61.6552 52.3047 61.3574 52.0068 60.8866 52.0068H59.0993C58.6285 52.0068 58.3306 52.3047 58.3306 52.7755V53.5538C58.3306 54.0246 58.6285 54.3225 59.0993 54.3225ZM54.5454 58.0411H53.7478V52.0068H51.4321V51.3149H56.8612V52.0068H54.5454V58.0411ZM49.9622 51.3149H50.7598V58.0411H49.9622V51.3149ZM44.3995 52.7659V58.0411H43.602V51.3149H44.3515L47.8203 56.5806V51.3149H48.6178V58.0411H47.8684L44.3995 52.7659ZM40.8258 58.0411H38.6734C37.8183 58.0411 37.2417 57.4646 37.2417 56.6094V51.3149H38.0393V56.571C38.0393 57.0419 38.3371 57.3494 38.8079 57.3494H40.6913C41.1621 57.3494 41.46 57.0419 41.46 56.571V51.3149H42.2575V56.6094C42.2575 57.4646 41.6811 58.0411 40.8258 58.0411Z" fill="white"/>
</g>
<defs>
<clipPath id="clip0">
<rect width="27.451" height="8.23529" fill="white" transform="translate(36.4707 50.5884)"/>
</clipPath>
</defs>
</svg>
