<svg width="200" height="52" viewBox="0 0 200 52" fill="none" xmlns="http://www.w3.org/2000/svg">
<path d="M26.053 9.15485C21.5955 9.15485 21.0361 9.17434 19.2854 9.25401C17.5381 9.33402 16.3454 9.61065 15.3018 10.0165C14.2224 10.4357 13.3067 10.9965 12.3944 11.9091C11.4814 12.8214 10.9206 13.7371 10.5 14.8163C10.0931 15.8602 9.81617 17.0532 9.73753 18.7998C9.65923 20.5505 9.63871 21.1103 9.63871 25.5677C9.63871 30.0252 9.65854 30.5829 9.73787 32.3336C9.81823 34.0809 10.0949 35.2736 10.5004 36.3172C10.9199 37.3967 11.4807 38.3124 12.3933 39.2247C13.3053 40.1376 14.221 40.6998 15.2998 41.119C16.3441 41.5249 17.5371 41.8015 19.284 41.8815C21.0347 41.9612 21.5938 41.9807 26.0509 41.9807C30.5087 41.9807 31.0664 41.9612 32.8171 41.8815C34.5644 41.8015 35.7585 41.5249 36.8027 41.119C37.8819 40.6998 38.7962 40.1376 39.7082 39.2247C40.6211 38.3124 41.1819 37.3967 41.6025 36.3175C42.006 35.2736 42.2829 34.0806 42.365 32.334C42.4437 30.5833 42.4642 30.0252 42.4642 25.5677C42.4642 21.1103 42.4437 20.5509 42.365 18.8002C42.2829 17.0529 42.006 15.8602 41.6025 14.8166C41.1819 13.7371 40.6211 12.8214 39.7082 11.9091C38.7952 10.9962 37.8822 10.4354 36.8017 10.0165C35.7554 9.61065 34.562 9.33402 32.8148 9.25401C31.064 9.17434 30.5067 9.15485 26.0479 9.15485H26.053ZM24.5806 12.1126C25.0176 12.1119 25.5052 12.1126 26.053 12.1126C30.4352 12.1126 30.9546 12.1283 32.6852 12.207C34.2854 12.2801 35.1539 12.5475 35.7325 12.7722C36.4984 13.0697 37.0445 13.4253 37.6186 13.9997C38.1931 14.5742 38.5487 15.1213 38.8468 15.8872C39.0715 16.4651 39.3392 17.3336 39.4121 18.9339C39.4907 20.6641 39.5078 21.1838 39.5078 25.564C39.5078 29.9442 39.4907 30.4639 39.4121 32.1941C39.3389 33.7944 39.0715 34.6629 38.8468 35.2408C38.5494 36.0067 38.1931 36.5521 37.6186 37.1262C37.0442 37.7006 36.4988 38.0563 35.7325 38.3537C35.1546 38.5794 34.2854 38.8461 32.6852 38.9193C30.955 38.9979 30.4352 39.015 26.053 39.015C21.6704 39.015 21.151 38.9979 19.4208 38.9193C17.8205 38.8454 16.952 38.5781 16.3731 38.3534C15.6072 38.0559 15.0601 37.7003 14.4856 37.1259C13.9112 36.5514 13.5556 36.0057 13.2574 35.2394C13.0328 34.6615 12.765 33.793 12.6922 32.1927C12.6135 30.4626 12.5978 29.9428 12.5978 25.5599C12.5978 21.177 12.6135 20.66 12.6922 18.9298C12.7654 17.3295 13.0328 16.461 13.2574 15.8824C13.5549 15.1165 13.9112 14.5694 14.4856 13.9949C15.0601 13.4205 15.6072 13.0649 16.3731 12.7667C16.9517 12.541 17.8205 12.2743 19.4208 12.2008C20.9349 12.1324 21.5217 12.1119 24.5806 12.1085V12.1126ZM34.8141 14.8378C33.7267 14.8378 32.8445 15.719 32.8445 16.8067C32.8445 17.894 33.7267 18.7762 34.8141 18.7762C35.9014 18.7762 36.7836 17.894 36.7836 16.8067C36.7836 15.7193 35.9014 14.8371 34.8141 14.8371V14.8378ZM26.053 17.139C21.3982 17.139 17.6243 20.913 17.6243 25.5677C17.6243 30.2225 21.3982 33.9947 26.053 33.9947C30.7077 33.9947 34.4803 30.2225 34.4803 25.5677C34.4803 20.913 30.7077 17.139 26.053 17.139ZM26.053 20.0968C29.0743 20.0968 31.5239 22.5461 31.5239 25.5677C31.5239 28.5891 29.0743 31.0387 26.053 31.0387C23.0313 31.0387 20.582 28.5891 20.582 25.5677C20.582 22.5461 23.0313 20.0968 26.053 20.0968Z" fill="#262626"/>
<path d="M67.5897 9.85831C64.8183 11.0184 61.7715 14.2958 60.8093 18.4096C59.5907 23.622 64.6619 25.8261 65.0779 25.1034C65.5674 24.2542 64.1692 23.9671 63.8813 21.2626C63.5093 17.7696 65.1332 13.8666 67.1769 12.1541C67.5568 11.8359 67.5388 12.2788 67.5388 13.0979C67.5388 14.5627 67.4578 27.7121 67.4578 30.4564C67.4578 34.1698 67.3044 35.3424 67.029 36.5011C66.7499 37.6754 66.3012 38.4688 66.6412 38.7744C67.021 39.1162 68.643 38.3031 69.5819 36.9926C70.7079 35.4209 71.102 33.5333 71.1728 31.4835C71.2582 29.0124 71.2546 25.0914 71.2582 22.8549C71.2616 20.8037 71.2928 14.7973 71.2223 11.1864C71.205 10.3008 68.7487 9.37157 67.5896 9.85724M166.003 27.2367C165.914 29.1672 165.487 30.6761 164.956 31.7405C163.929 33.801 161.799 34.4408 160.894 31.4787C160.401 29.8641 160.378 27.1676 160.733 24.9144C161.094 22.6191 162.101 20.8856 163.769 21.0419C165.414 21.1965 166.184 23.3166 166.003 27.2367ZM138.266 39.214C138.244 42.4216 137.739 45.2341 136.656 46.0509C135.121 47.2092 133.057 46.3404 133.485 43.9997C133.863 41.9284 135.651 39.8132 138.271 37.2286C138.271 37.2286 138.276 37.818 138.266 39.214ZM137.847 27.218C137.753 28.9763 137.297 30.7427 136.8 31.7407C135.773 33.8012 133.627 34.4454 132.738 31.479C132.13 29.4522 132.276 26.8291 132.576 25.1763C132.967 23.0318 133.913 21.0424 135.613 21.0424C137.265 21.0424 138.08 22.8551 137.847 27.218ZM121.779 27.1911C121.678 29.0533 121.315 30.61 120.732 31.7407C119.677 33.787 117.59 34.436 116.67 31.479C116.006 29.3467 116.232 26.4394 116.508 24.8688C116.918 22.5382 117.943 20.8858 119.545 21.0424C121.189 21.2031 121.989 23.3166 121.779 27.1911ZM195.415 29.3663C195.013 29.3663 194.83 29.7807 194.678 30.4782C194.151 32.9037 193.598 33.4514 192.884 33.4514C192.087 33.4514 191.371 32.2504 191.187 29.8462C191.042 27.9558 191.065 24.4755 191.25 21.0134C191.288 20.3021 191.092 19.5983 189.184 18.9053C188.363 18.6071 187.17 18.1682 186.576 19.6024C184.897 23.6545 184.24 26.8715 184.085 28.1784C184.077 28.246 183.994 28.2598 183.98 28.1018C183.881 27.0551 183.661 25.153 183.634 21.1568C183.629 20.3771 183.463 19.7134 182.603 19.1701C182.044 18.8175 180.349 18.1939 179.738 18.9358C179.209 19.5425 178.597 21.1753 177.96 23.1107C177.443 24.6838 177.082 25.7479 177.082 25.7479C177.082 25.7479 177.089 21.5035 177.095 19.8935C177.098 19.2861 176.681 19.0837 176.556 19.047C175.99 18.8829 174.876 18.6088 174.403 18.6088C173.82 18.6088 173.677 18.9349 173.677 19.4101C173.677 19.4723 173.585 24.9983 173.585 28.8623C173.585 29.0302 173.585 29.2133 173.587 29.4078C173.264 31.1838 172.217 33.5946 171.079 33.5946C169.94 33.5946 169.402 32.5867 169.402 27.9802C169.402 25.2928 169.483 24.1243 169.522 22.1807C169.545 21.0612 169.59 20.2015 169.587 20.0064C169.579 19.4081 168.544 19.1066 168.063 18.9952C167.579 18.8828 167.159 18.8392 166.831 18.8579C166.366 18.8841 166.038 19.1889 166.038 19.608C166.038 19.8327 166.04 20.2601 166.04 20.2601C165.442 19.3199 164.48 18.6656 163.84 18.476C162.115 17.9638 160.316 18.4176 158.959 20.3168C157.88 21.8258 157.23 23.5349 156.974 25.9905C156.787 27.7857 156.848 29.6061 157.18 31.1456C156.778 32.8829 156.032 33.5946 155.216 33.5946C154.03 33.5946 153.17 31.659 153.27 28.3115C153.336 26.1098 153.776 24.5647 154.258 22.3293C154.463 21.3764 154.296 20.8775 153.878 20.3993C153.494 19.9608 152.676 19.7368 151.501 20.0123C150.664 20.2088 149.466 20.4201 148.371 20.5823C148.371 20.5823 148.437 20.3186 148.491 19.8537C148.776 17.4155 146.127 17.6133 145.281 18.3921C144.777 18.857 144.433 19.4054 144.303 20.3913C144.096 21.956 145.372 22.694 145.372 22.694C144.954 24.6105 143.927 27.1141 142.868 28.9242C142.3 29.894 141.866 30.6126 141.306 31.3765C141.304 31.0921 141.302 30.8076 141.301 30.5245C141.288 26.4952 141.342 23.3241 141.366 22.1811C141.389 21.0616 141.433 20.2247 141.431 20.0296C141.425 19.592 141.169 19.4267 140.638 19.2175C140.168 19.0325 139.612 18.9044 139.036 18.8597C138.308 18.803 137.87 19.1888 137.881 19.6451C137.883 19.7312 137.883 20.2602 137.883 20.2602C137.285 19.3201 136.323 18.6658 135.683 18.4761C133.958 17.9642 132.159 18.418 130.802 20.317C129.723 21.826 129.017 23.9435 128.817 25.972C128.63 27.8625 128.665 29.4691 128.919 30.8224C128.645 32.1776 127.856 33.5947 126.965 33.5947C125.825 33.5947 125.177 32.5868 125.177 27.9803C125.177 25.293 125.258 24.1245 125.297 22.1811C125.32 21.0616 125.365 20.2017 125.362 20.0068C125.354 19.4085 124.319 19.107 123.838 18.9953C123.334 18.8788 122.899 18.836 122.566 18.8606C122.125 18.8934 121.815 19.288 121.815 19.5822V20.2602C121.217 19.3201 120.255 18.6658 119.615 18.4761C117.89 17.9642 116.101 18.4253 114.734 20.317C113.842 21.5504 113.12 22.9179 112.749 25.9451C112.641 26.8199 112.594 27.639 112.6 28.4047C112.245 30.5791 110.674 33.0851 109.39 33.0851C108.638 33.0851 107.922 31.6272 107.922 28.52C107.922 24.3811 108.178 18.4882 108.222 17.9202C108.222 17.9202 109.845 17.8927 110.159 17.889C110.968 17.8801 111.702 17.8993 112.78 17.8441C113.321 17.8165 113.842 15.8756 113.284 15.6354C113.031 15.5267 111.243 15.4314 110.534 15.4164C109.938 15.4029 108.279 15.2801 108.279 15.2801C108.279 15.2801 108.427 11.3686 108.462 10.9554C108.491 10.6111 108.046 10.4338 107.79 10.3262C107.169 10.0634 106.613 9.93758 105.954 9.80174C105.044 9.61395 104.631 9.79764 104.55 10.5659C104.429 11.732 104.366 15.1472 104.366 15.1472C103.698 15.1472 101.416 15.0166 100.748 15.0166C100.127 15.0166 99.457 17.6866 100.315 17.7194C101.303 17.7577 103.024 17.7908 104.165 17.8252C104.165 17.8252 104.114 23.8152 104.114 25.6645C104.114 25.8613 104.116 26.0507 104.116 26.2346C103.488 29.5074 101.276 31.2753 101.276 31.2753C101.751 29.1101 100.781 27.4842 99.0336 26.1078C98.3897 25.6006 97.1186 24.6405 95.6964 23.5883C95.6964 23.5883 96.5201 22.7764 97.2506 21.1432C97.7682 19.9863 97.7905 18.6624 96.5201 18.3704C94.421 17.8877 92.6903 19.4293 92.174 21.0751C91.7741 22.35 91.9874 23.2961 92.771 24.2788C92.8282 24.3506 92.8902 24.424 92.9542 24.4979C92.4804 25.4111 91.8294 26.6407 91.2781 27.5943C89.7479 30.2417 88.5919 32.3358 87.7183 32.3358C87.02 32.3358 87.0294 30.2098 87.0294 28.2192C87.0294 26.5032 87.1561 23.9233 87.2573 21.2522C87.2908 20.3688 86.8491 19.8655 86.1086 19.4097C85.6587 19.1328 84.6985 18.5883 84.1424 18.5883C83.31 18.5883 80.9085 18.7016 78.6394 25.2652C78.3535 26.0925 77.7917 27.6 77.7917 27.6L77.84 19.7069C77.84 19.5218 77.7415 19.3429 77.5158 19.2205C77.1334 19.0129 76.1122 18.5883 75.2041 18.5883C74.7714 18.5883 74.5555 18.7895 74.5555 19.1907L74.4763 31.5395C74.4763 32.4777 74.5007 33.5723 74.5935 34.0511C74.6859 34.5304 74.8357 34.9204 75.0211 35.1524C75.2063 35.3839 75.4205 35.5606 75.7737 35.6335C76.1024 35.7011 77.9023 35.9323 77.9958 35.2444C78.1079 34.4201 78.1122 33.5285 79.0573 30.2032C80.5287 25.0262 82.4471 22.5002 83.3489 21.6031C83.5066 21.4463 83.6867 21.437 83.678 21.6936C83.6395 22.8286 83.5041 25.6648 83.413 28.0743C83.1687 34.5224 84.3417 35.7176 86.018 35.7176C87.3005 35.7176 89.1083 34.4433 91.0462 31.2177C92.2544 29.2075 93.4275 27.2365 94.2703 25.8159C94.8576 26.3596 95.5167 26.9448 96.1754 27.5699C97.7061 29.0227 98.2086 30.4031 97.8752 31.7127C97.6201 32.7138 96.6597 33.7456 94.9504 32.7428C94.4522 32.4502 94.2395 32.2242 93.7386 31.8943C93.4694 31.7171 93.0585 31.6642 92.8121 31.8498C92.1721 32.3323 91.8061 32.9461 91.5971 33.706C91.3938 34.4453 92.1343 34.8362 92.9019 35.1781C93.5628 35.4723 94.9834 35.7389 95.8894 35.7693C99.4193 35.8873 102.247 34.0649 104.215 29.364C104.568 33.4238 106.068 35.7212 108.673 35.7212C110.415 35.7212 112.161 33.4696 112.925 31.2546C113.144 32.1575 113.469 32.9426 113.888 33.6066C115.896 36.7876 119.791 36.1029 121.747 33.4018C122.352 32.5671 122.444 32.2672 122.444 32.2672C122.729 34.8178 124.783 35.7089 125.959 35.7089C127.276 35.7089 128.636 35.0862 129.59 32.9404C129.701 33.1733 129.823 33.3957 129.956 33.6065C131.964 36.7875 135.859 36.1029 137.815 33.4017C137.907 33.275 137.987 33.1601 138.057 33.0569L138.115 34.7322C138.115 34.7322 136.999 35.7561 136.314 36.3841C133.298 39.1506 131.006 41.2494 130.837 43.6936C130.62 46.81 133.148 47.9683 135.06 48.1201C137.091 48.2812 138.83 47.1595 139.899 45.5896C140.839 44.2077 141.454 41.2337 141.409 38.2963C141.391 37.1201 141.361 35.6245 141.338 34.0214C142.398 32.7906 143.592 31.2351 144.691 29.4143C145.89 27.4301 147.174 24.7654 147.831 22.6916C147.831 22.6916 148.947 22.7012 150.137 22.6232C150.518 22.5984 150.628 22.6761 150.557 22.9553C150.472 23.2926 149.053 28.7666 150.348 32.4132C151.235 34.9096 153.233 35.7127 154.418 35.7127C155.805 35.7127 157.132 34.6652 157.843 33.1097C157.929 33.2831 158.019 33.4509 158.116 33.6059C160.124 36.7868 164.005 36.0981 165.975 33.401C166.42 32.7925 166.672 32.2664 166.672 32.2664C167.095 34.9061 169.148 35.7216 170.324 35.7216C171.549 35.7216 172.711 35.2195 173.654 32.988C173.693 33.9705 173.755 34.7739 173.853 35.0272C173.913 35.1821 174.261 35.3766 174.514 35.4705C175.635 35.886 176.778 35.6895 177.2 35.604C177.493 35.5447 177.722 35.3098 177.753 34.7031C177.835 33.11 177.784 30.4333 178.267 28.4441C179.078 25.1056 179.834 23.8106 180.193 23.1695C180.394 22.8103 180.62 22.7511 180.629 23.1312C180.646 23.9004 180.684 26.1593 180.998 29.1942C181.228 31.4262 181.537 32.7455 181.773 33.163C182.449 34.3571 183.284 34.4136 183.963 34.4136C184.396 34.4136 185.3 34.2942 185.219 33.5343C185.18 33.1639 185.249 30.875 186.048 27.586C186.57 25.4382 187.44 23.4975 187.754 22.788C187.87 22.5263 187.923 22.7326 187.922 22.7728C187.855 24.2519 187.707 29.0901 188.31 31.7361C189.127 35.3207 191.49 35.7219 192.313 35.7219C194.071 35.7219 195.509 34.3847 195.993 30.8662C196.11 30.0194 195.937 29.3656 195.419 29.3656" fill="#262626"/>
</svg>
