<svg width="168" height="60" viewBox="0 0 168 60" fill="none" xmlns="http://www.w3.org/2000/svg">
<path fill-rule="evenodd" clip-rule="evenodd" d="M0.820812 35.5414C3.19236 43.3321 10.4344 49 19.0002 49C29.4935 49 38.0002 40.4932 38.0002 30C38.0002 19.5066 29.4935 11 19.0002 11C8.93089 11 0.691745 18.8331 0.0410156 28.7377L0.0490848 28.7513L0.0492213 28.7489L10.2585 32.9518C10.5362 32.7691 10.8323 32.6109 11.1482 32.4821C11.8648 32.1869 12.6205 32.0548 13.3737 32.089L18.0231 25.3351C18.0214 25.3051 18.0214 25.2731 18.0214 25.2412C18.0214 21.2553 21.2588 18.0127 25.2382 18.0127C29.2192 18.0127 32.4549 21.2553 32.4549 25.2412C32.4549 29.2268 29.2192 32.4723 25.2382 32.4723C25.1859 32.4723 25.1322 32.4707 25.08 32.4691L25.0751 32.469L18.4226 37.2231C18.4422 37.957 18.3068 38.6925 18.0165 39.3938C16.901 42.0766 13.809 43.3536 11.1273 42.2332C9.48823 41.5499 8.37726 40.1293 8.01487 38.5099L0.820812 35.5414ZM25.2463 21.6147C23.2534 21.6147 21.6355 23.2355 21.6355 25.2338C21.6355 27.2323 23.2534 28.8517 25.2463 28.8517C27.2409 28.8517 28.8588 27.2323 28.8588 25.2338C28.8588 23.2355 27.2409 21.6147 25.2463 21.6147ZM11.5898 41.1209C13.6604 41.9837 16.0425 41.0002 16.9059 38.9274C17.3234 37.926 17.325 36.817 16.9124 35.8124C16.4998 34.8077 15.7212 34.0216 14.7177 33.6041C13.7224 33.1899 12.6571 33.2029 11.72 33.5584L14.1485 34.5647C15.6747 35.2008 16.3971 36.9556 15.7603 38.4838C15.1256 40.0103 13.3737 40.7344 11.8467 40.0984L9.49736 39.1247C9.9134 39.994 10.6346 40.723 11.5898 41.1209ZM20.4303 25.2412C20.4303 27.8976 22.588 30.0585 25.2382 30.0585C27.89 30.0585 30.0477 27.8976 30.0477 25.2412C30.0477 22.5869 27.89 20.4253 25.2382 20.4253C22.588 20.4253 20.4303 22.5869 20.4303 25.2412Z" fill="white"/>
<path d="M167.532 24.5291H166.275V21.3876L165.018 23.461H164.39L163.762 21.3876V24.5291H162.505V19.1885H163.762L165.018 22.0787L166.275 19.1885H167.532V24.5291ZM161.877 20.131H160.62V24.5291H159.364V20.131H158.107V19.1885H161.877V20.131ZM154.965 39.9226H151.196V27.8591L146.797 35.713H144.284L140.514 27.8591V39.9226H136.116V19.1885H140.514L145.541 30.3724L151.196 19.1885H154.965V39.9226ZM130.461 39.9226H126.063L124.807 36.2784H117.895L116.639 39.9226H112.241L119.78 19.1885H122.922L130.461 39.9226ZM124.178 32.8227L121.665 25.2831L119.152 32.8227H124.178ZM105.958 39.9226H92.1348V19.1885H105.958V22.7698H96.5329V27.6706H104.701V31.252H96.5329V36.3413H105.958V39.9226ZM85.8517 22.7698H80.8252V39.9226H76.4271V22.7698H70.7723V19.1885H85.8517V22.7698ZM65.7459 33.828C65.7459 38.1005 61.976 40.0483 58.2062 40.1111C54.4363 40.1111 51.9231 39.2315 50.6665 37.3466L53.1797 34.7705C54.4363 35.9015 55.693 36.5298 58.2062 36.5298C60.7194 36.5298 61.976 35.6501 61.976 33.9537C61.976 32.3829 60.7194 31.6918 59.4628 31.4405L56.9496 31.1263C53.1797 30.6237 51.2948 28.6759 51.2948 25.2831C51.2948 23.3981 51.9231 21.8902 53.1797 20.6964C54.4363 19.5655 56.3213 19 58.2062 19C61.3477 19 63.2326 19.8168 65.1176 21.3876L62.6043 23.9636C61.3477 23.0212 60.0911 22.5185 58.2062 22.5185C56.3213 22.6442 55.0647 23.3353 55.0647 25.1574C55.0647 26.6025 56.3213 27.2937 57.5779 27.4193L60.0911 27.7963C63.2326 28.1733 65.7459 30.3095 65.7459 33.828Z" fill="white"/>
</svg>
